Perun-Bold.ufo
<glyph name="numbersign" format="2">
  <advance width="716"/>
  <unicode hex="0023"/>
  <outline>
    <contour>
      <point x="272" y="284" type="line"/>
      <point x="395" y="284" type="line"/>
      <point x="446" y="459" type="line"/>
      <point x="323" y="459" type="line"/>
    </contour>
    <contour>
      <point x="88" y="0" type="line"/>
      <point x="148" y="204" type="line"/>
      <point x="45" y="204" type="line"/>
      <point x="72" y="284" type="line"/>
      <point x="172" y="284" type="line"/>
      <point x="224" y="459" type="line"/>
      <point x="120" y="459" type="line"/>
      <point x="147" y="539" type="line"/>
      <point x="247" y="539" type="line"/>
      <point x="301" y="722" type="line"/>
      <point x="401" y="722" type="line"/>
      <point x="347" y="539" type="line"/>
      <point x="469" y="539" type="line"/>
      <point x="523" y="722" type="line"/>
      <point x="623" y="722" type="line"/>
      <point x="569" y="539" type="line"/>
      <point x="672" y="539" type="line"/>
      <point x="645" y="459" type="line"/>
      <point x="545" y="459" type="line"/>
      <point x="494" y="284" type="line"/>
      <point x="597" y="284" type="line"/>
      <point x="570" y="204" type="line"/>
      <point x="470" y="204" type="line"/>
      <point x="410" y="-1" type="line"/>
      <point x="310" y="-1" type="line"/>
      <point x="371" y="204" type="line"/>
      <point x="248" y="204" type="line"/>
      <point x="188" y="0" type="line"/>
    </contour>
  </outline>
</glyph>
<glyph name="percent" format="2">
	<unicode hex="0025"/>
	<advance width="1000"/>
	<outline>
		<contour>
			<point x="241" y="-14" type="line"/>
			<point x="666" y="736" type="line"/>
			<point x="766" y="736" type="line"/>
			<point x="339" y="-14" type="line"/>
		</contour>
		<contour>
			<point x="38" y="524" type="curve" smooth="yes"/>
			<point x="38" y="641"/>
			<point x="120" y="729"/>
			<point x="238" y="729" type="curve" smooth="yes"/>
			<point x="356" y="729"/>
			<point x="436" y="641"/>
			<point x="436" y="524" type="curve" smooth="yes"/>
			<point x="436" y="406"/>
			<point x="357" y="321"/>
			<point x="238" y="321" type="curve" smooth="yes"/>
			<point x="120" y="321"/>
			<point x="38" y="407"/>
		</contour>
		<contour>
			<point x="144" y="525" type="curve" smooth="yes"/>
			<point x="144" y="449"/>
			<point x="168" y="388"/>
			<point x="237" y="388" type="curve" smooth="yes"/>
			<point x="305" y="388"/>
			<point x="330" y="450"/>
			<point x="330" y="524" type="curve" smooth="yes"/>
			<point x="330" y="599"/>
			<point x="304" y="662"/>
			<point x="235" y="662" type="curve" smooth="yes"/>
			<point x="167" y="662"/>
			<point x="144" y="601"/>
		</contour>
		<contour>
			<point x="563" y="195" type="curve" smooth="yes"/>
			<point x="563" y="313"/>
			<point x="643" y="401"/>
			<point x="763" y="401" type="curve" smooth="yes"/>
			<point x="882" y="401"/>
			<point x="961" y="313"/>
			<point x="961" y="196" type="curve" smooth="yes"/>
			<point x="961" y="79"/>
			<point x="881" y="-7"/>
			<point x="761" y="-7" type="curve" smooth="yes"/>
			<point x="641" y="-7"/>
			<point x="563" y="78"/>
		</contour>
		<contour>
			<point x="666" y="197" type="curve" smooth="yes"/>
			<point x="666" y="122"/>
			<point x="692" y="60"/>
			<point x="761" y="60" type="curve" smooth="yes"/>
			<point x="830" y="60"/>
			<point x="855" y="122"/>
			<point x="855" y="197" type="curve" smooth="yes"/>
			<point x="855" y="272"/>
			<point x="830" y="334"/>
			<point x="761" y="334" type="curve" smooth="yes"/>
			<point x="692" y="334"/>
			<point x="666" y="272"/>
		</contour>
	</outline>
</glyph>
<glyph name="ampersand" format="2">
	<unicode hex="0026"/>
	<advance width="789"/>
	<outline>
		<contour>
			<point x="174.009" y="421.095" type="curve" smooth="yes"/>
			<point x="581.346" y="-1" type="line"/>
			<point x="749" y="-1" type="line"/>
			<point x="352" y="409.565" type="line" smooth="yes"/>
			<point x="260.586" y="504.103"/>
			<point x="242" y="526.606"/>
			<point x="242" y="560.162" type="curve" smooth="yes"/>
			<point x="242" y="610"/>
			<point x="283" y="635"/>
			<point x="323.975" y="635" type="curve" smooth="yes"/>
			<point x="368.709" y="635"/>
			<point x="398" y="603.496"/>
			<point x="398" y="560.554" type="curve" smooth="yes"/>
			<point x="398" y="528.472"/>
			<point x="381.65" y="503.172"/>
			<point x="353.333" y="485.354" type="curve" smooth="yes"/>
			<point x="290.268" y="445.674" type="line"/>
			<point x="351" y="374.802" type="line"/>
			<point x="387.78" y="398.45" type="line" smooth="yes"/>
			<point x="472.419" y="452.871"/>
			<point x="522" y="500"/>
			<point x="522" y="573.658" type="curve" smooth="yes"/>
			<point x="522" y="683.371"/>
			<point x="412" y="735"/>
			<point x="325" y="735" type="curve" smooth="yes"/>
			<point x="195.498" y="735"/>
			<point x="109" y="666.919"/>
			<point x="109" y="558.442" type="curve" smooth="yes"/>
			<point x="109" y="490.5"/>
			<point x="142.932" y="453.167"/>
		</contour>
		<contour>
			<point x="484.163" y="144.267" type="line"/>
			<point x="450.827" y="108.526"/>
			<point x="389.084" y="85"/>
			<point x="330.754" y="85" type="curve" smooth="yes"/>
			<point x="256.621" y="85"/>
			<point x="194" y="123"/>
			<point x="194" y="197.416" type="curve" smooth="yes"/>
			<point x="194" y="242.5"/>
			<point x="216.984" y="299.418"/>
			<point x="259.985" y="325.757" type="curve" smooth="yes"/>
			<point x="290.171" y="344.247" type="line"/>
			<point x="215.795" y="420.828" type="line"/>
			<point x="168.179" y="391.309" type="line" smooth="yes"/>
			<point x="99.3415" y="348.635"/>
			<point x="54" y="288.65"/>
			<point x="54" y="201.206" type="curve" smooth="yes"/>
			<point x="54" y="68.0387"/>
			<point x="159.157" y="-15"/>
			<point x="333.324" y="-15" type="curve" smooth="yes"/>
			<point x="427.039" y="-15"/>
			<point x="501.735" y="9.04156"/>
			<point x="562.036" y="61.9166" type="curve"/>
		</contour>
		<contour>
			<point x="608.301" y="112.303" type="line"/>
			<point x="679.568" y="180.802"/>
			<point x="693" y="290.102"/>
			<point x="693" y="381" type="curve"/>
			<point x="555.158" y="381" type="line"/>
			<point x="556.105" y="381"/>
			<point x="558" y="352"/>
			<point x="558" y="336.015" type="curve" smooth="yes"/>
			<point x="558" y="287.67"/>
			<point x="540.667" y="238.845"/>
			<point x="520.495" y="204.505" type="curve"/>
		</contour>
	</outline>
	<guideline x="215" y="420" angle="211.675"/>
	<guideline x="215" y="400" angle="211.675"/>
	<guideline x="215" y="298" angle="211.675"/>
	<guideline x="215" y="291" angle="211.675"/>
	<guideline x="719" y="-1" angle="134.007"/>
	<guideline x="215.955" y="421" angle="314.104"/>
</glyph>
<glyph name="parenleft" format="2">
	<unicode hex="0028"/>
	<advance width="385"/>
	<outline>
		<contour>
			<point x="185" y="-132" type="line"/>
			<point x="122" y="7"/>
			<point x="91" y="152"/>
			<point x="91" y="303" type="curve" smooth="yes"/>
			<point x="91" y="455"/>
			<point x="122" y="600"/>
			<point x="185" y="737" type="curve"/>
			<point x="295" y="737" type="line"/>
			<point x="240" y="583"/>
			<point x="213" y="438"/>
			<point x="213" y="303" type="curve" smooth="yes"/>
			<point x="213" y="170"/>
			<point x="240" y="25"/>
			<point x="295" y="-132" type="curve"/>
		</contour>
	</outline>
</glyph>
<glyph name="parenright" format="2">
	<unicode hex="0029"/>
	<advance width="385"/>
	<outline>
		<contour>
			<point x="91" y="-133" type="line"/>
			<point x="146" y="24"/>
			<point x="173" y="169"/>
			<point x="173" y="305" type="curve" smooth="yes"/>
			<point x="173" y="440"/>
			<point x="146" y="585"/>
			<point x="91" y="736" type="curve"/>
			<point x="201" y="736" type="line"/>
			<point x="264" y="599"/>
			<point x="295" y="454"/>
			<point x="295" y="302" type="curve" smooth="yes"/>
			<point x="295" y="151"/>
			<point x="264" y="6"/>
			<point x="201" y="-133" type="curve"/>
		</contour>
	</outline>
</glyph>
<glyph name="asterisk" format="2">
	<unicode hex="002A"/>
	<advance width="640"/>
	<outline>
		<contour>
			<point x="174" y="388" type="line"/>
			<point x="275" y="512" type="line"/>
			<point x="120" y="486" type="line"/>
			<point x="120" y="588" type="line"/>
			<point x="275" y="562" type="line"/>
			<point x="174" y="686" type="line"/>
			<point x="267" y="735" type="line"/>
			<point x="321" y="594" type="line"/>
			<point x="375" y="735" type="line"/>
			<point x="467" y="686" type="line"/>
			<point x="366" y="562" type="line"/>
			<point x="521" y="588" type="line"/>
			<point x="521" y="486" type="line"/>
			<point x="366" y="512" type="line"/>
			<point x="467" y="388" type="line"/>
			<point x="375" y="338" type="line"/>
			<point x="321" y="480" type="line"/>
			<point x="267" y="338" type="line"/>
		</contour>
	</outline>
</glyph>
<glyph name="comma" format="2">
	<unicode hex="002C"/>
	<advance width="310"/>
	<outline>
		<contour>
			<point x="48" y="-129" type="line"/>
			<point x="127" y="123" type="line"/>
			<point x="263" y="123" type="line"/>
			<point x="143" y="-129" type="line"/>
		</contour>
	</outline>
</glyph>
<glyph name="zero" format="2">
	<unicode hex="0030"/>
	<advance width="573"/>
	<outline>
		<contour>
			<point x="541" y="361" type="curve" smooth="yes"/>
			<point x="541" y="188"/>
			<point x="495" y="-14"/>
			<point x="284" y="-14" type="curve" smooth="yes"/>
			<point x="119" y="-14"/>
			<point x="35" y="111"/>
			<point x="35" y="361" type="curve" smooth="yes"/>
			<point x="35" y="611"/>
			<point x="119" y="736"/>
			<point x="283" y="736" type="curve" smooth="yes"/>
			<point x="495" y="736"/>
			<point x="541" y="530"/>
		</contour>
		<contour>
			<point x="395" y="361" type="curve" smooth="yes"/>
			<point x="395" y="437"/>
			<point x="394" y="636"/>
			<point x="291" y="636" type="curve" smooth="yes"/>
			<point x="188" y="636"/>
			<point x="181" y="438"/>
			<point x="181" y="361" type="curve" smooth="yes"/>
			<point x="181" y="284"/>
			<point x="192" y="86"/>
			<point x="288" y="86" type="curve" smooth="yes"/>
			<point x="385" y="86"/>
			<point x="395" y="284"/>
		</contour>
	</outline>
</glyph>
<glyph name="five" format="2">
	<unicode hex="0035"/>
	<advance width="573"/>
	<outline>
		<contour>
			<point x="332" y="471" type="curve" smooth="yes"/>
			<point x="459" y="471"/>
			<point x="536" y="388"/>
			<point x="536" y="259" type="curve" smooth="yes"/>
			<point x="536" y="107"/>
			<point x="430" y="-14"/>
			<point x="261" y="-14" type="curve" smooth="yes"/>
			<point x="135" y="-14"/>
			<point x="46" y="53"/>
			<point x="39" y="184" type="curve"/>
			<point x="174" y="184" type="line"/>
			<point x="174" y="127"/>
			<point x="213" y="96"/>
			<point x="272" y="96" type="curve" smooth="yes"/>
			<point x="360" y="96"/>
			<point x="396" y="165"/>
			<point x="396" y="247" type="curve" smooth="yes"/>
			<point x="396" y="328"/>
			<point x="361" y="369"/>
			<point x="295" y="369" type="curve" smooth="yes"/>
			<point x="237" y="369"/>
			<point x="198" y="337"/>
			<point x="177" y="292" type="curve"/>
			<point x="49" y="292" type="line"/>
			<point x="69" y="722" type="line"/>
			<point x="495" y="722" type="line"/>
			<point x="495" y="607" type="line"/>
			<point x="200" y="607" type="line"/>
			<point x="189" y="420" type="line"/>
			<point x="220" y="451"/>
			<point x="269" y="471"/>
		</contour>
	</outline>
</glyph>
<glyph name="six" format="2">
	<unicode hex="0036"/>
	<advance width="573"/>
	<outline>
		<contour>
			<point x="195" y="227" type="curve" smooth="yes"/>
			<point x="195" y="153"/>
			<point x="223" y="93"/>
			<point x="295" y="93" type="curve" smooth="yes"/>
			<point x="367" y="93"/>
			<point x="394" y="152"/>
			<point x="394" y="226" type="curve" smooth="yes"/>
			<point x="394" y="300"/>
			<point x="367" y="360"/>
			<point x="295" y="360" type="curve" smooth="yes"/>
			<point x="223" y="360"/>
			<point x="195" y="300"/>
		</contour>
		<contour>
			<point x="33" y="333" type="curve" smooth="yes"/>
			<point x="33" y="544"/>
			<point x="112" y="735"/>
			<point x="314" y="735" type="curve" smooth="yes"/>
			<point x="446" y="735"/>
			<point x="527" y="654"/>
			<point x="527" y="542" type="curve"/>
			<point x="387" y="542" type="line"/>
			<point x="387" y="589"/>
			<point x="352" y="624"/>
			<point x="305" y="624" type="curve" smooth="yes"/>
			<point x="198" y="624"/>
			<point x="173" y="453"/>
			<point x="173" y="374" type="curve"/>
			<point x="210" y="433"/>
			<point x="273" y="461"/>
			<point x="338" y="461" type="curve" smooth="yes"/>
			<point x="463" y="461"/>
			<point x="540" y="358"/>
			<point x="540" y="234" type="curve" smooth="yes"/>
			<point x="540" y="91"/>
			<point x="439" y="-15"/>
			<point x="285" y="-15" type="curve" smooth="yes"/>
			<point x="87" y="-15"/>
			<point x="33" y="159"/>
		</contour>
	</outline>
</glyph>
<glyph name="colon" format="2">
	<unicode hex="003A"/>
	<advance width="310"/>
	<outline>
		<contour>
			<point x="137" y="368" type="line"/>
			<point x="137" y="500" type="line"/>
			<point x="263" y="500" type="line"/>
			<point x="263" y="368" type="line"/>
		</contour>
		<contour>
			<point x="137" y="0" type="line"/>
			<point x="137" y="132" type="line"/>
			<point x="263" y="132" type="line"/>
			<point x="263" y="0" type="line"/>
		</contour>
	</outline>
</glyph>
<glyph name="semicolon" format="2">
  <advance width="310"/>
  <unicode hex="003B"/>
  <outline>
    <contour>
      <point x="122" y="368" type="line"/>
      <point x="122" y="500" type="line"/>
      <point x="248" y="500" type="line"/>
      <point x="248" y="368" type="line"/>
    </contour>
    <contour>
      <point x="48" y="-120" type="line"/>
      <point x="127" y="132" type="line"/>
      <point x="263" y="132" type="line"/>
      <point x="143" y="-120" type="line"/>
    </contour>
  </outline>
</glyph>
<glyph name="less" format="2">
	<unicode hex="003C"/>
	<advance width="1000"/>
	<outline>
		<contour>
			<point x="140" y="209" type="line"/>
			<point x="140" y="391" type="line"/>
			<point x="800" y="621" type="line"/>
			<point x="800" y="499" type="line"/>
			<point x="264" y="300" type="line"/>
			<point x="800" y="101" type="line"/>
			<point x="800" y="-21" type="line"/>
		</contour>
	</outline>
</glyph>
<glyph name="at" format="2">
	<unicode hex="0040"/>
	<advance width="1039"/>
	<outline>
		<contour>
			<point x="512" y="115" type="curve" smooth="yes"/>
			<point x="583" y="115"/>
			<point x="614" y="191"/>
			<point x="614" y="268" type="curve" smooth="yes"/>
			<point x="614" y="330"/>
			<point x="594" y="402"/>
			<point x="522" y="402" type="curve" smooth="yes"/>
			<point x="444" y="402"/>
			<point x="415" y="317"/>
			<point x="415" y="252" type="curve" smooth="yes"/>
			<point x="415" y="186"/>
			<point x="445" y="115"/>
		</contour>
		<contour>
			<point x="763" y="-196" type="line"/>
			<point x="697" y="-208"/>
			<point x="603" y="-213"/>
			<point x="553" y="-213" type="curve" smooth="yes"/>
			<point x="255" y="-213"/>
			<point x="42" y="-33"/>
			<point x="42" y="253" type="curve" smooth="yes"/>
			<point x="42" y="546"/>
			<point x="265" y="734"/>
			<point x="541" y="734" type="curve" smooth="yes"/>
			<point x="797" y="734"/>
			<point x="1000" y="572"/>
			<point x="1000" y="300" type="curve" smooth="yes"/>
			<point x="1000" y="167"/>
			<point x="952" y="6"/>
			<point x="784" y="6" type="curve" smooth="yes"/>
			<point x="717" y="6"/>
			<point x="669" y="31"/>
			<point x="639" y="87" type="curve"/>
			<point x="607" y="45"/>
			<point x="547" y="10"/>
			<point x="493" y="10" type="curve" smooth="yes"/>
			<point x="360" y="10"/>
			<point x="275" y="127"/>
			<point x="275" y="262" type="curve" smooth="yes"/>
			<point x="275" y="382"/>
			<point x="343" y="507"/>
			<point x="475" y="507" type="curve" smooth="yes"/>
			<point x="538" y="507"/>
			<point x="585" y="479"/>
			<point x="618" y="440" type="curve"/>
			<point x="618" y="491" type="line"/>
			<point x="754" y="491" type="line"/>
			<point x="754" y="186" type="line" smooth="yes"/>
			<point x="754" y="156"/>
			<point x="765" y="105"/>
			<point x="796" y="105" type="curve" smooth="yes"/>
			<point x="846" y="105"/>
			<point x="864" y="232"/>
			<point x="864" y="270" type="curve" smooth="yes"/>
			<point x="864" y="477"/>
			<point x="753" y="618"/>
			<point x="537" y="618" type="curve" smooth="yes"/>
			<point x="329" y="618"/>
			<point x="182" y="450"/>
			<point x="182" y="245" type="curve" smooth="yes"/>
			<point x="182" y="33"/>
			<point x="339" y="-94"/>
			<point x="554" y="-94" type="curve" smooth="yes"/>
			<point x="625" y="-94"/>
			<point x="696" y="-86"/>
			<point x="763" y="-63" type="curve"/>
		</contour>
	</outline>
</glyph>
<glyph name="A" format="2">
	<unicode hex="0041"/>
	<advance width="709"/>
	<outline>
		<contour>
			<point x="252" y="269" type="line"/>
			<point x="453" y="269" type="line"/>
			<point x="355" y="561" type="line"/>
		</contour>
		<contour>
			<point x="10" y="0" type="line"/>
			<point x="281" y="720" type="line"/>
			<point x="430" y="720" type="line"/>
			<point x="700" y="0" type="line"/>
			<point x="555" y="0" type="line"/>
			<point x="495" y="154" type="line"/>
			<point x="210" y="154" type="line"/>
			<point x="155" y="0" type="line"/>
		</contour>
	</outline>
	<anchor name="bottom" x="355" y="-75"/>
	<anchor name="ogonekUC" x="585" y="10"/>
	<anchor name="top" x="355" y="797"/>
</glyph>
<glyph name="B" format="2">
	<unicode hex="0042"/>
	<advance width="673"/>
	<outline>
		<contour>
			<point x="220" y="115" type="line"/>
			<point x="325" y="115" type="line" smooth="yes"/>
			<point x="422" y="115"/>
			<point x="469" y="146"/>
			<point x="469" y="209" type="curve" smooth="yes"/>
			<point x="469" y="272"/>
			<point x="421" y="313"/>
			<point x="346" y="313" type="curve" smooth="yes"/>
			<point x="220" y="313" type="line"/>
		</contour>
		<contour>
			<point x="220" y="427" type="line"/>
			<point x="315" y="427" type="line" smooth="yes"/>
			<point x="388" y="427"/>
			<point x="435" y="462"/>
			<point x="435" y="515" type="curve" smooth="yes"/>
			<point x="435" y="567"/>
			<point x="389" y="606"/>
			<point x="326" y="606" type="curve" smooth="yes"/>
			<point x="220" y="606" type="line"/>
		</contour>
		<contour>
			<point x="70" y="0" type="line"/>
			<point x="70" y="721" type="line"/>
			<point x="367" y="721" type="line" smooth="yes"/>
			<point x="500" y="721"/>
			<point x="585" y="655"/>
			<point x="585" y="552" type="curve" smooth="yes"/>
			<point x="585" y="470"/>
			<point x="532" y="406"/>
			<point x="440" y="377" type="curve"/>
			<point x="440" y="373" type="line"/>
			<point x="554" y="351"/>
			<point x="619" y="285"/>
			<point x="619" y="189" type="curve" smooth="yes"/>
			<point x="619" y="74"/>
			<point x="526" y="0"/>
			<point x="377" y="0" type="curve" smooth="yes"/>
		</contour>
	</outline>
	<anchor name="top" x="279" y="797"/>
</glyph>
<glyph name="C" format="2">
	<unicode hex="0043"/>
	<advance width="727"/>
	<outline>
		<contour>
			<point x="55" y="354" type="curve" smooth="yes"/>
			<point x="55" y="587"/>
			<point x="159" y="735"/>
			<point x="375" y="735" type="curve" smooth="yes"/>
			<point x="552" y="735"/>
			<point x="664" y="635"/>
			<point x="664" y="493" type="curve"/>
			<point x="519" y="493" type="line"/>
			<point x="519" y="561"/>
			<point x="466" y="622"/>
			<point x="381" y="622" type="curve" smooth="yes"/>
			<point x="262" y="622"/>
			<point x="205" y="503"/>
			<point x="205" y="351" type="curve" smooth="yes"/>
			<point x="205" y="220"/>
			<point x="235" y="100"/>
			<point x="372" y="100" type="curve" smooth="yes"/>
			<point x="468" y="100"/>
			<point x="516" y="159"/>
			<point x="516" y="244" type="curve"/>
			<point x="667" y="244" type="line"/>
			<point x="667" y="106"/>
			<point x="560" y="-13"/>
			<point x="378" y="-13" type="curve" smooth="yes"/>
			<point x="190" y="-13"/>
			<point x="55" y="115"/>
		</contour>
	</outline>
	<anchor name="bottom" x="376" y="10"/>
	<anchor name="top" x="361" y="797"/>
</glyph>
<glyph name="D" format="2">
	<unicode hex="0044"/>
	<advance width="718"/>
	<outline>
		<component base="I" xOffset="-10"/>
		<contour>
			<point x="60" y="0" type="line"/>
			<point x="279" y="0" type="line" smooth="yes"/>
			<point x="508" y="0"/>
			<point x="664" y="125"/>
			<point x="664" y="359" type="curve" smooth="yes"/>
			<point x="664" y="599"/>
			<point x="499" y="720"/>
			<point x="279" y="720" type="curve" smooth="yes"/>
			<point x="60" y="720" type="line"/>
			<point x="195" y="605" type="line"/>
			<point x="279" y="605" type="line" smooth="yes"/>
			<point x="435" y="605"/>
			<point x="514" y="523"/>
			<point x="514" y="359" type="curve" smooth="yes"/>
			<point x="514" y="195"/>
			<point x="435" y="114"/>
			<point x="279" y="114" type="curve" smooth="yes"/>
			<point x="195" y="114" type="line"/>
		</contour>
	</outline>
	<anchor name="top" x="262" y="797"/>
</glyph>
<glyph name="E" format="2">
  <advance width="626"/>
  <unicode hex="0045"/>
  <anchor x="302" y="797" name="top"/>
  <outline>
    <contour>
      <point x="70" y="0" type="line"/>
      <point x="70" y="722" type="line"/>
      <point x="547" y="722" type="line"/>
      <point x="547" y="607" type="line"/>
      <point x="220" y="607" type="line"/>
      <point x="220" y="429" type="line"/>
      <point x="527" y="429" type="line"/>
      <point x="527" y="319" type="line"/>
      <point x="220" y="319" type="line"/>
      <point x="220" y="115" type="line"/>
      <point x="557" y="115" type="line"/>
      <point x="557" y="0" type="line"/>
    </contour>
  </outline>
</glyph>
<glyph name="F" format="2">
	<unicode hex="0046"/>
	<advance width="583"/>
	<outline>
		<contour>
			<point x="70" y="0" type="line"/>
			<point x="70" y="722" type="line"/>
			<point x="529" y="722" type="line"/>
			<point x="529" y="607" type="line"/>
			<point x="220" y="607" type="line"/>
			<point x="220" y="430" type="line"/>
			<point x="509" y="430" type="line"/>
			<point x="509" y="315" type="line"/>
			<point x="220" y="315" type="line"/>
			<point x="220" y="0" type="line"/>
		</contour>
	</outline>
	<anchor name="top" x="302" y="797"/>
</glyph>
<glyph name="H" format="2">
	<unicode hex="0048"/>
	<advance width="695"/>
	<outline>
		<contour>
			<point x="60" y="0" type="line"/>
			<point x="60" y="722" type="line"/>
			<point x="205" y="722" type="line"/>
			<point x="205" y="435" type="line"/>
			<point x="490" y="435" type="line"/>
			<point x="490" y="722" type="line"/>
			<point x="635" y="722" type="line"/>
			<point x="635" y="0" type="line"/>
			<point x="490" y="0" type="line"/>
			<point x="490" y="320" type="line"/>
			<point x="205" y="320" type="line"/>
			<point x="205" y="0" type="line"/>
		</contour>
	</outline>
	<anchor name="bottom" x="348" y="-75"/>
	<anchor name="cedilla.bottom" x="130" y="10"/>
	<anchor name="left" x="10" y="361"/>
	<anchor name="top" x="348" y="797"/>
</glyph>
<glyph name="J" format="2">
  <advance width="626"/>
  <unicode hex="004A"/>
  <anchor x="469" y="797" name="top"/>
  <outline>
    <contour>
      <point x="55" y="227" type="curve"/>
      <point x="205" y="227" type="line"/>
      <point x="205" y="143"/>
      <point x="236" y="100"/>
      <point x="297" y="100" type="curve" smooth="yes"/>
      <point x="380" y="100"/>
      <point x="407" y="137"/>
      <point x="407" y="222" type="curve" smooth="yes"/>
      <point x="407" y="723" type="line"/>
      <point x="557" y="723" type="line"/>
      <point x="557" y="213" type="line" smooth="yes"/>
      <point x="557" y="70"/>
      <point x="445" y="-14"/>
      <point x="301" y="-14" type="curve" smooth="yes"/>
      <point x="136" y="-14"/>
      <point x="55" y="70"/>
    </contour>
  </outline>
</glyph>
<glyph name="K" format="2">
	<unicode hex="004B"/>
	<advance width="694"/>
	<outline>
		<contour>
			<point x="70" y="0" type="line"/>
			<point x="70" y="722" type="line"/>
			<point x="220" y="722" type="line"/>
			<point x="220" y="412" type="line"/>
			<point x="460" y="722" type="line"/>
			<point x="630" y="722" type="line"/>
			<point x="376" y="399" type="line"/>
			<point x="660" y="0" type="line"/>
			<point x="480" y="0" type="line"/>
			<point x="220" y="362" type="line"/>
			<point x="220" y="0" type="line"/>
		</contour>
	</outline>
	<anchor name="top" x="325" y="797"/>
</glyph>
<glyph name="L" format="2">
	<unicode hex="004C"/>
	<advance width="570"/>
	<outline>
		<component base="I"/>
		<contour>
			<point x="220" y="115" type="line"/>
			<point x="557" y="115" type="line"/>
			<point x="557" y="0" type="line"/>
			<point x="220" y="0" type="line"/>
		</contour>
	</outline>
	<anchor name="top" x="138" y="797"/>
</glyph>
<glyph name="N" format="2">
	<unicode hex="004E"/>
	<advance width="767"/>
	<outline>
		<contour>
			<point x="70" y="0" type="line"/>
			<point x="70" y="722" type="line"/>
			<point x="280" y="722" type="line"/>
			<point x="558" y="145" type="line"/>
			<point x="558" y="722" type="line"/>
			<point x="698" y="722" type="line"/>
			<point x="698" y="0" type="line"/>
			<point x="488" y="0" type="line"/>
			<point x="210" y="577" type="line"/>
			<point x="210" y="0" type="line"/>
		</contour>
	</outline>
	<anchor name="top" x="384" y="797"/>
</glyph>
<glyph name="O" format="2">
	<unicode hex="004F"/>
	<advance width="793"/>
	<outline>
		<contour>
			<point x="56" y="361" type="curve" smooth="yes"/>
			<point x="56" y="579"/>
			<point x="168" y="736"/>
			<point x="398" y="736" type="curve"/>
			<point x="398" y="622" type="line"/>
			<point x="258" y="622"/>
			<point x="207" y="531"/>
			<point x="207" y="361" type="curve" smooth="yes"/>
			<point x="207" y="191"/>
			<point x="258" y="100"/>
			<point x="398" y="100" type="curve"/>
			<point x="398" y="-14" type="line"/>
			<point x="168" y="-14"/>
			<point x="56" y="143"/>
		</contour>
		<contour>
			<point x="740" y="361" type="curve" smooth="yes"/>
			<point x="740" y="579"/>
			<point x="628" y="736"/>
			<point x="398" y="736" type="curve"/>
			<point x="398" y="622" type="line"/>
			<point x="538" y="622"/>
			<point x="589" y="531"/>
			<point x="589" y="361" type="curve" smooth="yes"/>
			<point x="589" y="191"/>
			<point x="538" y="100"/>
			<point x="398" y="100" type="curve"/>
			<point x="398" y="-14" type="line"/>
			<point x="628" y="-14"/>
			<point x="740" y="143"/>
		</contour>
	</outline>
	<anchor name="top" x="392" y="797"/>
	<guideline x="80" y="0" angle="90"/>
	<guideline x="100" y="0" angle="90"/>
	<guideline x="0" y="704" angle="0"/>
</glyph>
<glyph name="P" format="2">
	<unicode hex="0050"/>
	<advance width="655"/>
	<outline>
		<contour>
			<point x="214" y="388" type="line"/>
			<point x="315" y="388" type="line" smooth="yes"/>
			<point x="385" y="388"/>
			<point x="445" y="408"/>
			<point x="445" y="496" type="curve" smooth="yes"/>
			<point x="445" y="590"/>
			<point x="377" y="606"/>
			<point x="284" y="606" type="curve" smooth="yes"/>
			<point x="214" y="606" type="line"/>
		</contour>
		<contour>
			<point x="69" y="0" type="line"/>
			<point x="69" y="721" type="line"/>
			<point x="258" y="721" type="line" smooth="yes"/>
			<point x="414" y="721"/>
			<point x="596" y="700"/>
			<point x="596" y="503" type="curve" smooth="yes"/>
			<point x="596" y="336"/>
			<point x="465" y="273"/>
			<point x="321" y="273" type="curve" smooth="yes"/>
			<point x="214" y="273" type="line"/>
			<point x="214" y="0" type="line"/>
		</contour>
	</outline>
	<anchor name="top" x="293" y="797"/>
</glyph>
<glyph name="Q" format="2">
  <advance width="834"/>
  <unicode hex="0051"/>
  <anchor x="390" y="807" name="top"/>
  <outline>
    <contour>
      <point x="207" y="356" type="curve" smooth="yes"/>
      <point x="207" y="186"/>
      <point x="270" y="101"/>
      <point x="396" y="101" type="curve" smooth="yes"/>
      <point x="542" y="101"/>
      <point x="588" y="216"/>
      <point x="588" y="359" type="curve" smooth="yes"/>
      <point x="588" y="490"/>
      <point x="550" y="621"/>
      <point x="398" y="621" type="curve" smooth="yes"/>
      <point x="245" y="621"/>
      <point x="207" y="489"/>
    </contour>
    <contour>
      <point x="56" y="362" type="curve" smooth="yes"/>
      <point x="56" y="582"/>
      <point x="172" y="736"/>
      <point x="392" y="736" type="curve" smooth="yes"/>
      <point x="623" y="736"/>
      <point x="739" y="568"/>
      <point x="739" y="366" type="curve" smooth="yes"/>
      <point x="739" y="265"/>
      <point x="710" y="165"/>
      <point x="629" y="90" type="curve"/>
      <point x="681" y="104"/>
      <point x="739" y="112"/>
      <point x="800" y="115" type="curve"/>
      <point x="800" y="0" type="line"/>
      <point x="599" y="0" type="line" smooth="yes"/>
      <point x="552" y="0"/>
      <point x="497" y="-4"/>
      <point x="481" y="-7" type="curve" smooth="yes"/>
      <point x="469" y="-9" type="line" smooth="yes"/>
      <point x="446" y="-13"/>
      <point x="416" y="-14"/>
      <point x="398" y="-14" type="curve" smooth="yes"/>
      <point x="159" y="-14"/>
      <point x="56" y="156"/>
    </contour>
  </outline>
</glyph>
<glyph name="R" format="2">
  <advance width="682"/>
  <unicode hex="0052"/>
  <anchor x="316" y="797" name="top"/>
  <outline>
    <contour>
      <point x="69" y="0" type="line"/>
      <point x="69" y="723" type="line"/>
      <point x="349" y="723" type="line" smooth="yes"/>
      <point x="484" y="723"/>
      <point x="627" y="691"/>
      <point x="627" y="529" type="curve" smooth="yes"/>
      <point x="627" y="439"/>
      <point x="566" y="378"/>
      <point x="472" y="357" type="curve"/>
      <point x="472" y="361" type="line"/>
      <point x="554" y="341"/>
      <point x="584" y="325"/>
      <point x="599" y="233" type="curve" smooth="yes"/>
      <point x="616" y="121" type="line" smooth="yes"/>
      <point x="622" y="77"/>
      <point x="632" y="37"/>
      <point x="645" y="0" type="curve"/>
      <point x="491" y="0" type="line"/>
      <point x="480" y="29"/>
      <point x="471" y="84"/>
      <point x="467" y="128" type="curve" smooth="yes"/>
      <point x="465" y="155" type="line" smooth="yes"/>
      <point x="459" y="232"/>
      <point x="439" y="295"/>
      <point x="349" y="295" type="curve" smooth="yes"/>
      <point x="219" y="295" type="line"/>
      <point x="219" y="0" type="line"/>
    </contour>
    <contour>
      <point x="219" y="410" type="line"/>
      <point x="339" y="410" type="line" smooth="yes"/>
      <point x="421" y="410"/>
      <point x="477" y="448"/>
      <point x="477" y="507" type="curve" smooth="yes"/>
      <point x="477" y="573"/>
      <point x="435" y="608"/>
      <point x="349" y="608" type="curve" smooth="yes"/>
      <point x="219" y="608" type="line"/>
    </contour>
  </outline>
</glyph>
<glyph name="S" format="2">
	<unicode hex="0053"/>
	<advance width="682"/>
	<outline>
		<contour>
			<point x="55" y="230" type="curve"/>
			<point x="205" y="230" type="line"/>
			<point x="205" y="133"/>
			<point x="254" y="103"/>
			<point x="347" y="103" type="curve" smooth="yes"/>
			<point x="404" y="103"/>
			<point x="480" y="127"/>
			<point x="480" y="193" type="curve" smooth="yes"/>
			<point x="480" y="269"/>
			<point x="376" y="295"/>
			<point x="319" y="309" type="curve" smooth="yes"/>
			<point x="209" y="336"/>
			<point x="75" y="383"/>
			<point x="75" y="512" type="curve" smooth="yes"/>
			<point x="75" y="657"/>
			<point x="191" y="737"/>
			<point x="349" y="737" type="curve" smooth="yes"/>
			<point x="489" y="737"/>
			<point x="607" y="674"/>
			<point x="607" y="520" type="curve"/>
			<point x="457" y="520" type="line"/>
			<point x="457" y="587"/>
			<point x="408" y="628"/>
			<point x="345" y="628" type="curve" smooth="yes"/>
			<point x="261" y="628"/>
			<point x="227" y="594"/>
			<point x="227" y="542" type="curve" smooth="yes"/>
			<point x="227" y="466"/>
			<point x="313" y="440"/>
			<point x="363" y="428" type="curve" smooth="yes"/>
			<point x="479" y="399"/>
			<point x="627" y="363"/>
			<point x="627" y="214" type="curve" smooth="yes"/>
			<point x="627" y="81"/>
			<point x="510" y="-12"/>
			<point x="343" y="-12" type="curve" smooth="yes"/>
			<point x="192" y="-12"/>
			<point x="55" y="65"/>
		</contour>
	</outline>
	<anchor name="top" x="341" y="797"/>
</glyph>
<glyph name="T" format="2">
	<unicode hex="0054"/>
	<advance width="635"/>
	<outline>
		<contour>
			<point x="606" y="607" type="line"/>
			<point x="393" y="607" type="line"/>
			<point x="393" y="0" type="line"/>
			<point x="243" y="0" type="line"/>
			<point x="243" y="607" type="line"/>
			<point x="30" y="607" type="line"/>
			<point x="30" y="722" type="line"/>
			<point x="606" y="722" type="line"/>
		</contour>
	</outline>
	<anchor name="top" x="318" y="797"/>
</glyph>
<glyph name="U" format="2">
  <advance width="756"/>
  <unicode hex="0055"/>
  <anchor x="376" y="-88" name="bottom"/>
  <anchor x="360" y="797" name="top"/>
  <outline>
    <contour>
      <point x="70" y="299" type="curve" smooth="yes"/>
      <point x="70" y="722" type="line"/>
      <point x="215" y="722" type="line"/>
      <point x="215" y="299" type="line" smooth="yes"/>
      <point x="215" y="167"/>
      <point x="272" y="101"/>
      <point x="376" y="101" type="curve" smooth="yes"/>
      <point x="483" y="101"/>
      <point x="537" y="167"/>
      <point x="537" y="299" type="curve" smooth="yes"/>
      <point x="537" y="722" type="line"/>
      <point x="682" y="722" type="line"/>
      <point x="682" y="299" type="line" smooth="yes"/>
      <point x="682" y="106"/>
      <point x="569" y="-13"/>
      <point x="371" y="-13" type="curve" smooth="yes"/>
      <point x="171" y="-13"/>
      <point x="70" y="113"/>
    </contour>
  </outline>
</glyph>
<glyph name="V" format="2">
  <advance width="737"/>
  <unicode hex="0056"/>
  <anchor x="363" y="797" name="top"/>
  <outline>
    <contour>
      <point x="728" y="722" type="line"/>
      <point x="453" y="0" type="line"/>
      <point x="275" y="0" type="line"/>
      <point x="10" y="722" type="line"/>
      <point x="170" y="722" type="line"/>
      <point x="369" y="167" type="line"/>
      <point x="568" y="722" type="line"/>
    </contour>
  </outline>
</glyph>
<glyph name="W" format="2">
  <advance width="1000"/>
  <unicode hex="0057"/>
  <anchor x="500" y="797" name="top"/>
  <outline>
    <contour>
      <point x="990" y="722" type="line"/>
      <point x="810" y="0" type="line"/>
      <point x="640" y="0" type="line"/>
      <point x="500" y="541" type="line"/>
      <point x="360" y="0" type="line"/>
      <point x="190" y="0" type="line"/>
      <point x="10" y="722" type="line"/>
      <point x="170" y="722" type="line"/>
      <point x="280" y="180" type="line"/>
      <point x="421" y="722" type="line"/>
      <point x="579" y="722" type="line"/>
      <point x="720" y="180" type="line"/>
      <point x="830" y="722" type="line"/>
    </contour>
  </outline>
</glyph>
<glyph name="bracketright" format="2">
	<unicode hex="005D"/>
	<advance width="390"/>
	<outline>
		<contour>
			<point x="308" y="-198" type="line"/>
			<point x="83" y="-198" type="line"/>
			<point x="83" y="-108" type="line"/>
			<point x="188" y="-108" type="line"/>
			<point x="188" y="632" type="line"/>
			<point x="83" y="632" type="line"/>
			<point x="83" y="722" type="line"/>
			<point x="308" y="722" type="line"/>
		</contour>
	</outline>
</glyph>
<glyph name="asciicircum" format="2">
	<unicode hex="005E"/>
	<advance width="1000"/>
	<outline>
		<contour>
			<point x="761" y="10" type="line"/>
			<point x="699" y="10" type="line"/>
			<point x="500" y="546" type="line"/>
			<point x="301" y="10" type="line"/>
			<point x="239" y="10" type="line"/>
			<point x="469" y="610" type="line"/>
			<point x="531" y="610" type="line"/>
		</contour>
	</outline>
</glyph>
<glyph name="grave" format="2">
	<unicode hex="0060"/>
	<advance width="251"/>
	<outline>
		<contour>
			<point x="196" y="600" type="line"/>
			<point x="126" y="600" type="line"/>
			<point x="-25" y="780" type="line"/>
			<point x="105" y="780" type="line"/>
		</contour>
	</outline>
</glyph>
<glyph name="a" format="2">
	<unicode hex="0061"/>
	<advance width="556"/>
	<outline>
		<contour>
			<point x="44" y="139" type="curve" smooth="yes"/>
			<point x="44" y="259"/>
			<point x="131" y="308"/>
			<point x="282" y="308" type="curve" smooth="yes"/>
			<point x="310.47" y="308"/>
			<point x="326.53" y="307"/>
			<point x="355" y="305" type="curve"/>
			<point x="355" y="357" type="line" smooth="yes"/>
			<point x="355" y="410"/>
			<point x="330" y="435"/>
			<point x="277" y="435" type="curve" smooth="yes"/>
			<point x="226" y="435"/>
			<point x="199" y="411"/>
			<point x="199" y="364" type="curve"/>
			<point x="65" y="364" type="line"/>
			<point x="65" y="454"/>
			<point x="150" y="514"/>
			<point x="280" y="514" type="curve" smooth="yes"/>
			<point x="435.508" y="514"/>
			<point x="492.528" y="467.348"/>
			<point x="489" y="343" type="curve" smooth="yes"/>
			<point x="485" y="202" type="line" smooth="yes"/>
			<point x="482.448" y="112.036"/>
			<point x="495" y="43"/>
			<point x="506" y="0" type="curve"/>
			<point x="381" y="0" type="line"/>
			<point x="374" y="19"/>
			<point x="370" y="35"/>
			<point x="366" y="60" type="curve"/>
			<point x="322" y="8"/>
			<point x="278" y="-14"/>
			<point x="219" y="-14" type="curve" smooth="yes"/>
			<point x="118.173" y="-14"/>
			<point x="44" y="50.8486"/>
		</contour>
		<contour>
			<point x="182" y="147" type="curve" smooth="yes"/>
			<point x="182" y="107.871"/>
			<point x="220.155" y="76"/>
			<point x="267" y="76" type="curve" smooth="yes"/>
			<point x="322" y="76"/>
			<point x="355" y="122"/>
			<point x="355" y="197" type="curve" smooth="yes"/>
			<point x="355" y="227" type="line"/>
			<point x="337.45" y="229"/>
			<point x="327.55" y="230"/>
			<point x="310" y="230" type="curve" smooth="yes"/>
			<point x="225" y="230"/>
			<point x="182" y="215"/>
		</contour>
	</outline>
	<anchor name="bottom" x="275" y="-50"/>
	<anchor name="ogonekLC" x="411" y="10"/>
	<anchor name="top" x="282" y="600"/>
</glyph>
<glyph name="b" format="2">
	<unicode hex="0062"/>
	<advance width="608"/>
	<outline>
		<contour>
			<point x="60" y="0" type="line"/>
			<point x="60" y="722" type="line"/>
			<point x="195" y="722" type="line"/>
			<point x="195" y="455" type="line"/>
			<point x="243" y="501"/>
			<point x="276" y="514"/>
			<point x="343" y="514" type="curve" smooth="yes"/>
			<point x="479" y="514"/>
			<point x="564" y="413"/>
			<point x="564" y="252" type="curve" smooth="yes"/>
			<point x="564" y="88"/>
			<point x="475" y="-14"/>
			<point x="333" y="-14" type="curve" smooth="yes"/>
			<point x="287" y="-14"/>
			<point x="242" y="13"/>
			<point x="195" y="69" type="curve"/>
			<point x="195" y="0" type="line"/>
		</contour>
		<contour>
			<point x="192" y="246" type="curve" smooth="yes"/>
			<point x="192" y="149"/>
			<point x="246" y="75"/>
			<point x="317" y="75" type="curve" smooth="yes"/>
			<point x="385" y="75"/>
			<point x="429" y="143"/>
			<point x="429" y="243" type="curve" smooth="yes"/>
			<point x="429" y="352"/>
			<point x="376" y="429"/>
			<point x="305" y="429" type="curve" smooth="yes"/>
			<point x="236" y="429"/>
			<point x="192" y="355"/>
		</contour>
	</outline>
	<anchor name="top" x="312" y="797"/>
</glyph>
<glyph name="d" format="2">
  <advance width="606"/>
  <unicode hex="0064"/>
  <outline>
    <contour>
      <point x="179" y="245" type="curve" smooth="yes"/>
      <point x="179" y="167"/>
      <point x="208" y="76"/>
      <point x="291" y="76" type="curve" smooth="yes"/>
      <point x="374" y="76"/>
      <point x="411" y="165"/>
      <point x="411" y="253" type="curve" smooth="yes"/>
      <point x="411" y="316"/>
      <point x="392" y="428"/>
      <point x="298" y="428" type="curve" smooth="yes"/>
      <point x="207" y="428"/>
      <point x="179" y="321"/>
    </contour>
    <contour>
      <point x="44" y="252" type="curve" smooth="yes"/>
      <point x="44" y="400"/>
      <point x="118" y="514"/>
      <point x="266" y="514" type="curve" smooth="yes"/>
      <point x="343" y="514"/>
      <point x="383" y="494"/>
      <point x="411" y="455" type="curve"/>
      <point x="411" y="722" type="line"/>
      <point x="546" y="722" type="line"/>
      <point x="546" y="-1" type="line"/>
      <point x="411" y="-1" type="line"/>
      <point x="411" y="68" type="line"/>
      <point x="383" y="33"/>
      <point x="337" y="-14"/>
      <point x="274" y="-14" type="curve" smooth="yes"/>
      <point x="118" y="-14"/>
      <point x="44" y="104"/>
    </contour>
  </outline>
</glyph>
<glyph name="e" format="2">
  <advance width="550"/>
  <unicode hex="0065"/>
  <anchor x="275" y="600" name="top"/>
  <outline>
    <contour>
      <point x="44" y="241" type="curve" smooth="yes"/>
      <point x="44" y="400"/>
      <point x="121" y="514"/>
      <point x="281" y="514" type="curve" smooth="yes"/>
      <point x="440" y="514"/>
      <point x="506" y="401"/>
      <point x="506" y="261" type="curve" smooth="yes"/>
      <point x="506" y="223" type="line"/>
      <point x="184" y="223" type="line"/>
      <point x="184" y="152"/>
      <point x="192" y="72"/>
      <point x="275" y="72" type="curve" smooth="yes"/>
      <point x="331" y="72"/>
      <point x="357" y="108"/>
      <point x="363" y="156" type="curve"/>
      <point x="499" y="156" type="line"/>
      <point x="488" y="43"/>
      <point x="412" y="-14"/>
      <point x="275" y="-14" type="curve" smooth="yes"/>
      <point x="114" y="-14"/>
      <point x="44" y="89"/>
    </contour>
    <contour>
      <point x="184" y="308" type="curve"/>
      <point x="366" y="308" type="line"/>
      <point x="366" y="375"/>
      <point x="342" y="429"/>
      <point x="275" y="429" type="curve" smooth="yes"/>
      <point x="208" y="429"/>
      <point x="184" y="375"/>
    </contour>
  </outline>
</glyph>
<glyph name="j" format="2">
  <advance width="287"/>
  <unicode hex="006A"/>
  <outline>
    <contour>
      <point x="30" y="-212" type="line"/>
      <point x="30" y="-103" type="line"/>
      <point x="42" y="-103" type="line" smooth="yes"/>
      <point x="73" y="-103"/>
      <point x="82" y="-76"/>
      <point x="82" y="-50" type="curve" smooth="yes"/>
      <point x="82" y="500" type="line"/>
      <point x="217" y="500" type="line"/>
      <point x="217" y="-80" type="line" smooth="yes"/>
      <point x="217" y="-180"/>
      <point x="149" y="-212"/>
      <point x="53" y="-212" type="curve" smooth="yes"/>
    </contour>
    <contour>
      <point x="72" y="592" type="line"/>
      <point x="72" y="722" type="line"/>
      <point x="227" y="722" type="line"/>
      <point x="227" y="592" type="line"/>
    </contour>
  </outline>
</glyph>
<glyph name="l" format="2">
	<unicode hex="006C"/>
	<advance width="255"/>
	<outline>
		<contour>
			<point x="60" y="0" type="line"/>
			<point x="60" y="722" type="line"/>
			<point x="195" y="722" type="line"/>
			<point x="195" y="0" type="line"/>
		</contour>
	</outline>
	<anchor name="top" x="120" y="797"/>
</glyph>
<glyph name="m" format="2">
	<unicode hex="006D"/>
	<advance width="903"/>
	<outline>
		<contour>
			<point x="60" y="0" type="line"/>
			<point x="60" y="500" type="line"/>
			<point x="195" y="500" type="line"/>
			<point x="195" y="427" type="line"/>
			<point x="235" y="485"/>
			<point x="287" y="514"/>
			<point x="352" y="514" type="curve" smooth="yes"/>
			<point x="437" y="514"/>
			<point x="468" y="494"/>
			<point x="505" y="421" type="curve"/>
			<point x="546" y="485"/>
			<point x="583" y="514"/>
			<point x="672" y="514" type="curve" smooth="yes"/>
			<point x="786" y="514"/>
			<point x="843" y="438"/>
			<point x="843" y="329" type="curve" smooth="yes"/>
			<point x="843" y="0" type="line"/>
			<point x="708" y="0" type="line"/>
			<point x="708" y="320" type="line" smooth="yes"/>
			<point x="708" y="375"/>
			<point x="676" y="430"/>
			<point x="622" y="430" type="curve" smooth="yes"/>
			<point x="553" y="430"/>
			<point x="520" y="347"/>
			<point x="520" y="290" type="curve" smooth="yes"/>
			<point x="520" y="0" type="line"/>
			<point x="385" y="0" type="line"/>
			<point x="385" y="320" type="line" smooth="yes"/>
			<point x="385" y="376"/>
			<point x="354" y="429"/>
			<point x="300" y="429" type="curve" smooth="yes"/>
			<point x="231" y="429"/>
			<point x="195" y="347"/>
			<point x="195" y="289" type="curve" smooth="yes"/>
			<point x="195" y="0" type="line"/>
		</contour>
	</outline>
</glyph>
<glyph name="p" format="2">
  <advance width="612"/>
  <unicode hex="0070"/>
  <outline>
    <contour>
      <point x="64" y="-198" type="line"/>
      <point x="64" y="399" type="line" smooth="yes"/>
      <point x="64" y="438"/>
      <point x="62" y="462"/>
      <point x="60" y="500" type="curve"/>
      <point x="196" y="500" type="line"/>
      <point x="198" y="478"/>
      <point x="199" y="459"/>
      <point x="199" y="432" type="curve"/>
      <point x="226" y="466"/>
      <point x="274" y="514"/>
      <point x="337" y="514" type="curve" smooth="yes"/>
      <point x="492" y="514"/>
      <point x="568" y="396"/>
      <point x="568" y="257" type="curve" smooth="yes"/>
      <point x="568" y="102"/>
      <point x="494" y="-14"/>
      <point x="347" y="-14" type="curve" smooth="yes"/>
      <point x="285" y="-14"/>
      <point x="244" y="0"/>
      <point x="199" y="45" type="curve"/>
      <point x="199" y="-198" type="line"/>
    </contour>
    <contour>
      <point x="200" y="252" type="curve" smooth="yes"/>
      <point x="200" y="178"/>
      <point x="217" y="70"/>
      <point x="312" y="70" type="curve" smooth="yes"/>
      <point x="409" y="70"/>
      <point x="435" y="179"/>
      <point x="435" y="257" type="curve" smooth="yes"/>
      <point x="435" y="333"/>
      <point x="406" y="424"/>
      <point x="315" y="424" type="curve" smooth="yes"/>
      <point x="238" y="424"/>
      <point x="200" y="332"/>
    </contour>
  </outline>
</glyph>
<glyph name="q" format="2">
	<unicode hex="0071"/>
	<advance width="607"/>
	<outline>
		<contour>
			<point x="44" y="250.48" type="curve" smooth="yes"/>
			<point x="44" y="404"/>
			<point x="121" y="514"/>
			<point x="274" y="514" type="curve" smooth="yes"/>
			<point x="340" y="514"/>
			<point x="389" y="472"/>
			<point x="412" y="431" type="curve"/>
			<point x="412" y="500" type="line"/>
			<point x="547" y="500" type="line"/>
			<point x="547" y="-200" type="line"/>
			<point x="412" y="-200" type="line"/>
			<point x="412" y="44" type="line"/>
			<point x="365" y="6"/>
			<point x="315" y="-14"/>
			<point x="256.729" y="-14" type="curve" smooth="yes"/>
			<point x="117" y="-14"/>
			<point x="44" y="101"/>
		</contour>
		<contour>
			<point x="180" y="252.965" type="curve" smooth="yes"/>
			<point x="180" y="175"/>
			<point x="208" y="70"/>
			<point x="300.483" y="70" type="curve" smooth="yes"/>
			<point x="396" y="70"/>
			<point x="417" y="182"/>
			<point x="417" y="244.602" type="curve" smooth="yes"/>
			<point x="417" y="331"/>
			<point x="377" y="423"/>
			<point x="293.078" y="423" type="curve" smooth="yes"/>
			<point x="211" y="423"/>
			<point x="180" y="335"/>
		</contour>
	</outline>
	<anchor name="top" x="273" y="600"/>
</glyph>
<glyph name="t" format="2">
	<unicode hex="0074"/>
	<advance width="418"/>
	<outline>
		<contour>
			<point x="265" y="159" type="line" smooth="yes"/>
			<point x="265" y="109"/>
			<point x="295" y="81"/>
			<point x="343" y="81" type="curve" smooth="yes"/>
			<point x="361" y="81"/>
			<point x="378" y="84"/>
			<point x="393" y="90" type="curve"/>
			<point x="393" y="5" type="line"/>
			<point x="362" y="-6"/>
			<point x="328" y="-12"/>
			<point x="291" y="-12" type="curve" smooth="yes"/>
			<point x="205" y="-12"/>
			<point x="130" y="38"/>
			<point x="130" y="121" type="curve" smooth="yes"/>
			<point x="130" y="415" type="line"/>
			<point x="30" y="415" type="line"/>
			<point x="30" y="500" type="line"/>
			<point x="130" y="500" type="line"/>
			<point x="130" y="577" type="line"/>
			<point x="265" y="647" type="line"/>
			<point x="265" y="500" type="line"/>
			<point x="384" y="500" type="line"/>
			<point x="384" y="415" type="line"/>
			<point x="265" y="415" type="line"/>
		</contour>
	</outline>
	<anchor name="top" x="212" y="722"/>
</glyph>
<glyph name="u" format="2">
	<unicode hex="0075"/>
	<advance width="585"/>
	<outline>
		<contour>
			<point x="60" y="159" type="curve" smooth="yes"/>
			<point x="60" y="500" type="line"/>
			<point x="195" y="500" type="line"/>
			<point x="195" y="199" type="line" smooth="yes"/>
			<point x="195" y="111"/>
			<point x="225" y="67"/>
			<point x="284" y="67" type="curve" smooth="yes"/>
			<point x="352" y="67"/>
			<point x="390" y="124"/>
			<point x="390" y="221" type="curve" smooth="yes"/>
			<point x="390" y="501" type="line"/>
			<point x="525" y="501" type="line"/>
			<point x="525" y="0" type="line"/>
			<point x="390" y="0" type="line"/>
			<point x="390" y="68" type="line"/>
			<point x="350.231" y="10.8321"/>
			<point x="304.144" y="-14"/>
			<point x="227" y="-14" type="curve" smooth="yes"/>
			<point x="121" y="-14"/>
			<point x="60" y="49"/>
		</contour>
	</outline>
	<anchor name="top" x="294" y="600"/>
</glyph>
<glyph name="v" format="2">
	<unicode hex="0076"/>
	<advance width="564"/>
	<outline>
		<contour>
			<point x="544" y="500" type="line"/>
			<point x="357" y="0" type="line"/>
			<point x="207" y="0" type="line"/>
			<point x="20" y="500" type="line"/>
			<point x="164" y="500" type="line"/>
			<point x="282" y="151" type="line"/>
			<point x="400" y="500" type="line"/>
		</contour>
	</outline>
</glyph>
<glyph name="w" format="2">
	<unicode hex="0077"/>
	<advance width="876"/>
	<outline>
		<contour>
			<point x="856" y="500" type="line"/>
			<point x="703" y="0" type="line"/>
			<point x="543" y="0" type="line"/>
			<point x="438" y="350" type="line"/>
			<point x="333" y="0" type="line"/>
			<point x="173" y="0" type="line"/>
			<point x="20" y="500" type="line"/>
			<point x="159" y="500" type="line"/>
			<point x="255" y="170" type="line"/>
			<point x="360" y="500" type="line"/>
			<point x="516" y="500" type="line"/>
			<point x="621" y="170" type="line"/>
			<point x="717" y="500" type="line"/>
		</contour>
	</outline>
</glyph>
<glyph name="x" format="2">
  <advance width="567"/>
  <unicode hex="0078"/>
  <outline>
    <contour>
      <point x="547" y="0" type="line"/>
      <point x="387" y="0" type="line"/>
      <point x="275" y="179" type="line"/>
      <point x="170" y="0" type="line"/>
      <point x="20" y="0" type="line"/>
      <point x="198" y="268" type="line"/>
      <point x="37" y="500" type="line"/>
      <point x="197" y="500" type="line"/>
      <point x="295" y="353" type="line"/>
      <point x="380" y="500" type="line"/>
      <point x="530" y="500" type="line"/>
      <point x="372" y="268" type="line"/>
    </contour>
  </outline>
</glyph>
<glyph name="y" format="2">
	<unicode hex="0079"/>
	<advance width="563"/>
	<outline>
		<contour>
			<point x="220" y="0" type="line"/>
			<point x="20" y="500" type="line"/>
			<point x="173" y="500" type="line"/>
			<point x="290" y="180" type="line"/>
			<point x="400" y="500" type="line"/>
			<point x="543" y="500" type="line"/>
			<point x="293" y="-200" type="line"/>
			<point x="145" y="-200" type="line"/>
		</contour>
	</outline>
</glyph>
<glyph name="z" format="2">
	<unicode hex="007A"/>
	<advance width="506"/>
	<outline>
		<contour>
			<point x="462" y="0" type="line"/>
			<point x="44" y="0" type="line"/>
			<point x="44" y="105" type="line"/>
			<point x="309" y="415" type="line"/>
			<point x="49" y="415" type="line"/>
			<point x="49" y="500" type="line"/>
			<point x="449" y="500" type="line"/>
			<point x="449" y="395" type="line"/>
			<point x="184" y="85" type="line"/>
			<point x="462" y="85" type="line"/>
		</contour>
	</outline>
</glyph>
<glyph name="braceleft" format="2">
	<unicode hex="007B"/>
	<advance width="512"/>
	<outline>
		<contour>
			<point x="329" y="86" type="curve" smooth="yes"/>
			<point x="329" y="17"/>
			<point x="326" y="-58"/>
			<point x="326" y="-75" type="curve" smooth="yes"/>
			<point x="326" y="-145"/>
			<point x="377" y="-146"/>
			<point x="442" y="-146" type="curve"/>
			<point x="442" y="-162.507"/>
			<point x="442" y="-218.745"/>
			<point x="442" y="-240" type="curve"/>
			<point x="296" y="-240"/>
			<point x="196" y="-225"/>
			<point x="196" y="-65" type="curve" smooth="yes"/>
			<point x="196" y="-29"/>
			<point x="201" y="30"/>
			<point x="201" y="56" type="curve" smooth="yes"/>
			<point x="201" y="145"/>
			<point x="140" y="207"/>
			<point x="70" y="216" type="curve"/>
			<point x="70" y="232.597"/>
			<point x="70" y="278.821"/>
			<point x="70" y="300" type="curve"/>
			<point x="162" y="314"/>
			<point x="201" y="353"/>
			<point x="201" y="458" type="curve" smooth="yes"/>
			<point x="201" y="495"/>
			<point x="196" y="525"/>
			<point x="196" y="575" type="curve" smooth="yes"/>
			<point x="196" y="742"/>
			<point x="295" y="759"/>
			<point x="441" y="759" type="curve"/>
			<point x="441" y="739.046"/>
			<point x="441" y="682.177"/>
			<point x="441" y="665" type="curve"/>
			<point x="376" y="665"/>
			<point x="323" y="664"/>
			<point x="323" y="576" type="curve" smooth="yes"/>
			<point x="323" y="549"/>
			<point x="328" y="523"/>
			<point x="328" y="484" type="curve" smooth="yes"/>
			<point x="328" y="365"/>
			<point x="323" y="315"/>
			<point x="207" y="260" type="curve"/>
			<point x="313" y="208"/>
			<point x="329" y="126"/>
		</contour>
	</outline>
</glyph>
<glyph name="asciitilde" format="2">
  <advance width="533"/>
  <unicode hex="007E"/>
  <outline>
    <contour>
      <point x="531" y="315" type="line"/>
      <point x="510" y="244"/>
      <point x="449" y="198"/>
      <point x="375" y="198" type="curve" smooth="yes"/>
      <point x="336" y="198"/>
      <point x="294" y="205"/>
      <point x="249" y="218" type="curve" smooth="yes"/>
      <point x="204" y="231"/>
      <point x="176" y="238"/>
      <point x="160" y="238" type="curve" smooth="yes"/>
      <point x="117" y="238"/>
      <point x="98" y="226"/>
      <point x="89" y="195" type="curve"/>
      <point x="-2" y="195" type="line"/>
      <point x="20" y="269"/>
      <point x="78" y="313"/>
      <point x="153" y="313" type="curve" smooth="yes"/>
      <point x="193" y="313"/>
      <point x="236" y="306"/>
      <point x="282" y="293" type="curve" smooth="yes"/>
      <point x="328" y="280"/>
      <point x="357" y="273"/>
      <point x="373" y="273" type="curve" smooth="yes"/>
      <point x="412" y="273"/>
      <point x="432" y="285"/>
      <point x="443" y="315" type="curve"/>
    </contour>
  </outline>
</glyph>
<glyph name="exclamdown" format="2">
	<unicode hex="00A1"/>
	<advance width="399"/>
	<outline>
		<contour>
			<point x="260" y="385" type="line"/>
			<point x="130" y="385" type="line"/>
			<point x="130" y="500" type="line"/>
			<point x="260" y="500" type="line"/>
		</contour>
		<contour>
			<point x="270" y="-198" type="line"/>
			<point x="120" y="-198" type="line"/>
			<point x="146" y="309" type="line"/>
			<point x="244" y="309" type="line"/>
		</contour>
	</outline>
</glyph>
<glyph name="yen" format="2">
	<unicode hex="00A5"/>
	<advance width="573"/>
	<outline>
		<contour>
			<point x="572" y="722" type="line"/>
			<point x="475" y="523" type="line"/>
			<point x="561" y="523" type="line"/>
			<point x="561" y="457" type="line"/>
			<point x="444" y="457" type="line"/>
			<point x="386" y="338" type="line"/>
			<point x="561" y="338" type="line"/>
			<point x="561" y="272" type="line"/>
			<point x="354" y="272" type="line"/>
			<point x="354" y="0" type="line"/>
			<point x="220" y="0" type="line"/>
			<point x="220" y="272" type="line"/>
			<point x="13" y="272" type="line"/>
			<point x="13" y="338" type="line"/>
			<point x="188" y="338" type="line"/>
			<point x="130" y="457" type="line"/>
			<point x="13" y="457" type="line"/>
			<point x="13" y="523" type="line"/>
			<point x="98" y="523" type="line"/>
			<point x="2" y="722" type="line"/>
			<point x="151" y="722" type="line"/>
			<point x="287" y="419" type="line"/>
			<point x="423" y="722" type="line"/>
		</contour>
	</outline>
</glyph>
<glyph name="section" format="2">
	<unicode hex="00A7"/>
	<advance width="467"/>
	<outline>
		<contour>
			<point x="34" y="257" type="curve" smooth="yes"/>
			<point x="34" y="193"/>
			<point x="85.2919" y="150.562"/>
			<point x="130" y="127" type="curve" smooth="yes"/>
			<point x="278" y="49" type="line" smooth="yes"/>
			<point x="299.415" y="37.7135"/>
			<point x="306" y="17"/>
			<point x="306" y="-1" type="curve" smooth="yes"/>
			<point x="306" y="-49.0172"/>
			<point x="256.826" y="-81"/>
			<point x="183" y="-81" type="curve" smooth="yes"/>
			<point x="148.985" y="-81"/>
			<point x="104" y="-63"/>
			<point x="49" y="-30" type="curve"/>
			<point x="49" y="-137" type="line"/>
			<point x="85.6152" y="-162.053"/>
			<point x="168.361" y="-177"/>
			<point x="213" y="-177" type="curve" smooth="yes"/>
			<point x="343.082" y="-177"/>
			<point x="431" y="-97.9543"/>
			<point x="431" y="19" type="curve" smooth="yes"/>
			<point x="431" y="69"/>
			<point x="397.916" y="123.256"/>
			<point x="323" y="159" type="curve" smooth="yes"/>
			<point x="170" y="232" type="line" smooth="yes"/>
			<point x="149.419" y="241.82"/>
			<point x="143" y="261"/>
			<point x="143" y="278" type="curve" smooth="yes"/>
			<point x="143" y="345.526"/>
			<point x="208.333" y="378.814"/>
			<point x="258.882" y="403.472" type="curve"/>
			<point x="176.993" y="452.196" type="line"/>
			<point x="97.8218" y="423.883"/>
			<point x="34" y="375.115"/>
		</contour>
		<contour>
			<point x="48" y="567" type="curve" smooth="yes"/>
			<point x="48" y="505.187"/>
			<point x="81.5273" y="450.75"/>
			<point x="153.841" y="413.313" type="curve" smooth="yes"/>
			<point x="280" y="348" type="line" smooth="yes"/>
			<point x="302.745" y="336.225"/>
			<point x="310" y="313"/>
			<point x="310" y="292" type="curve" smooth="yes"/>
			<point x="310" y="230.851"/>
			<point x="225.435" y="178.077"/>
			<point x="190.337" y="175.095" type="curve"/>
			<point x="293.197" y="120.491" type="line"/>
			<point x="367.636" y="158.356"/>
			<point x="430" y="214.715"/>
			<point x="430" y="310" type="curve" smooth="yes"/>
			<point x="430" y="373"/>
			<point x="381.885" y="416.808"/>
			<point x="340" y="442" type="curve" smooth="yes"/>
			<point x="202" y="525" type="line" smooth="yes"/>
			<point x="181.362" y="537.413"/>
			<point x="175" y="558"/>
			<point x="175" y="576" type="curve" smooth="yes"/>
			<point x="175" y="611"/>
			<point x="218" y="642"/>
			<point x="254" y="642" type="curve" smooth="yes"/>
			<point x="295" y="642"/>
			<point x="344" y="626"/>
			<point x="400" y="593" type="curve"/>
			<point x="400" y="692" type="line"/>
			<point x="356.5" y="722"/>
			<point x="317.365" y="734"/>
			<point x="245" y="734" type="curve" smooth="yes"/>
			<point x="132.591" y="734"/>
			<point x="48" y="663.115"/>
		</contour>
	</outline>
</glyph>
<glyph name="ordfeminine" format="2">
	<unicode hex="00AA"/>
	<advance width="388"/>
	<outline>
		<component base="a" xScale="0.7014" yScale="0.7014" xOffset="0.4368" yOffset="352.438"/>
		<contour>
			<point x="367" y="232" type="line"/>
			<point x="18" y="232" type="line"/>
			<point x="18" y="279" type="line"/>
			<point x="367" y="279" type="line"/>
		</contour>
	</outline>
</glyph>
<glyph name="guillemotleft" format="2">
	<unicode hex="00AB"/>
	<advance width="603"/>
	<outline>
		<contour>
			<point x="551" y="57" type="line"/>
			<point x="421" y="57" type="line"/>
			<point x="311" y="252" type="line"/>
			<point x="421" y="447" type="line"/>
			<point x="551" y="447" type="line"/>
			<point x="461" y="252" type="line"/>
		</contour>
		<contour>
			<point x="293" y="57" type="line"/>
			<point x="163" y="57" type="line"/>
			<point x="53" y="252" type="line"/>
			<point x="163" y="447" type="line"/>
			<point x="293" y="447" type="line"/>
			<point x="203" y="252" type="line"/>
		</contour>
	</outline>
</glyph>
<glyph name="uni00AD" format="2">
	<unicode hex="00AD"/>
	<advance width="370"/>
	<outline>
		<contour>
			<point x="330" y="249" type="line"/>
			<point x="40" y="249" type="line"/>
			<point x="40" y="349" type="line"/>
			<point x="330" y="349" type="line"/>
		</contour>
	</outline>
</glyph>
<glyph name="registered" format="2">
	<unicode hex="00AE"/>
	<advance width="867"/>
	<outline>
		<contour>
			<point x="59" y="360" type="curve" smooth="yes"/>
			<point x="59" y="569.624"/>
			<point x="223.026" y="735"/>
			<point x="433" y="735" type="curve" smooth="yes"/>
			<point x="642.624" y="735"/>
			<point x="808" y="570.974"/>
			<point x="808" y="361" type="curve" smooth="yes"/>
			<point x="808" y="150.967"/>
			<point x="642.599" y="-16"/>
			<point x="433" y="-16" type="curve" smooth="yes"/>
			<point x="223.294" y="-16"/>
			<point x="59" y="149.929"/>
		</contour>
		<contour>
			<point x="125" y="358" type="curve" smooth="yes"/>
			<point x="125" y="188.249"/>
			<point x="263.249" y="50"/>
			<point x="433" y="50" type="curve" smooth="yes"/>
			<point x="602.907" y="50"/>
			<point x="739" y="186.293"/>
			<point x="739" y="356" type="curve" smooth="yes"/>
			<point x="739" y="525.78"/>
			<point x="601.658" y="666"/>
			<point x="432" y="666" type="curve" smooth="yes"/>
			<point x="261.702" y="666"/>
			<point x="125" y="528.016"/>
		</contour>
		<contour>
			<point x="275" y="145" type="line"/>
			<point x="275" y="578" type="line"/>
			<point x="443" y="578" type="line" smooth="yes"/>
			<point x="554.167" y="578"/>
			<point x="610" y="538.883"/>
			<point x="610" y="461" type="curve" smooth="yes"/>
			<point x="610" y="404.96"/>
			<point x="568.546" y="359"/>
			<point x="518" y="359" type="curve"/>
			<point x="541" y="359"/>
			<point x="570" y="343"/>
			<point x="580" y="326" type="curve" smooth="yes"/>
			<point x="596.16" y="298.297"/>
			<point x="602.405" y="192.941"/>
			<point x="619" y="145" type="curve"/>
			<point x="529" y="145" type="line"/>
			<point x="524" y="157"/>
			<point x="518" y="190"/>
			<point x="512" y="244" type="curve" smooth="yes"/>
			<point x="506" y="290"/>
			<point x="493" y="321"/>
			<point x="443" y="321" type="curve" smooth="yes"/>
			<point x="365" y="321" type="line"/>
			<point x="365" y="145" type="line"/>
		</contour>
		<contour>
			<point x="365" y="390" type="line"/>
			<point x="437" y="390" type="line" smooth="yes"/>
			<point x="473" y="390"/>
			<point x="520" y="414"/>
			<point x="520" y="448" type="curve" smooth="yes"/>
			<point x="520" y="487"/>
			<point x="483" y="509"/>
			<point x="443" y="509" type="curve" smooth="yes"/>
			<point x="365" y="509" type="line"/>
		</contour>
	</outline>
</glyph>
<glyph name="macron" format="2">
	<unicode hex="00AF"/>
	<advance width="380"/>
	<outline>
		<contour>
			<point x="380" y="609" type="line"/>
			<point x="0" y="609" type="line"/>
			<point x="0" y="709" type="line"/>
			<point x="380" y="709" type="line"/>
		</contour>
	</outline>
	<anchor name="_bottom" x="190" y="784"/>
	<anchor name="_left" x="430" y="659"/>
	<anchor name="_top" x="200" y="600"/>
</glyph>
<glyph name="threesuperior" format="2">
  <advance width="366"/>
  <unicode hex="00B3"/>
  <outline>
    <contour>
      <point x="31" y="457" type="curve"/>
      <point x="131" y="457" type="line"/>
      <point x="131" y="418.561"/>
      <point x="146.363" y="400"/>
      <point x="178.179" y="400" type="curve" smooth="yes"/>
      <point x="210.971" y="400"/>
      <point x="229" y="419.854"/>
      <point x="229" y="455.964" type="curve" smooth="yes"/>
      <point x="229" y="501.514"/>
      <point x="200.997" y="520"/>
      <point x="132" y="520" type="curve"/>
      <point x="132" y="579" type="line"/>
      <point x="195.369" y="579"/>
      <point x="220" y="594.733"/>
      <point x="220" y="635.209" type="curve" smooth="yes"/>
      <point x="220" y="666.383"/>
      <point x="204.729" y="683"/>
      <point x="176.078" y="683" type="curve" smooth="yes"/>
      <point x="146.513" y="683"/>
      <point x="131" y="665.449"/>
      <point x="131" y="632" type="curve"/>
      <point x="32" y="632" type="line"/>
      <point x="32" y="698.419"/>
      <point x="89.3848" y="742"/>
      <point x="176.843" y="742" type="curve" smooth="yes"/>
      <point x="264.879" y="742"/>
      <point x="324" y="697.003"/>
      <point x="324" y="630" type="curve" smooth="yes"/>
      <point x="324" y="586.094"/>
      <point x="298.378" y="559.855"/>
      <point x="241" y="545" type="curve"/>
      <point x="241" y="549" type="line"/>
      <point x="299.862" y="539.825"/>
      <point x="332" y="509.849"/>
      <point x="332" y="459.775" type="curve" smooth="yes"/>
      <point x="332" y="390.945"/>
      <point x="271.276" y="342"/>
      <point x="173.002" y="342" type="curve" smooth="yes"/>
      <point x="83.5461" y="342"/>
      <point x="31" y="382.556"/>
    </contour>
  </outline>
</glyph>
<glyph name="paragraph" format="2">
	<unicode hex="00B6"/>
	<advance width="559"/>
	<outline>
		<contour>
			<point x="515" y="672" type="line"/>
			<point x="454" y="672" type="line"/>
			<point x="454" y="-160" type="line"/>
			<point x="384" y="-160" type="line"/>
			<point x="384" y="672" type="line"/>
			<point x="304" y="672" type="line"/>
			<point x="304" y="-160" type="line"/>
			<point x="234" y="-160" type="line"/>
			<point x="234" y="352" type="line"/>
			<point x="133.392" y="352"/>
			<point x="45" y="415.49"/>
			<point x="45" y="519.457" type="curve" smooth="yes"/>
			<point x="45" y="627.53"/>
			<point x="140.512" y="722"/>
			<point x="245" y="722" type="curve" smooth="yes"/>
			<point x="515" y="722" type="line"/>
		</contour>
	</outline>
</glyph>
<glyph name="periodcentered" format="2">
	<unicode hex="00B7"/>
	<advance width="283"/>
	<outline>
		<contour>
			<point x="205" y="276" type="line"/>
			<point x="79" y="276" type="line"/>
			<point x="79" y="408" type="line"/>
			<point x="205" y="408" type="line"/>
		</contour>
	</outline>
</glyph>
<glyph name="onesuperior" format="2">
	<unicode hex="00B9"/>
	<advance width="290"/>
	<outline>
		<contour>
			<point x="234" y="350" type="line"/>
			<point x="134" y="350" type="line"/>
			<point x="134" y="660" type="line"/>
			<point x="103.85" y="638.464"/>
			<point x="76.7325" y="623.459"/>
			<point x="41" y="610" type="curve"/>
			<point x="41" y="676" type="line"/>
			<point x="73" y="687"/>
			<point x="113.442" y="708.497"/>
			<point x="134" y="727" type="curve" smooth="yes"/>
			<point x="144" y="736" type="line"/>
			<point x="234" y="736" type="line"/>
		</contour>
	</outline>
</glyph>
<glyph name="guillemotright" format="2">
	<unicode hex="00BB"/>
	<advance width="603"/>
	<outline>
		<contour>
			<point x="551" y="252" type="line"/>
			<point x="441" y="57" type="line"/>
			<point x="311" y="57" type="line"/>
			<point x="401" y="252" type="line"/>
			<point x="311" y="447" type="line"/>
			<point x="441" y="447" type="line"/>
		</contour>
		<contour>
			<point x="293" y="252" type="line"/>
			<point x="183" y="57" type="line"/>
			<point x="53" y="57" type="line"/>
			<point x="143" y="252" type="line"/>
			<point x="53" y="447" type="line"/>
			<point x="183" y="447" type="line"/>
		</contour>
	</outline>
</glyph>
<glyph name="onequarter" format="2">
	<unicode hex="00BC"/>
	<advance width="799"/>
	<outline>
		<component base="onesuperior"/>
		<contour>
			<point x="652.316" y="736" type="line"/>
			<point x="227" y="-14" type="line"/>
			<point x="128" y="-14" type="line"/>
			<point x="554" y="736" type="line"/>
		</contour>
		<contour>
			<point x="762" y="71" type="line"/>
			<point x="718" y="71" type="line"/>
			<point x="718" y="-14" type="line"/>
			<point x="622" y="-14" type="line"/>
			<point x="622" y="71" type="line"/>
			<point x="444" y="71" type="line"/>
			<point x="444" y="140" type="line"/>
			<point x="603" y="372" type="line"/>
			<point x="718" y="372" type="line"/>
			<point x="718" y="132" type="line"/>
			<point x="762" y="132" type="line"/>
		</contour>
		<contour>
			<point x="622" y="132" type="line"/>
			<point x="622" y="281" type="line"/>
			<point x="529" y="132" type="line"/>
		</contour>
	</outline>
</glyph>
<glyph name="threequarters" format="2">
	<unicode hex="00BE"/>
	<advance width="799"/>
	<outline>
		<contour>
			<point x="241" y="545" type="curve"/>
			<point x="241" y="549" type="line"/>
			<point x="301.06" y="539.893"/>
			<point x="332" y="507.933"/>
			<point x="332" y="458.799" type="curve" smooth="yes"/>
			<point x="332" y="388.274"/>
			<point x="268.255" y="340"/>
			<point x="174.106" y="340" type="curve" smooth="yes"/>
			<point x="102.31" y="340"/>
			<point x="31" y="368.073"/>
			<point x="31" y="457" type="curve"/>
			<point x="131" y="457" type="line"/>
			<point x="131" y="419"/>
			<point x="146" y="400"/>
			<point x="178.174" y="400" type="curve" smooth="yes"/>
			<point x="212" y="400"/>
			<point x="229" y="421"/>
			<point x="229" y="454.306" type="curve" smooth="yes"/>
			<point x="229" y="500.608"/>
			<point x="196.146" y="520"/>
			<point x="132" y="520" type="curve"/>
			<point x="132" y="579" type="line"/>
			<point x="177" y="579"/>
			<point x="220" y="583"/>
			<point x="220" y="635.209" type="curve" smooth="yes"/>
			<point x="220" y="665"/>
			<point x="206" y="683"/>
			<point x="176.078" y="683" type="curve" smooth="yes"/>
			<point x="147" y="683"/>
			<point x="131" y="666"/>
			<point x="131" y="632" type="curve"/>
			<point x="32" y="632" type="line"/>
			<point x="32" y="708"/>
			<point x="102" y="742"/>
			<point x="176.843" y="742" type="curve" smooth="yes"/>
			<point x="257" y="742"/>
			<point x="324" y="703"/>
			<point x="324" y="636.964" type="curve" smooth="yes"/>
			<point x="324" y="588.622"/>
			<point x="288.094" y="551.852"/>
		</contour>
		<contour>
			<point x="689" y="736" type="line"/>
			<point x="263" y="-14" type="line"/>
			<point x="164" y="-14" type="line"/>
			<point x="590" y="736" type="line"/>
		</contour>
		<contour>
			<point x="767" y="71" type="line"/>
			<point x="723" y="71" type="line"/>
			<point x="723" y="-14" type="line"/>
			<point x="627" y="-14" type="line"/>
			<point x="627" y="71" type="line"/>
			<point x="449" y="71" type="line"/>
			<point x="449" y="141.887" type="line"/>
			<point x="608" y="372" type="line"/>
			<point x="723" y="372" type="line"/>
			<point x="723" y="133.962" type="line"/>
			<point x="767" y="133.962" type="line"/>
		</contour>
		<contour>
			<point x="623" y="130" type="line"/>
			<point x="623" y="277.594" type="line"/>
			<point x="529" y="130" type="line"/>
		</contour>
	</outline>
</glyph>
<glyph name="AE" format="2">
	<unicode hex="00C6"/>
	<advance width="1001"/>
	<outline>
		<contour>
			<point x="10" y="0" type="line"/>
			<point x="401" y="722" type="line"/>
			<point x="937" y="722" type="line"/>
			<point x="937" y="618" type="line"/>
			<point x="620" y="618" type="line"/>
			<point x="620" y="430" type="line"/>
			<point x="917" y="430" type="line"/>
			<point x="917" y="318" type="line"/>
			<point x="620" y="318" type="line"/>
			<point x="620" y="110" type="line"/>
			<point x="947" y="110" type="line"/>
			<point x="947" y="0" type="line"/>
			<point x="470" y="0" type="line"/>
			<point x="470" y="173" type="line"/>
			<point x="244" y="173" type="line"/>
			<point x="153" y="0" type="line"/>
		</contour>
		<contour>
			<point x="305" y="284" type="line"/>
			<point x="470" y="284" type="line"/>
			<point x="470" y="596" type="line"/>
		</contour>
	</outline>
</glyph>
<glyph name="Eth" format="2">
	<unicode hex="00D0"/>
	<advance width="728"/>
	<outline>
		<component base="D"/>
		<contour>
			<point x="0" y="405" type="line"/>
			<point x="0" y="315" type="line"/>
			<point x="360" y="315" type="line"/>
			<point x="360" y="405" type="line"/>
		</contour>
	</outline>
</glyph>
<glyph name="multiply" format="2">
  <advance width="691"/>
  <unicode hex="00D7"/>
  <outline>
    <contour>
      <point x="50" y="110" type="line"/>
      <point x="130.32" y="29.9477" type="line"/>
      <point x="631.32" y="530.948" type="line"/>
      <point x="551" y="611" type="line"/>
    </contour>
    <contour>
      <point x="571" y="20" type="line"/>
      <point x="660.07" y="109.93" type="line"/>
      <point x="159.07" y="610.93" type="line"/>
      <point x="70" y="521" type="line"/>
    </contour>
  </outline>
</glyph>
<glyph name="Oslash" format="2">
  <advance width="793"/>
  <unicode hex="00D8"/>
  <outline>
    <component base="O"/>
    <contour>
      <point x="166.664" y="-50.8937" type="line"/>
      <point x="99.9202" y="-3.61717" type="line"/>
      <point x="627" y="775" type="line"/>
      <point x="690.191" y="731" type="line"/>
    </contour>
  </outline>
</glyph>
<glyph name="ae" format="2">
	<unicode hex="00E6"/>
	<advance width="890"/>
	<outline>
		<contour>
			<point x="63" y="362" type="curve"/>
			<point x="63" y="463"/>
			<point x="175" y="515"/>
			<point x="286" y="515" type="curve" smooth="yes"/>
			<point x="357" y="515"/>
			<point x="412" y="487"/>
			<point x="452" y="431" type="curve"/>
			<point x="489.098" y="489.399"/>
			<point x="537.383" y="514"/>
			<point x="617" y="514" type="curve" smooth="yes"/>
			<point x="761.524" y="514"/>
			<point x="843.79" y="429.842"/>
			<point x="843.79" y="262.93" type="curve" smooth="yes"/>
			<point x="843.79" y="257.348"/>
			<point x="843.79" y="243.823"/>
			<point x="843.79" y="240" type="curve"/>
			<point x="512" y="240" type="line"/>
			<point x="512" y="180.753"/>
			<point x="535.47" y="71"/>
			<point x="613" y="71" type="curve" smooth="yes"/>
			<point x="664" y="71"/>
			<point x="694" y="106"/>
			<point x="700" y="155" type="curve"/>
			<point x="724.456" y="155"/>
			<point x="807.266" y="155"/>
			<point x="836" y="155" type="curve"/>
			<point x="825" y="42"/>
			<point x="750" y="-14"/>
			<point x="611" y="-14" type="curve" smooth="yes"/>
			<point x="534.106" y="-14"/>
			<point x="469.761" y="32.8724"/>
			<point x="442" y="97" type="curve"/>
			<point x="396" y="40"/>
			<point x="320" y="-13"/>
			<point x="226" y="-13" type="curve" smooth="yes"/>
			<point x="136.884" y="-13"/>
			<point x="46" y="41.9944"/>
			<point x="46" y="140" type="curve" smooth="yes"/>
			<point x="46" y="271.632"/>
			<point x="158.861" y="318"/>
			<point x="271" y="318" type="curve" smooth="yes"/>
			<point x="290.39" y="318"/>
			<point x="342.61" y="317"/>
			<point x="372" y="314" type="curve"/>
			<point x="372" y="385"/>
			<point x="356" y="434"/>
			<point x="284" y="434" type="curve" smooth="yes"/>
			<point x="239.612" y="434"/>
			<point x="199" y="410.011"/>
			<point x="199" y="362" type="curve"/>
			<point x="190.317" y="362"/>
			<point x="98.4995" y="362"/>
		</contour>
		<contour>
			<point x="180" y="149" type="curve" smooth="yes"/>
			<point x="180" y="110"/>
			<point x="224" y="77"/>
			<point x="265" y="77" type="curve" smooth="yes"/>
			<point x="356.996" y="77"/>
			<point x="369.965" y="156.051"/>
			<point x="369.965" y="232.671" type="curve"/>
			<point x="369.965" y="234.504"/>
			<point x="369.965" y="240.367"/>
			<point x="369.965" y="242" type="curve"/>
			<point x="334.965" y="243"/>
			<point x="310" y="243"/>
			<point x="295" y="242" type="curve" smooth="yes"/>
			<point x="218" y="237"/>
			<point x="180" y="206"/>
		</contour>
		<contour>
			<point x="704" y="315" type="line"/>
			<point x="704" y="380"/>
			<point x="674" y="429"/>
			<point x="608" y="429" type="curve" smooth="yes"/>
			<point x="541" y="429"/>
			<point x="512" y="381"/>
			<point x="512" y="315" type="curve"/>
		</contour>
	</outline>
</glyph>
<glyph name="eth" format="2">
	<unicode hex="00F0"/>
	<advance width="604"/>
	<outline>
		<contour>
			<point x="44" y="248" type="curve" smooth="yes"/>
			<point x="44" y="83.8463"/>
			<point x="142.278" y="-17"/>
			<point x="307.534" y="-17" type="curve" smooth="yes"/>
			<point x="474.997" y="-17"/>
			<point x="558" y="84.3045"/>
			<point x="558" y="247" type="curve" smooth="yes"/>
			<point x="558" y="500"/>
			<point x="454.617" y="627"/>
			<point x="206.126" y="736" type="curve"/>
			<point x="140.658" y="688.909" type="line"/>
			<point x="226.984" y="651.037"/>
			<point x="323.841" y="574.126"/>
			<point x="363.761" y="504" type="curve"/>
			<point x="343.94" y="508.703"/>
			<point x="323.841" y="512"/>
			<point x="296.49" y="512" type="curve" smooth="yes"/>
			<point x="137" y="512"/>
			<point x="44" y="408"/>
		</contour>
		<contour>
			<point x="175" y="247" type="curve" smooth="yes"/>
			<point x="175" y="345"/>
			<point x="209.138" y="426"/>
			<point x="302.492" y="426" type="curve" smooth="yes"/>
			<point x="382.838" y="426"/>
			<point x="423" y="366"/>
			<point x="423" y="247" type="curve" smooth="yes"/>
			<point x="423" y="128"/>
			<point x="382.838" y="68"/>
			<point x="302.492" y="68" type="curve" smooth="yes"/>
			<point x="209.138" y="68"/>
			<point x="175" y="149"/>
		</contour>
		<contour>
			<point x="105" y="566" type="line"/>
			<point x="130" y="513" type="line"/>
			<point x="530.206" y="696" type="line"/>
			<point x="506.382" y="751" type="line"/>
		</contour>
	</outline>
</glyph>
<glyph name="odieresis" format="2">
	<unicode hex="00F6"/>
	<advance width="604"/>
	<outline>
		<contour>
			<point x="44" y="250" type="curve" smooth="yes"/>
			<point x="44" y="406"/>
			<point x="150" y="514"/>
			<point x="303" y="514" type="curve" smooth="yes"/>
			<point x="456" y="514"/>
			<point x="560" y="406"/>
			<point x="560" y="250" type="curve" smooth="yes"/>
			<point x="560" y="93"/>
			<point x="455" y="-14"/>
			<point x="303" y="-14" type="curve" smooth="yes"/>
			<point x="150" y="-14"/>
			<point x="44" y="94"/>
		</contour>
		<contour>
			<point x="179" y="250" type="curve" smooth="yes"/>
			<point x="179" y="135"/>
			<point x="223" y="72"/>
			<point x="302" y="72" type="curve" smooth="yes"/>
			<point x="381" y="72"/>
			<point x="425" y="135"/>
			<point x="425" y="250" type="curve" smooth="yes"/>
			<point x="425" y="365"/>
			<point x="381" y="428"/>
			<point x="302" y="428" type="curve" smooth="yes"/>
			<point x="223" y="428"/>
			<point x="179" y="365"/>
		</contour>
		<contour>
			<point x="480" y="600" type="line"/>
			<point x="370" y="600" type="line"/>
			<point x="370" y="720" type="line"/>
			<point x="480" y="720" type="line"/>
		</contour>
		<contour>
			<point x="230" y="600" type="line"/>
			<point x="120" y="600" type="line"/>
			<point x="120" y="720" type="line"/>
			<point x="230" y="720" type="line"/>
		</contour>
	</outline>
	<anchor name="top" x="300" y="600"/>
	<anchor name="top.mkmk" x="300" y="820"/>
</glyph>
<glyph name="divide" format="2">
	<unicode hex="00F7"/>
	<advance width="1000"/>
	<outline>
		<contour>
			<point x="500" y="521" type="curve" smooth="yes"/>
			<point x="532" y="521"/>
			<point x="560" y="494"/>
			<point x="560" y="461" type="curve" smooth="yes"/>
			<point x="560" y="428"/>
			<point x="533" y="401"/>
			<point x="500" y="401" type="curve" smooth="yes"/>
			<point x="467" y="401"/>
			<point x="440" y="428"/>
			<point x="440" y="461" type="curve" smooth="yes"/>
			<point x="440" y="494"/>
			<point x="468" y="521"/>
		</contour>
		<contour>
			<point x="800" y="269" type="line"/>
			<point x="200" y="269" type="line"/>
			<point x="200" y="331" type="line"/>
			<point x="800" y="331" type="line"/>
		</contour>
		<contour>
			<point x="500" y="199" type="curve" smooth="yes"/>
			<point x="533" y="199"/>
			<point x="560" y="172"/>
			<point x="560" y="139" type="curve" smooth="yes"/>
			<point x="560" y="107"/>
			<point x="532" y="80"/>
			<point x="500" y="80" type="curve" smooth="yes"/>
			<point x="468" y="80"/>
			<point x="440" y="106"/>
			<point x="440" y="139" type="curve" smooth="yes"/>
			<point x="440" y="172"/>
			<point x="467" y="199"/>
		</contour>
	</outline>
</glyph>
<glyph name="oslash" format="2">
	<unicode hex="00F8"/>
	<advance width="591"/>
	<outline>
		<component base="o"/>
		<contour>
			<point x="83" y="-83" type="line"/>
			<point x="24" y="-41" type="line"/>
			<point x="498" y="593" type="line"/>
			<point x="557" y="551" type="line"/>
		</contour>
	</outline>
</glyph>
<glyph name="dcroat" format="2">
  <advance width="561"/>
  <unicode hex="0111"/>
  <outline>
    <component base="d" xOffset="1"/>
    <contour>
      <point x="298" y="648" type="line"/>
      <point x="298" y="563" type="line"/>
      <point x="600" y="563" type="line"/>
      <point x="600" y="648" type="line"/>
    </contour>
  </outline>
</glyph>
<glyph name="Hbar" format="2">
	<unicode hex="0126"/>
	<advance width="715"/>
	<outline>
		<component base="H" xOffset="10"/>
		<contour>
			<point x="15" y="506" type="line"/>
			<point x="700" y="506" type="line"/>
			<point x="700" y="606" type="line"/>
			<point x="15" y="606" type="line"/>
		</contour>
	</outline>
</glyph>
<glyph name="kgreenlandic" format="2">
	<unicode hex="0138"/>
	<advance width="545"/>
	<outline>
		<contour>
			<point x="530" y="0" type="line"/>
			<point x="366" y="0" type="line"/>
			<point x="195" y="261" type="line"/>
			<point x="195" y="0" type="line"/>
			<point x="60" y="0" type="line"/>
			<point x="60" y="454" type="line"/>
			<point x="195" y="500" type="line"/>
			<point x="195" y="301" type="line"/>
			<point x="352" y="500" type="line"/>
			<point x="514" y="500" type="line"/>
			<point x="334" y="284" type="line"/>
		</contour>
	</outline>
</glyph>
<glyph name="ldot" format="2">
  <advance width="547"/>
  <unicode hex="0140"/>
  <outline>
    <contour>
      <point x="469" y="276" type="line"/>
      <point x="343" y="276" type="line"/>
      <point x="343" y="408" type="line"/>
      <point x="469" y="408" type="line"/>
    </contour>
    <contour>
      <point x="200" y="0" type="line"/>
      <point x="65" y="0" type="line"/>
      <point x="65" y="722" type="line"/>
      <point x="200" y="722" type="line"/>
    </contour>
  </outline>
</glyph>
<glyph name="Lslash" format="2">
  <advance width="616"/>
  <unicode hex="0141"/>
  <outline>
    <contour>
      <point x="592" y="0" type="line"/>
      <point x="116" y="0" type="line"/>
      <point x="116" y="254" type="line"/>
      <point x="20" y="159" type="line"/>
      <point x="20" y="281" type="line"/>
      <point x="116" y="376" type="line"/>
      <point x="116" y="722" type="line"/>
      <point x="266" y="722" type="line"/>
      <point x="266" y="524" type="line"/>
      <point x="378" y="636" type="line"/>
      <point x="378" y="514" type="line"/>
      <point x="266" y="402" type="line"/>
      <point x="266" y="115" type="line"/>
      <point x="592" y="115" type="line"/>
    </contour>
  </outline>
</glyph>
<glyph name="lslash" format="2">
  <advance width="358"/>
  <unicode hex="0142"/>
  <outline>
    <contour>
      <point x="339" y="465" type="line"/>
      <point x="247" y="375" type="line"/>
      <point x="247" y="0" type="line"/>
      <point x="112" y="0" type="line"/>
      <point x="112" y="283" type="line"/>
      <point x="20" y="193" type="line"/>
      <point x="20" y="312" type="line"/>
      <point x="112" y="403" type="line"/>
      <point x="112" y="722" type="line"/>
      <point x="247" y="722" type="line"/>
      <point x="247" y="496" type="line"/>
      <point x="339" y="587" type="line"/>
    </contour>
  </outline>
</glyph>
<glyph name="napostrophe" format="2">
  <advance width="736"/>
  <unicode hex="0149"/>
  <outline>
    <component base="n" xOffset="150"/>
    <contour>
      <point x="179" y="722" type="line"/>
      <point x="153" y="432" type="line"/>
      <point x="55" y="432" type="line"/>
      <point x="29" y="722" type="line"/>
    </contour>
  </outline>
</glyph>
<glyph name="Eng" format="2">
	<unicode hex="014A"/>
	<advance width="683"/>
	<outline>
		<component base="N"/>
		<contour>
			<point x="698" y="20" type="line"/>
			<point x="698" y="-72" type="line" smooth="yes"/>
			<point x="698" y="-148"/>
			<point x="629" y="-200"/>
			<point x="539.874" y="-200" type="curve" smooth="yes"/>
			<point x="486" y="-200"/>
			<point x="420" y="-181"/>
			<point x="385" y="-143" type="curve"/>
			<point x="455.039" y="-64.4064" type="line"/>
			<point x="468.351" y="-79.6553"/>
			<point x="488" y="-90"/>
			<point x="512.7" y="-90" type="curve" smooth="yes"/>
			<point x="546.208" y="-90"/>
			<point x="569" y="-70.9615"/>
			<point x="569" y="-52" type="curve" smooth="yes"/>
			<point x="569" y="20" type="line"/>
		</contour>
	</outline>
</glyph>
<glyph name="OE" format="2">
	<unicode hex="0152"/>
	<advance width="1023"/>
	<outline>
		<contour>
			<point x="56" y="362" type="curve" smooth="yes"/>
			<point x="56" y="579.28"/>
			<point x="169.41" y="736"/>
			<point x="398" y="736" type="curve" smooth="yes"/>
			<point x="437" y="736"/>
			<point x="473" y="731"/>
			<point x="506" y="722" type="curve"/>
			<point x="959" y="722" type="line"/>
			<point x="959" y="607" type="line"/>
			<point x="626" y="607" type="line"/>
			<point x="626" y="429" type="line"/>
			<point x="939" y="429" type="line"/>
			<point x="939" y="319" type="line"/>
			<point x="626" y="319" type="line"/>
			<point x="626" y="115" type="line"/>
			<point x="969" y="115" type="line"/>
			<point x="969" y="0" type="line"/>
			<point x="507" y="0" type="line"/>
			<point x="472" y="-9"/>
			<point x="436" y="-12"/>
			<point x="398" y="-12" type="curve" smooth="yes"/>
			<point x="169.41" y="-12"/>
			<point x="56" y="144.72"/>
		</contour>
		<contour>
			<point x="208" y="363" type="curve" smooth="yes"/>
			<point x="208" y="189"/>
			<point x="270.996" y="103"/>
			<point x="398" y="103" type="curve" smooth="yes"/>
			<point x="429.016" y="103"/>
			<point x="457" y="108"/>
			<point x="483" y="121" type="curve"/>
			<point x="483" y="603" type="line"/>
			<point x="457" y="617"/>
			<point x="429.016" y="623"/>
			<point x="398" y="623" type="curve" smooth="yes"/>
			<point x="246.014" y="623"/>
			<point x="208" y="491.298"/>
		</contour>
	</outline>
</glyph>
<glyph name="oe" format="2">
	<unicode hex="0153"/>
	<advance width="906"/>
	<outline>
		<contour>
			<point x="44" y="252.308" type="curve" smooth="yes"/>
			<point x="44" y="404.641"/>
			<point x="150.32" y="515"/>
			<point x="300.117" y="515" type="curve" smooth="yes"/>
			<point x="367" y="515"/>
			<point x="418.305" y="493"/>
			<point x="464.831" y="449" type="curve"/>
			<point x="506.186" y="492"/>
			<point x="565.999" y="514.332"/>
			<point x="639.919" y="514.332" type="curve" smooth="yes"/>
			<point x="782.175" y="514.332"/>
			<point x="871.432" y="429.93"/>
			<point x="863.484" y="273.037" type="curve" smooth="yes"/>
			<point x="861" y="224" type="line"/>
			<point x="533" y="224" type="line"/>
			<point x="533" y="123"/>
			<point x="567.995" y="71"/>
			<point x="634.174" y="71" type="curve" smooth="yes"/>
			<point x="689.998" y="71"/>
			<point x="719" y="108"/>
			<point x="725" y="157" type="curve"/>
			<point x="861" y="157" type="line"/>
			<point x="849" y="44"/>
			<point x="773" y="-12"/>
			<point x="638.416" y="-12" type="curve" smooth="yes"/>
			<point x="556" y="-12"/>
			<point x="496.881" y="9"/>
			<point x="458.627" y="50" type="curve"/>
			<point x="414.17" y="9"/>
			<point x="365" y="-12"/>
			<point x="299.603" y="-12" type="curve" smooth="yes"/>
			<point x="146.967" y="-12"/>
			<point x="44" y="102.395"/>
		</contour>
		<contour>
			<point x="179" y="252" type="curve" smooth="yes"/>
			<point x="179" y="154"/>
			<point x="211" y="74"/>
			<point x="299.23" y="74" type="curve" smooth="yes"/>
			<point x="375" y="74"/>
			<point x="412" y="133"/>
			<point x="412" y="252" type="curve" smooth="yes"/>
			<point x="412" y="371"/>
			<point x="375" y="430"/>
			<point x="299.23" y="430" type="curve" smooth="yes"/>
			<point x="211" y="430"/>
			<point x="179" y="350"/>
		</contour>
		<contour>
			<point x="531" y="310" type="curve"/>
			<point x="724" y="310" type="line"/>
			<point x="724" y="391"/>
			<point x="693" y="431"/>
			<point x="633.408" y="431" type="curve" smooth="yes"/>
			<point x="561.904" y="431"/>
			<point x="531" y="373.409"/>
		</contour>
	</outline>
</glyph>
<glyph name="tbar" format="2">
	<unicode hex="0167"/>
	<advance width="370"/>
	<outline>
		<component base="t"/>
		<contour>
			<point x="78" y="323" type="line"/>
			<point x="78" y="238" type="line"/>
			<point x="317" y="238" type="line"/>
			<point x="317" y="323" type="line"/>
		</contour>
	</outline>
</glyph>
<glyph name="florin" format="2">
	<unicode hex="0192"/>
	<advance width="527"/>
	<outline>
		<contour>
			<point x="106" y="8.25" type="curve" smooth="yes"/>
			<point x="218" y="409" type="line"/>
			<point x="118" y="409" type="line"/>
			<point x="143" y="507" type="line"/>
			<point x="244" y="507" type="line"/>
			<point x="280.652" y="635.161"/>
			<point x="309.214" y="732"/>
			<point x="461.126" y="732" type="curve" smooth="yes"/>
			<point x="492" y="732"/>
			<point x="521" y="728"/>
			<point x="552" y="717" type="curve"/>
			<point x="529" y="630" type="line"/>
			<point x="508" y="643"/>
			<point x="486" y="648"/>
			<point x="469.282" y="648" type="curve" smooth="yes"/>
			<point x="397.754" y="648"/>
			<point x="376.067" y="556.467"/>
			<point x="364" y="506" type="curve"/>
			<point x="484" y="506" type="line"/>
			<point x="459" y="408" type="line"/>
			<point x="339" y="408" type="line"/>
			<point x="224" y="-0.766917" type="line" smooth="yes"/>
			<point x="186.655" y="-134.986"/>
			<point x="139.172" y="-211"/>
			<point x="-10" y="-211" type="curve" smooth="yes"/>
			<point x="-31" y="-211"/>
			<point x="-55" y="-204.08"/>
			<point x="-81" y="-191.23" type="curve"/>
			<point x="-49" y="-95.9455" type="line"/>
			<point x="-32" y="-114.981"/>
			<point x="-16" y="-125"/>
			<point x="5.99964" y="-125" type="curve" smooth="yes"/>
			<point x="66.6267" y="-125"/>
			<point x="90.4204" y="-46.3809"/>
		</contour>
	</outline>
</glyph>
<glyph name="uni019E" format="2">
  <advance width="608"/>
  <unicode hex="019E"/>
  <outline>
    <contour>
      <point x="60" y="0" type="line"/>
      <point x="60" y="500" type="line"/>
      <point x="195" y="500" type="line"/>
      <point x="195" y="433" type="line"/>
      <point x="234" y="488"/>
      <point x="285" y="514"/>
      <point x="355" y="514" type="curve" smooth="yes"/>
      <point x="464" y="514"/>
      <point x="526" y="451"/>
      <point x="526" y="339" type="curve" smooth="yes"/>
      <point x="526" y="-201" type="line"/>
      <point x="391" y="-201" type="line"/>
      <point x="391" y="299" type="line" smooth="yes"/>
      <point x="391" y="388"/>
      <point x="361" y="432"/>
      <point x="301" y="432" type="curve" smooth="yes"/>
      <point x="233" y="432"/>
      <point x="195" y="376"/>
      <point x="195" y="279" type="curve" smooth="yes"/>
      <point x="195" y="0" type="line"/>
    </contour>
  </outline>
</glyph>
<glyph name="uni01C1" format="2">
  <advance width="688"/>
  <unicode hex="01C1"/>
  <outline>
    <contour>
      <point x="552" y="-258" type="line"/>
      <point x="481" y="-258" type="line"/>
      <point x="481" y="796" type="line"/>
      <point x="552" y="796" type="line"/>
    </contour>
    <contour>
      <point x="208" y="-258" type="line"/>
      <point x="137" y="-258" type="line"/>
      <point x="137" y="796" type="line"/>
      <point x="208" y="796" type="line"/>
    </contour>
  </outline>
</glyph>
<glyph name="uni01C2" format="2">
	<unicode hex="01C2"/>
	<advance width="405"/>
	<outline>
		<contour>
			<point x="469" y="222" type="line"/>
			<point x="312" y="222" type="line"/>
			<point x="312" y="0" type="line"/>
			<point x="177" y="0" type="line"/>
			<point x="177" y="222" type="line"/>
			<point x="19" y="222" type="line"/>
			<point x="19" y="323" type="line"/>
			<point x="177" y="323" type="line"/>
			<point x="177" y="413" type="line"/>
			<point x="19" y="413" type="line"/>
			<point x="19" y="514" type="line"/>
			<point x="177" y="514" type="line"/>
			<point x="177" y="736" type="line"/>
			<point x="312" y="736" type="line"/>
			<point x="312" y="514" type="line"/>
			<point x="469" y="514" type="line"/>
			<point x="469" y="413" type="line"/>
			<point x="312" y="413" type="line"/>
			<point x="312" y="323" type="line"/>
			<point x="469" y="323" type="line"/>
		</contour>
	</outline>
</glyph>
<glyph name="uni01C3" format="2">
  <advance width="369"/>
  <unicode hex="01C3"/>
  <outline>
    <contour>
      <point x="241" y="0" type="line"/>
      <point x="121" y="0" type="line"/>
      <point x="121" y="95" type="line"/>
      <point x="241" y="95" type="line"/>
    </contour>
    <contour>
      <point x="268" y="722" type="line"/>
      <point x="238" y="169" type="line"/>
      <point x="115" y="169" type="line"/>
      <point x="85" y="722" type="line"/>
    </contour>
  </outline>
</glyph>
<glyph name="uni01D5" format="2">
  <advance width="756"/>
  <unicode hex="01D5"/>
  <anchor x="376" y="-88" name="bottom"/>
  <anchor x="360" y="797" name="top"/>
  <anchor x="360" y="1017" name="top.mkmk"/>
  <outline>
    <contour>
      <point x="70" y="299" type="curve" smooth="yes"/>
      <point x="70" y="722" type="line"/>
      <point x="215" y="722" type="line"/>
      <point x="215" y="299" type="line" smooth="yes"/>
      <point x="215" y="167"/>
      <point x="272" y="101"/>
      <point x="376" y="101" type="curve" smooth="yes"/>
      <point x="483" y="101"/>
      <point x="537" y="167"/>
      <point x="537" y="299" type="curve" smooth="yes"/>
      <point x="537" y="722" type="line"/>
      <point x="682" y="722" type="line"/>
      <point x="682" y="299" type="line" smooth="yes"/>
      <point x="682" y="106"/>
      <point x="569" y="-13"/>
      <point x="371" y="-13" type="curve" smooth="yes"/>
      <point x="171" y="-13"/>
      <point x="70" y="113"/>
    </contour>
    <contour>
      <point x="540" y="797" type="line"/>
      <point x="430" y="797" type="line"/>
      <point x="430" y="917" type="line"/>
      <point x="540" y="917" type="line"/>
    </contour>
    <contour>
      <point x="290" y="797" type="line"/>
      <point x="180" y="797" type="line"/>
      <point x="180" y="917" type="line"/>
      <point x="290" y="917" type="line"/>
    </contour>
    <contour>
      <point x="550" y="981" type="line"/>
      <point x="170" y="981" type="line"/>
      <point x="170" y="1081" type="line"/>
      <point x="550" y="1081" type="line"/>
    </contour>
  </outline>
</glyph>
<glyph name="uni01D6" format="2">
  <advance width="585"/>
  <unicode hex="01D6"/>
  <anchor x="294" y="600" name="top"/>
  <anchor x="294" y="820" name="top.mkmk"/>
  <outline>
    <contour>
      <point x="60" y="159" type="curve" smooth="yes"/>
      <point x="60" y="500" type="line"/>
      <point x="195" y="500" type="line"/>
      <point x="195" y="199" type="line" smooth="yes"/>
      <point x="195" y="111"/>
      <point x="225" y="67"/>
      <point x="284" y="67" type="curve" smooth="yes"/>
      <point x="352" y="67"/>
      <point x="390" y="124"/>
      <point x="390" y="221" type="curve" smooth="yes"/>
      <point x="390" y="501" type="line"/>
      <point x="525" y="501" type="line"/>
      <point x="525" y="0" type="line"/>
      <point x="390" y="0" type="line"/>
      <point x="390" y="68" type="line"/>
      <point x="350.231" y="10.8321"/>
      <point x="304.144" y="-14"/>
      <point x="227" y="-14" type="curve" smooth="yes"/>
      <point x="121" y="-14"/>
      <point x="60" y="49"/>
    </contour>
    <contour>
      <point x="474" y="600" type="line"/>
      <point x="364" y="600" type="line"/>
      <point x="364" y="720" type="line"/>
      <point x="474" y="720" type="line"/>
    </contour>
    <contour>
      <point x="224" y="600" type="line"/>
      <point x="114" y="600" type="line"/>
      <point x="114" y="720" type="line"/>
      <point x="224" y="720" type="line"/>
    </contour>
    <contour>
      <point x="484" y="804" type="line"/>
      <point x="104" y="804" type="line"/>
      <point x="104" y="904" type="line"/>
      <point x="484" y="904" type="line"/>
    </contour>
  </outline>
</glyph>
<glyph name="uni01DD" format="2">
	<unicode hex="01DD"/>
	<advance width="554"/>
	<outline>
		<contour>
			<point x="496" y="259" type="curve" smooth="yes"/>
			<point x="496" y="100"/>
			<point x="419" y="-14"/>
			<point x="259" y="-14" type="curve" smooth="yes"/>
			<point x="100" y="-14"/>
			<point x="34" y="99"/>
			<point x="34" y="239" type="curve" smooth="yes"/>
			<point x="34" y="277" type="line"/>
			<point x="356" y="277" type="line"/>
			<point x="356" y="348"/>
			<point x="348" y="428"/>
			<point x="265" y="428" type="curve" smooth="yes"/>
			<point x="209" y="428"/>
			<point x="183" y="392"/>
			<point x="177" y="344" type="curve"/>
			<point x="41" y="344" type="line"/>
			<point x="52" y="457"/>
			<point x="128" y="514"/>
			<point x="265" y="514" type="curve" smooth="yes"/>
			<point x="426" y="514"/>
			<point x="496" y="411"/>
		</contour>
		<contour>
			<point x="356" y="192" type="curve"/>
			<point x="174" y="192" type="line"/>
			<point x="174" y="125"/>
			<point x="198" y="71"/>
			<point x="265" y="71" type="curve" smooth="yes"/>
			<point x="332" y="71"/>
			<point x="356" y="125"/>
		</contour>
	</outline>
</glyph>
<glyph name="uni01DE" format="2">
  <advance width="709"/>
  <unicode hex="01DE"/>
  <anchor x="355" y="-75" name="bottom"/>
  <anchor x="585" y="10" name="ogonekUC"/>
  <anchor x="355" y="797" name="top"/>
  <anchor x="355" y="1017" name="top.mkmk"/>
  <outline>
    <contour>
      <point x="252" y="269" type="line"/>
      <point x="453" y="269" type="line"/>
      <point x="355" y="561" type="line"/>
    </contour>
    <contour>
      <point x="10" y="0" type="line"/>
      <point x="281" y="720" type="line"/>
      <point x="430" y="720" type="line"/>
      <point x="700" y="0" type="line"/>
      <point x="555" y="0" type="line"/>
      <point x="495" y="154" type="line"/>
      <point x="210" y="154" type="line"/>
      <point x="155" y="0" type="line"/>
    </contour>
    <contour>
      <point x="535" y="797" type="line"/>
      <point x="425" y="797" type="line"/>
      <point x="425" y="917" type="line"/>
      <point x="535" y="917" type="line"/>
    </contour>
    <contour>
      <point x="285" y="797" type="line"/>
      <point x="175" y="797" type="line"/>
      <point x="175" y="917" type="line"/>
      <point x="285" y="917" type="line"/>
    </contour>
    <contour>
      <point x="545" y="991" type="line"/>
      <point x="165" y="991" type="line"/>
      <point x="165" y="1091" type="line"/>
      <point x="545" y="1091" type="line"/>
    </contour>
  </outline>
</glyph>
<glyph name="uni01EF" format="2">
	<unicode hex="01EF"/>
	<advance width="511"/>
	<outline>
		<contour>
			<point x="160" y="753" type="line"/>
			<point x="70" y="573" type="line"/>
			<point x="-70" y="573" type="line"/>
			<point x="-160" y="753" type="line"/>
			<point x="-90" y="753" type="line"/>
			<point x="0" y="643" type="line"/>
			<point x="90" y="753" type="line"/>
		</contour>
	</outline>
</glyph>
<glyph name="uni01F2" format="2">
	<unicode hex="01F2"/>
	<advance width="1235"/>
	<outline>
		<contour>
			<point x="1191" y="0" type="line"/>
			<point x="773" y="0" type="line"/>
			<point x="773" y="105" type="line"/>
			<point x="1038" y="415" type="line"/>
			<point x="778" y="415" type="line"/>
			<point x="778" y="500" type="line"/>
			<point x="1178" y="500" type="line"/>
			<point x="1178" y="395" type="line"/>
			<point x="913" y="85" type="line"/>
			<point x="1191" y="85" type="line"/>
		</contour>
		<contour>
			<point x="674" y="361" type="curve"/>
			<point x="674" y="360" type="line"/>
			<point x="674" y="174"/>
			<point x="580" y="64"/>
			<point x="439" y="20" type="curve" smooth="yes"/>
			<point x="393" y="6"/>
			<point x="343" y="-1"/>
			<point x="289" y="-1" type="curve" smooth="yes"/>
			<point x="70" y="-1" type="line"/>
			<point x="70" y="721" type="line"/>
			<point x="289" y="721" type="line" smooth="yes"/>
			<point x="404" y="721"/>
			<point x="494" y="689"/>
			<point x="560" y="636" type="curve" smooth="yes"/>
			<point x="629" y="581"/>
			<point x="674" y="485"/>
		</contour>
		<contour>
			<point x="525" y="359" type="curve" smooth="yes"/>
			<point x="525" y="523"/>
			<point x="446" y="605"/>
			<point x="289" y="605" type="curve" smooth="yes"/>
			<point x="220" y="605" type="line"/>
			<point x="220" y="113" type="line"/>
			<point x="289" y="113" type="line" smooth="yes"/>
			<point x="446" y="113"/>
			<point x="525" y="195"/>
		</contour>
	</outline>
</glyph>
<glyph name="uni022A" format="2">
  <advance width="793"/>
  <unicode hex="022A"/>
  <anchor x="392" y="797" name="top"/>
  <anchor x="392" y="1017" name="top.mkmk"/>
  <outline>
    <contour>
      <point x="56" y="360" type="curve" smooth="yes"/>
      <point x="56" y="577"/>
      <point x="169" y="734"/>
      <point x="398" y="734" type="curve" smooth="yes"/>
      <point x="627" y="734"/>
      <point x="739" y="576"/>
      <point x="739" y="360" type="curve" smooth="yes"/>
      <point x="739" y="144"/>
      <point x="627" y="-14"/>
      <point x="398" y="-14" type="curve" smooth="yes"/>
      <point x="169" y="-14"/>
      <point x="56" y="143"/>
    </contour>
    <contour>
      <point x="207" y="356" type="curve" smooth="yes"/>
      <point x="207" y="186"/>
      <point x="270" y="100"/>
      <point x="395" y="100" type="curve" smooth="yes"/>
      <point x="541" y="100"/>
      <point x="588" y="216"/>
      <point x="588" y="359" type="curve" smooth="yes"/>
      <point x="588" y="488"/>
      <point x="550" y="620"/>
      <point x="398" y="620" type="curve" smooth="yes"/>
      <point x="246" y="620"/>
      <point x="207" y="488"/>
    </contour>
    <contour>
      <point x="572" y="797" type="line"/>
      <point x="462" y="797" type="line"/>
      <point x="462" y="917" type="line"/>
      <point x="572" y="917" type="line"/>
    </contour>
    <contour>
      <point x="322" y="797" type="line"/>
      <point x="212" y="797" type="line"/>
      <point x="212" y="917" type="line"/>
      <point x="322" y="917" type="line"/>
    </contour>
    <contour>
      <point x="582" y="971" type="line"/>
      <point x="202" y="971" type="line"/>
      <point x="202" y="1071" type="line"/>
      <point x="582" y="1071" type="line"/>
    </contour>
  </outline>
</glyph>
<glyph name="uni022C" format="2">
	<unicode hex="022C"/>
	<advance width="793"/>
	<outline>
		<contour>
			<point x="56" y="360" type="curve" smooth="yes"/>
			<point x="56" y="577"/>
			<point x="169" y="734"/>
			<point x="398" y="734" type="curve" smooth="yes"/>
			<point x="627" y="734"/>
			<point x="739" y="576"/>
			<point x="739" y="360" type="curve" smooth="yes"/>
			<point x="739" y="144"/>
			<point x="627" y="-14"/>
			<point x="398" y="-14" type="curve" smooth="yes"/>
			<point x="169" y="-14"/>
			<point x="56" y="143"/>
		</contour>
		<contour>
			<point x="207" y="356" type="curve" smooth="yes"/>
			<point x="207" y="186"/>
			<point x="270" y="100"/>
			<point x="395" y="100" type="curve" smooth="yes"/>
			<point x="541" y="100"/>
			<point x="588" y="216"/>
			<point x="588" y="359" type="curve" smooth="yes"/>
			<point x="588" y="488"/>
			<point x="550" y="620"/>
			<point x="398" y="620" type="curve" smooth="yes"/>
			<point x="246" y="620"/>
			<point x="207" y="488"/>
		</contour>
		<contour>
			<point x="232" y="815" type="line"/>
			<point x="238" y="871"/>
			<point x="270" y="922"/>
			<point x="324.814" y="922" type="curve" smooth="yes"/>
			<point x="350.828" y="922"/>
			<point x="377.065" y="911.449"/>
			<point x="400.519" y="899.85" type="curve" smooth="yes"/>
			<point x="421.213" y="889.616"/>
			<point x="440.481" y="882"/>
			<point x="457.231" y="882" type="curve" smooth="yes"/>
			<point x="477" y="882"/>
			<point x="494" y="894"/>
			<point x="500" y="918" type="curve"/>
			<point x="551" y="918" type="line"/>
			<point x="545" y="858"/>
			<point x="511" y="808"/>
			<point x="458.208" y="808" type="curve" smooth="yes"/>
			<point x="433.498" y="808"/>
			<point x="409.128" y="817.954"/>
			<point x="385.967" y="829.397" type="curve" smooth="yes"/>
			<point x="365.218" y="839.649"/>
			<point x="344.775" y="848"/>
			<point x="326.342" y="848" type="curve" smooth="yes"/>
			<point x="308" y="848"/>
			<point x="291" y="839"/>
			<point x="284" y="815" type="curve"/>
		</contour>
		<contour>
			<point x="582" y="971" type="line"/>
			<point x="202" y="971" type="line"/>
			<point x="202" y="1071" type="line"/>
			<point x="582" y="1071" type="line"/>
		</contour>
	</outline>
	<anchor name="top" x="392" y="797"/>
</glyph>
<glyph name="uni022D" format="2">
  <advance width="604"/>
  <unicode hex="022D"/>
  <anchor x="300" y="600" name="top"/>
  <outline>
    <contour>
      <point x="44" y="250" type="curve" smooth="yes"/>
      <point x="44" y="406"/>
      <point x="150" y="514"/>
      <point x="303" y="514" type="curve" smooth="yes"/>
      <point x="456" y="514"/>
      <point x="560" y="406"/>
      <point x="560" y="250" type="curve" smooth="yes"/>
      <point x="560" y="93"/>
      <point x="455" y="-14"/>
      <point x="303" y="-14" type="curve" smooth="yes"/>
      <point x="150" y="-14"/>
      <point x="44" y="94"/>
    </contour>
    <contour>
      <point x="179" y="250" type="curve" smooth="yes"/>
      <point x="179" y="135"/>
      <point x="223" y="72"/>
      <point x="302" y="72" type="curve" smooth="yes"/>
      <point x="381" y="72"/>
      <point x="425" y="135"/>
      <point x="425" y="250" type="curve" smooth="yes"/>
      <point x="425" y="365"/>
      <point x="381" y="428"/>
      <point x="302" y="428" type="curve" smooth="yes"/>
      <point x="223" y="428"/>
      <point x="179" y="365"/>
    </contour>
    <contour>
      <point x="140" y="618" type="line"/>
      <point x="146" y="674"/>
      <point x="178" y="725"/>
      <point x="232.814" y="725" type="curve" smooth="yes"/>
      <point x="258.828" y="725"/>
      <point x="285.065" y="714.449"/>
      <point x="308.519" y="702.85" type="curve" smooth="yes"/>
      <point x="329.213" y="692.616"/>
      <point x="348.481" y="685"/>
      <point x="365.231" y="685" type="curve" smooth="yes"/>
      <point x="385" y="685"/>
      <point x="402" y="697"/>
      <point x="408" y="721" type="curve"/>
      <point x="459" y="721" type="line"/>
      <point x="453" y="661"/>
      <point x="419" y="611"/>
      <point x="366.208" y="611" type="curve" smooth="yes"/>
      <point x="341.498" y="611"/>
      <point x="317.128" y="620.954"/>
      <point x="293.967" y="632.397" type="curve" smooth="yes"/>
      <point x="273.218" y="642.649"/>
      <point x="252.775" y="651"/>
      <point x="234.342" y="651" type="curve" smooth="yes"/>
      <point x="216" y="651"/>
      <point x="199" y="642"/>
      <point x="192" y="618" type="curve"/>
    </contour>
    <contour>
      <point x="490" y="784" type="line"/>
      <point x="110" y="784" type="line"/>
      <point x="110" y="884" type="line"/>
      <point x="490" y="884" type="line"/>
    </contour>
  </outline>
</glyph>
<glyph name="j.dotless" format="2">
  <advance width="351"/>
  <unicode hex="0237"/>
  <outline>
    <contour>
      <point x="100" y="-212" type="line"/>
      <point x="100" y="-103" type="line"/>
      <point x="112" y="-103" type="line" smooth="yes"/>
      <point x="143" y="-103"/>
      <point x="152" y="-76"/>
      <point x="152" y="-50" type="curve" smooth="yes"/>
      <point x="152" y="500" type="line"/>
      <point x="287" y="500" type="line"/>
      <point x="287" y="-80" type="line" smooth="yes"/>
      <point x="287" y="-180"/>
      <point x="219" y="-212"/>
      <point x="123" y="-212" type="curve" smooth="yes"/>
    </contour>
  </outline>
</glyph>
<glyph name="uni0251" format="2">
	<unicode hex="0251"/>
	<advance width="586"/>
	<outline>
		<contour>
			<point x="309" y="72" type="curve" smooth="yes"/>
			<point x="384.986" y="72"/>
			<point x="419" y="151.852"/>
			<point x="419" y="240.174" type="curve" smooth="yes"/>
			<point x="419" y="334.216"/>
			<point x="376.002" y="426"/>
			<point x="294" y="426" type="curve" smooth="yes"/>
			<point x="233.931" y="426"/>
			<point x="190" y="346.775"/>
			<point x="190" y="257.968" type="curve" smooth="yes"/>
			<point x="190" y="150.98"/>
			<point x="227.209" y="72"/>
		</contour>
		<contour>
			<point x="558" y="0" type="line"/>
			<point x="423" y="0" type="line"/>
			<point x="423" y="75" type="line"/>
			<point x="390.426" y="22.8466"/>
			<point x="336.531" y="-12"/>
			<point x="273.474" y="-12" type="curve" smooth="yes"/>
			<point x="129.787" y="-12"/>
			<point x="55" y="101.732"/>
			<point x="55" y="247" type="curve" smooth="yes"/>
			<point x="55" y="418.394"/>
			<point x="121.953" y="512"/>
			<point x="281.231" y="512" type="curve" smooth="yes"/>
			<point x="337.683" y="512"/>
			<point x="384.551" y="488.839"/>
			<point x="423" y="437" type="curve"/>
			<point x="423" y="500" type="line"/>
			<point x="558" y="500" type="line"/>
		</contour>
	</outline>
</glyph>
<glyph name="uni0257" format="2">
  <advance width="591"/>
  <unicode hex="0257"/>
  <outline>
    <contour>
      <point x="179" y="245" type="curve" smooth="yes"/>
      <point x="179" y="167"/>
      <point x="208" y="76"/>
      <point x="291" y="76" type="curve" smooth="yes"/>
      <point x="374" y="76"/>
      <point x="411" y="165"/>
      <point x="411" y="253" type="curve" smooth="yes"/>
      <point x="411" y="316"/>
      <point x="392" y="428"/>
      <point x="298" y="428" type="curve" smooth="yes"/>
      <point x="207" y="428"/>
      <point x="179" y="321"/>
    </contour>
    <contour>
      <point x="44" y="252" type="curve" smooth="yes"/>
      <point x="44" y="400"/>
      <point x="118" y="514"/>
      <point x="266" y="514" type="curve" smooth="yes"/>
      <point x="343" y="514"/>
      <point x="383" y="494"/>
      <point x="411" y="455" type="curve"/>
      <point x="411" y="500" type="line"/>
      <point x="546" y="500" type="line"/>
      <point x="546" y="-1" type="line"/>
      <point x="411" y="-1" type="line"/>
      <point x="411" y="68" type="line"/>
      <point x="383" y="33"/>
      <point x="337" y="-14"/>
      <point x="274" y="-14" type="curve" smooth="yes"/>
      <point x="118" y="-14"/>
      <point x="44" y="104"/>
    </contour>
    <contour>
      <point x="411" y="380" type="line"/>
      <point x="411" y="545" type="line" smooth="yes"/>
      <point x="411" y="653.789"/>
      <point x="492.653" y="732"/>
      <point x="606" y="732" type="curve" smooth="yes"/>
      <point x="705.139" y="732"/>
      <point x="749.049" y="710.478"/>
      <point x="792" y="673" type="curve"/>
      <point x="721.867" y="601.748" type="line"/>
      <point x="701.799" y="618.108"/>
      <point x="669" y="628"/>
      <point x="636.044" y="628" type="curve" smooth="yes"/>
      <point x="568.695" y="628"/>
      <point x="546" y="591.108"/>
      <point x="546" y="505.724" type="curve" smooth="yes"/>
      <point x="546" y="380" type="line"/>
    </contour>
  </outline>
</glyph>
<glyph name="uni025F" format="2">
	<unicode hex="025F"/>
	<advance width="383"/>
	<outline>
		<contour>
			<point x="-34.6502" y="-158.324" type="curve"/>
			<point x="48.4744" y="-71.8531" type="line"/>
			<point x="60.6891" y="-88.402"/>
			<point x="82.8715" y="-104.332"/>
			<point x="115.101" y="-104.332" type="curve" smooth="yes"/>
			<point x="138.067" y="-104.332"/>
			<point x="152" y="-90.0619"/>
			<point x="152" y="-63" type="curve" smooth="yes"/>
			<point x="152" y="500" type="line"/>
			<point x="287" y="500" type="line"/>
			<point x="287" y="-80" type="line" smooth="yes"/>
			<point x="287" y="-163.373"/>
			<point x="227.377" y="-219.898"/>
			<point x="137.856" y="-219.923" type="curve" smooth="yes"/>
			<point x="66.0389" y="-219.944"/>
			<point x="11.214" y="-198.42"/>
		</contour>
		<contour>
			<point x="53" y="202" type="line"/>
			<point x="53" y="297" type="line"/>
			<point x="373" y="297" type="line"/>
			<point x="373" y="202" type="line"/>
		</contour>
	</outline>
</glyph>
<glyph name="uni0260" format="2">
	<unicode hex="0260"/>
	<advance width="621"/>
	<outline>
		<component base="g"/>
		<contour>
			<point x="411" y="400" type="line"/>
			<point x="411" y="500" type="line" smooth="yes"/>
			<point x="411" y="591.449"/>
			<point x="466.398" y="648"/>
			<point x="558.06" y="648" type="curve" smooth="yes"/>
			<point x="585.004" y="648"/>
			<point x="622" y="643.114"/>
			<point x="637" y="633.341" type="curve"/>
			<point x="637" y="538.271" type="line"/>
			<point x="622" y="547.771"/>
			<point x="605.998" y="552.235"/>
			<point x="590.826" y="552.009" type="curve" smooth="yes"/>
			<point x="562.645" y="551.59"/>
			<point x="546" y="535.124"/>
			<point x="546" y="500" type="curve" smooth="yes"/>
			<point x="546" y="400" type="line"/>
		</contour>
	</outline>
</glyph>
<glyph name="uni0262" format="2">
	<unicode hex="0262"/>
	<advance width="564"/>
	<outline>
		<contour>
			<point x="44" y="240.827" type="curve" smooth="yes"/>
			<point x="44" y="416.982"/>
			<point x="142.903" y="514"/>
			<point x="312.387" y="514" type="curve" smooth="yes"/>
			<point x="444.76" y="514"/>
			<point x="518.674" y="453.204"/>
			<point x="518.674" y="344.324" type="curve"/>
			<point x="384.362" y="344.324" type="line"/>
			<point x="384.362" y="390.614"/>
			<point x="369.796" y="423.034"/>
			<point x="304.571" y="423.034" type="curve" smooth="yes"/>
			<point x="232.217" y="423.034"/>
			<point x="178.608" y="376.247"/>
			<point x="178.608" y="247.165" type="curve" smooth="yes"/>
			<point x="178.608" y="116.545"/>
			<point x="223.046" y="76.9274"/>
			<point x="330.692" y="76.9274" type="curve" smooth="yes"/>
			<point x="356.202" y="76.9274"/>
			<point x="383.263" y="80.721"/>
			<point x="406.026" y="87.4882" type="curve"/>
			<point x="406.026" y="182.392" type="line"/>
			<point x="314.499" y="182.392" type="line"/>
			<point x="314.499" y="266.174" type="line"/>
			<point x="511.633" y="266.174" type="line"/>
			<point x="511.633" y="17.6438" type="line"/>
			<point x="435.885" y="-3.99867"/>
			<point x="375.869" y="-14.0385"/>
			<point x="322.244" y="-14.0385" type="curve" smooth="yes"/>
			<point x="137.994" y="-14.0385"/>
			<point x="44" y="73.6186"/>
		</contour>
	</outline>
</glyph>
<glyph name="uni0263" format="2">
	<unicode hex="0263"/>
	<advance width="530"/>
	<outline>
		<contour>
			<point x="261" y="10" type="curve"/>
			<point x="241.657" y="-23.0551"/>
			<point x="240" y="-48"/>
			<point x="240" y="-62" type="curve" smooth="yes"/>
			<point x="240" y="-82"/>
			<point x="241.657" y="-102"/>
			<point x="264" y="-102" type="curve" smooth="yes"/>
			<point x="286.343" y="-102"/>
			<point x="288" y="-82"/>
			<point x="288" y="-62.3385" type="curve" smooth="yes"/>
			<point x="288" y="-48"/>
			<point x="281.558" y="-18.5845"/>
		</contour>
		<contour>
			<point x="545" y="500" type="line"/>
			<point x="332.96" y="128.821" type="line"/>
			<point x="366.898" y="62.4888"/>
			<point x="399" y="-40"/>
			<point x="399" y="-75.2558" type="curve" smooth="yes"/>
			<point x="399" y="-151"/>
			<point x="365" y="-200"/>
			<point x="264.971" y="-200" type="curve" smooth="yes"/>
			<point x="165.367" y="-200"/>
			<point x="109" y="-151"/>
			<point x="109" y="-75.4541" type="curve" smooth="yes"/>
			<point x="109" y="-40"/>
			<point x="144.761" y="59.4036"/>
			<point x="183.326" y="116.48" type="curve"/>
			<point x="6" y="500" type="line"/>
			<point x="149" y="500" type="line"/>
			<point x="291.943" y="170" type="line"/>
			<point x="228.943" y="170" type="line"/>
			<point x="390" y="500" type="line"/>
		</contour>
	</outline>
</glyph>
<glyph name="uni0265" format="2">
  <advance width="586"/>
  <unicode hex="0265"/>
  <outline>
    <contour>
      <point x="238.273" y="-15" type="curve" smooth="yes"/>
      <point x="119" y="-15"/>
      <point x="60" y="53"/>
      <point x="60" y="160" type="curve" smooth="yes"/>
      <point x="60" y="500" type="line"/>
      <point x="195" y="500" type="line"/>
      <point x="195" y="200" type="line" smooth="yes"/>
      <point x="195" y="111"/>
      <point x="225" y="67"/>
      <point x="276.95" y="67" type="curve" smooth="yes"/>
      <point x="347" y="67"/>
      <point x="391" y="147"/>
      <point x="391" y="211" type="curve" smooth="yes"/>
      <point x="391" y="500" type="line"/>
      <point x="526" y="500" type="line"/>
      <point x="526" y="-200" type="line"/>
      <point x="391" y="-200" type="line"/>
      <point x="391" y="57" type="line"/>
      <point x="353.652" y="3.25864"/>
      <point x="300.078" y="-15"/>
    </contour>
  </outline>
</glyph>
<glyph name="uni0266" format="2">
	<unicode hex="0266"/>
	<advance width="573"/>
	<outline>
		<contour>
			<point x="357" y="514" type="curve" smooth="yes"/>
			<point x="467" y="514"/>
			<point x="526" y="446"/>
			<point x="526" y="339" type="curve" smooth="yes"/>
			<point x="526" y="-1" type="line"/>
			<point x="391" y="-1" type="line"/>
			<point x="391" y="299" type="line" smooth="yes"/>
			<point x="391" y="388"/>
			<point x="361" y="432"/>
			<point x="301" y="432" type="curve" smooth="yes"/>
			<point x="239" y="432"/>
			<point x="195" y="352"/>
			<point x="195" y="288" type="curve" smooth="yes"/>
			<point x="195" y="-1" type="line"/>
			<point x="60" y="-1" type="line"/>
			<point x="60" y="462" type="line"/>
			<point x="195" y="462" type="line"/>
			<point x="195" y="442" type="line"/>
			<point x="232.348" y="495.741"/>
			<point x="285.922" y="514"/>
		</contour>
		<contour>
			<point x="60" y="380" type="line"/>
			<point x="60" y="545" type="line" smooth="yes"/>
			<point x="60" y="653.789"/>
			<point x="141.653" y="732"/>
			<point x="255" y="732" type="curve" smooth="yes"/>
			<point x="354.139" y="732"/>
			<point x="398.049" y="710.478"/>
			<point x="441" y="673" type="curve"/>
			<point x="370.867" y="601.748" type="line"/>
			<point x="350.799" y="618.108"/>
			<point x="318" y="628"/>
			<point x="285.044" y="628" type="curve" smooth="yes"/>
			<point x="217.695" y="628"/>
			<point x="195" y="591.108"/>
			<point x="195" y="505.724" type="curve" smooth="yes"/>
			<point x="195" y="380" type="line"/>
		</contour>
	</outline>
</glyph>
<glyph name="uni0268" format="2">
	<unicode hex="0268"/>
	<advance width="320"/>
	<outline>
		<component base="i" xOffset="20"/>
		<contour>
			<point x="295" y="202" type="line"/>
			<point x="25" y="202" type="line"/>
			<point x="25" y="297" type="line"/>
			<point x="295" y="297" type="line"/>
		</contour>
	</outline>
</glyph>
<glyph name="uni026A" format="2">
	<unicode hex="026A"/>
	<advance width="397"/>
	<outline>
		<contour>
			<point x="340" y="0" type="line"/>
			<point x="57" y="0" type="line"/>
			<point x="57" y="95" type="line"/>
			<point x="132" y="95" type="line"/>
			<point x="132" y="405" type="line"/>
			<point x="57" y="405" type="line"/>
			<point x="57" y="500" type="line"/>
			<point x="340" y="500" type="line"/>
			<point x="340" y="405" type="line"/>
			<point x="267" y="405" type="line"/>
			<point x="267" y="95" type="line"/>
			<point x="340" y="95" type="line"/>
		</contour>
	</outline>
</glyph>
<glyph name="uni026D" format="2">
	<unicode hex="026D"/>
	<advance width="282"/>
	<outline>
		<component base="l"/>
		<contour>
			<point x="316" y="-199.87" type="line"/>
			<point x="228.558" y="-199.87" type="line" smooth="yes"/>
			<point x="112.739" y="-199.87"/>
			<point x="60" y="-144.521"/>
			<point x="60" y="-29.7593" type="curve" smooth="yes"/>
			<point x="60" y="40" type="line"/>
			<point x="195" y="40" type="line"/>
			<point x="195" y="-19" type="line" smooth="yes"/>
			<point x="195" y="-82.4839"/>
			<point x="213.309" y="-104.759"/>
			<point x="273.611" y="-104.759" type="curve" smooth="yes"/>
			<point x="316" y="-104.759" type="line"/>
		</contour>
	</outline>
</glyph>
<glyph name="uni0270" format="2">
	<unicode hex="0270"/>
	<advance width="896"/>
	<outline>
		<contour>
			<point x="60" y="500" type="line"/>
			<point x="195" y="500" type="line"/>
			<point x="195" y="180" type="line" smooth="yes"/>
			<point x="195" y="111"/>
			<point x="221" y="82"/>
			<point x="265" y="82" type="curve" smooth="yes"/>
			<point x="321" y="82"/>
			<point x="369" y="130"/>
			<point x="369" y="180" type="curve" smooth="yes"/>
			<point x="369" y="500" type="line"/>
			<point x="504" y="500" type="line"/>
			<point x="504" y="180" type="line" smooth="yes"/>
			<point x="504" y="119"/>
			<point x="530" y="82"/>
			<point x="576.751" y="82" type="curve" smooth="yes"/>
			<point x="630" y="82"/>
			<point x="678" y="130"/>
			<point x="678" y="180" type="curve" smooth="yes"/>
			<point x="678" y="500" type="line"/>
			<point x="813" y="500" type="line"/>
			<point x="813" y="-200" type="line"/>
			<point x="678" y="-200" type="line"/>
			<point x="678" y="35" type="line"/>
			<point x="642" y="3"/>
			<point x="603" y="-14"/>
			<point x="560" y="-14" type="curve" smooth="yes"/>
			<point x="486" y="-14"/>
			<point x="434" y="9"/>
			<point x="402" y="57" type="curve"/>
			<point x="361" y="9"/>
			<point x="306" y="-14"/>
			<point x="238.071" y="-14" type="curve" smooth="yes"/>
			<point x="123" y="-14"/>
			<point x="60" y="52"/>
			<point x="60" y="170" type="curve" smooth="yes"/>
		</contour>
	</outline>
</glyph>
<glyph name="uni0271" format="2">
	<unicode hex="0271"/>
	<advance width="896"/>
	<outline>
		<contour>
			<point x="60" y="0" type="line"/>
			<point x="60" y="500" type="line"/>
			<point x="195" y="500" type="line"/>
			<point x="195" y="427" type="line"/>
			<point x="235" y="485"/>
			<point x="287" y="514"/>
			<point x="361.091" y="514" type="curve" smooth="yes"/>
			<point x="422.62" y="514"/>
			<point x="468" y="494"/>
			<point x="505" y="421" type="curve"/>
			<point x="546" y="485"/>
			<point x="583" y="514"/>
			<point x="672" y="514" type="curve" smooth="yes"/>
			<point x="786" y="514"/>
			<point x="843" y="438"/>
			<point x="843" y="329" type="curve" smooth="yes"/>
			<point x="843" y="-59" type="line" smooth="yes"/>
			<point x="843" y="-144"/>
			<point x="777" y="-200"/>
			<point x="683" y="-200" type="curve" smooth="yes"/>
			<point x="629" y="-200"/>
			<point x="582" y="-181"/>
			<point x="548" y="-143" type="curve"/>
			<point x="630" y="-56" type="line"/>
			<point x="639" y="-68"/>
			<point x="658" y="-78"/>
			<point x="676" y="-78" type="curve" smooth="yes"/>
			<point x="698" y="-78"/>
			<point x="708" y="-63"/>
			<point x="708" y="-41" type="curve" smooth="yes"/>
			<point x="708" y="320" type="line" smooth="yes"/>
			<point x="708" y="375"/>
			<point x="676" y="430"/>
			<point x="620.805" y="430" type="curve" smooth="yes"/>
			<point x="553" y="430"/>
			<point x="520" y="347"/>
			<point x="520" y="290" type="curve" smooth="yes"/>
			<point x="520" y="0" type="line"/>
			<point x="385" y="0" type="line"/>
			<point x="385" y="320" type="line" smooth="yes"/>
			<point x="385" y="376"/>
			<point x="354" y="429"/>
			<point x="300" y="429" type="curve" smooth="yes"/>
			<point x="231" y="429"/>
			<point x="195" y="347"/>
			<point x="195" y="289" type="curve" smooth="yes"/>
			<point x="195" y="0" type="line"/>
		</contour>
	</outline>
</glyph>
<glyph name="uni0273" format="2">
	<unicode hex="0273"/>
	<advance width="620"/>
	<outline>
		<component base="n"/>
		<contour>
			<point x="391" y="50" type="line"/>
			<point x="526" y="50" type="line"/>
			<point x="526" y="-19" type="line" smooth="yes"/>
			<point x="526" y="-83"/>
			<point x="544" y="-105"/>
			<point x="605" y="-105" type="curve" smooth="yes"/>
			<point x="647" y="-105" type="line"/>
			<point x="647" y="-200" type="line"/>
			<point x="560" y="-200" type="line" smooth="yes"/>
			<point x="444" y="-200"/>
			<point x="391" y="-145"/>
			<point x="391" y="-30" type="curve" smooth="yes"/>
		</contour>
	</outline>
</glyph>
<glyph name="uni0274" format="2">
	<unicode hex="0274"/>
	<advance width="535"/>
	<outline>
		<contour>
			<point x="62" y="0" type="line"/>
			<point x="62" y="500" type="line"/>
			<point x="207.797" y="500" type="line"/>
			<point x="399" y="100" type="line"/>
			<point x="399" y="500" type="line"/>
			<point x="496" y="500" type="line"/>
			<point x="496" y="0" type="line"/>
			<point x="351.199" y="0" type="line"/>
			<point x="159" y="400" type="line"/>
			<point x="159" y="0" type="line"/>
		</contour>
	</outline>
</glyph>
<glyph name="uni0276" format="2">
  <advance width="744"/>
  <unicode hex="0276"/>
  <outline>
    <contour>
      <point x="26" y="249" type="curve" smooth="yes"/>
      <point x="26" y="97"/>
      <point x="105" y="-8"/>
      <point x="295" y="-8" type="curve" smooth="yes"/>
      <point x="321" y="-8"/>
      <point x="346" y="-6"/>
      <point x="371" y="0" type="curve"/>
      <point x="703" y="0" type="line"/>
      <point x="703" y="99" type="line"/>
      <point x="489" y="99" type="line"/>
      <point x="489" y="208" type="line"/>
      <point x="682" y="208" type="line"/>
      <point x="682" y="303" type="line"/>
      <point x="489" y="303" type="line"/>
      <point x="489" y="405" type="line"/>
      <point x="696" y="405" type="line"/>
      <point x="696" y="500" type="line"/>
      <point x="370" y="500" type="line"/>
      <point x="347" y="506"/>
      <point x="322" y="510"/>
      <point x="295" y="510" type="curve" smooth="yes"/>
      <point x="105" y="510"/>
      <point x="26" y="400"/>
    </contour>
    <contour>
      <point x="162" y="250" type="curve" smooth="yes"/>
      <point x="162" y="339"/>
      <point x="189" y="431"/>
      <point x="295" y="431" type="curve" smooth="yes"/>
      <point x="316" y="431"/>
      <point x="336" y="427"/>
      <point x="354" y="417" type="curve"/>
      <point x="354" y="85" type="line"/>
      <point x="336" y="76"/>
      <point x="316" y="72"/>
      <point x="295" y="72" type="curve" smooth="yes"/>
      <point x="206" y="72"/>
      <point x="162" y="128"/>
    </contour>
  </outline>
</glyph>
<glyph name="uni027A" format="2">
	<unicode hex="027A"/>
	<advance width="363"/>
	<outline>
		<contour>
			<point x="191" y="722" type="line"/>
			<point x="191" y="244" type="line" smooth="yes"/>
			<point x="191" y="146"/>
			<point x="122" y="101"/>
			<point x="20" y="101" type="curve"/>
			<point x="20" y="-14" type="line"/>
			<point x="102" y="-14"/>
			<point x="153" y="0"/>
			<point x="191" y="77" type="curve"/>
			<point x="191" y="0" type="line"/>
			<point x="326" y="0" type="line"/>
			<point x="326" y="722" type="line"/>
		</contour>
	</outline>
</glyph>
<glyph name="uni027C" format="2">
	<unicode hex="027C"/>
	<advance width="363"/>
	<outline>
		<contour>
			<point x="195" y="-200" type="line"/>
			<point x="195" y="256" type="line" smooth="yes"/>
			<point x="195" y="354"/>
			<point x="264" y="399"/>
			<point x="366" y="399" type="curve"/>
			<point x="366" y="514" type="line"/>
			<point x="284" y="514"/>
			<point x="233" y="500"/>
			<point x="195" y="423" type="curve"/>
			<point x="195" y="500" type="line"/>
			<point x="60" y="500" type="line"/>
			<point x="60" y="-200" type="line"/>
		</contour>
	</outline>
</glyph>
<glyph name="uni027D" format="2">
  <advance width="363"/>
  <unicode hex="027D"/>
  <outline>
    <contour>
      <point x="316" y="-105" type="line"/>
      <point x="274" y="-105" type="line" smooth="yes"/>
      <point x="213" y="-105"/>
      <point x="195" y="-83"/>
      <point x="195" y="-19" type="curve" smooth="yes"/>
      <point x="195" y="256" type="line" smooth="yes"/>
      <point x="195" y="354"/>
      <point x="264" y="399"/>
      <point x="366" y="399" type="curve"/>
      <point x="366" y="514" type="line"/>
      <point x="284" y="514"/>
      <point x="233" y="500"/>
      <point x="195" y="423" type="curve"/>
      <point x="195" y="500" type="line"/>
      <point x="60" y="500" type="line"/>
      <point x="60" y="-30" type="line" smooth="yes"/>
      <point x="60" y="-145"/>
      <point x="113" y="-200"/>
      <point x="229" y="-200" type="curve" smooth="yes"/>
      <point x="316" y="-200" type="line"/>
    </contour>
  </outline>
</glyph>
<glyph name="uni027E" format="2">
	<unicode hex="027E"/>
	<advance width="452"/>
	<outline>
		<contour>
			<point x="402" y="449" type="curve"/>
			<point x="339" y="381" type="line"/>
			<point x="328" y="400"/>
			<point x="313" y="410"/>
			<point x="264" y="410" type="curve" smooth="yes"/>
			<point x="228" y="410"/>
			<point x="195" y="377"/>
			<point x="195" y="322" type="curve" smooth="yes"/>
			<point x="195" y="1" type="line"/>
			<point x="60" y="1" type="line"/>
			<point x="60" y="322" type="line" smooth="yes"/>
			<point x="60" y="457"/>
			<point x="123" y="514"/>
			<point x="255" y="514" type="curve" smooth="yes"/>
			<point x="330" y="514"/>
			<point x="379" y="486"/>
		</contour>
	</outline>
</glyph>
<glyph name="uni0282" format="2">
	<unicode hex="0282"/>
	<advance width="503"/>
	<outline>
		<component base="s"/>
		<contour>
			<point x="122" y="-93" type="line" smooth="yes"/>
			<point x="122" y="-119"/>
			<point x="140" y="-137"/>
			<point x="171.074" y="-137" type="curve" smooth="yes"/>
			<point x="203" y="-137"/>
			<point x="212" y="-118"/>
			<point x="212" y="-78" type="curve"/>
			<point x="347" y="-78" type="line"/>
			<point x="347" y="-166"/>
			<point x="285" y="-200"/>
			<point x="186" y="-200" type="curve" smooth="yes"/>
			<point x="107" y="-200"/>
			<point x="44" y="-167.602"/>
			<point x="44" y="-100" type="curve" smooth="yes"/>
			<point x="44" y="154" type="line"/>
			<point x="122" y="154" type="line"/>
		</contour>
	</outline>
</glyph>
<glyph name="uni0283" format="2">
  <advance width="413"/>
  <unicode hex="0283"/>
  <outline>
    <contour>
      <point x="20" y="-179.897" type="curve"/>
      <point x="78" y="-88" type="line"/>
      <point x="91" y="-99"/>
      <point x="110" y="-104"/>
      <point x="128.092" y="-104" type="curve" smooth="yes"/>
      <point x="159.384" y="-104"/>
      <point x="176" y="-87.0517"/>
      <point x="176" y="-43.753" type="curve" smooth="yes"/>
      <point x="176" y="-4"/>
      <point x="161.994" y="117"/>
      <point x="135" y="317" type="curve" smooth="yes"/>
      <point x="117.994" y="443"/>
      <point x="109" y="528"/>
      <point x="109" y="567.06" type="curve" smooth="yes"/>
      <point x="109" y="685"/>
      <point x="191" y="735"/>
      <point x="306.369" y="735" type="curve" smooth="yes"/>
      <point x="339" y="735"/>
      <point x="379" y="723.913"/>
      <point x="393" y="714.913" type="curve"/>
      <point x="336.146" y="626.9" type="line"/>
      <point x="322.146" y="634.9"/>
      <point x="306.146" y="638.9"/>
      <point x="291.424" y="638.9" type="curve" smooth="yes"/>
      <point x="258.946" y="638.9"/>
      <point x="243" y="619.433"/>
      <point x="243" y="569.121" type="curve" smooth="yes"/>
      <point x="243" y="529"/>
      <point x="253.14" y="441.02"/>
      <point x="272.41" y="306.132" type="curve" smooth="yes"/>
      <point x="297.14" y="133.02"/>
      <point x="309" y="22"/>
      <point x="309" y="-26.7056" type="curve" smooth="yes"/>
      <point x="309" y="-150"/>
      <point x="233" y="-200"/>
      <point x="123.596" y="-200" type="curve" smooth="yes"/>
      <point x="89" y="-200"/>
      <point x="41.2019" y="-195.927"/>
    </contour>
  </outline>
</glyph>
<glyph name="uni0284" format="2">
  <advance width="350"/>
  <unicode hex="0284"/>
  <outline>
    <contour>
      <point x="235" y="-40" type="line" smooth="yes"/>
      <point x="235" y="-154"/>
      <point x="189" y="-200"/>
      <point x="86.881" y="-200" type="curve" smooth="yes"/>
      <point x="50" y="-200"/>
      <point x="17" y="-194"/>
      <point x="-20" y="-182" type="curve"/>
      <point x="-20" y="-97" type="line"/>
      <point x="-1" y="-107"/>
      <point x="17.9741" y="-111"/>
      <point x="38.2867" y="-111" type="curve" smooth="yes"/>
      <point x="86.9946" y="-111"/>
      <point x="100" y="-88"/>
      <point x="100" y="-37" type="curve" smooth="yes"/>
      <point x="100" y="100" type="line"/>
      <point x="235" y="100" type="line"/>
    </contour>
    <contour>
      <point x="100" y="574" type="line" smooth="yes"/>
      <point x="100" y="688"/>
      <point x="146" y="734"/>
      <point x="248.119" y="734" type="curve" smooth="yes"/>
      <point x="285" y="734"/>
      <point x="318" y="728"/>
      <point x="355" y="716" type="curve"/>
      <point x="355" y="631" type="line"/>
      <point x="336" y="641"/>
      <point x="317.026" y="645"/>
      <point x="296.713" y="645" type="curve" smooth="yes"/>
      <point x="248.005" y="645"/>
      <point x="235" y="622"/>
      <point x="235" y="571" type="curve" smooth="yes"/>
      <point x="235" y="319" type="line"/>
      <point x="341" y="319" type="line"/>
      <point x="341" y="234" type="line"/>
      <point x="235" y="234" type="line"/>
      <point x="235" y="0" type="line"/>
      <point x="100" y="0" type="line"/>
      <point x="100" y="234" type="line"/>
      <point x="10" y="234" type="line"/>
      <point x="10" y="319" type="line"/>
      <point x="100" y="319" type="line"/>
    </contour>
  </outline>
</glyph>
<glyph name="uni0288" format="2">
	<unicode hex="0288"/>
	<advance width="370"/>
	<outline>
		<contour>
			<point x="265" y="-29" type="line" smooth="yes"/>
			<point x="265" y="-79"/>
			<point x="295" y="-107"/>
			<point x="343" y="-107" type="curve" smooth="yes"/>
			<point x="361" y="-107"/>
			<point x="378" y="-104"/>
			<point x="393" y="-98" type="curve"/>
			<point x="393" y="-183" type="line"/>
			<point x="362" y="-194"/>
			<point x="328" y="-200"/>
			<point x="291" y="-200" type="curve" smooth="yes"/>
			<point x="205" y="-200"/>
			<point x="130" y="-150"/>
			<point x="130" y="-67" type="curve" smooth="yes"/>
			<point x="130" y="415" type="line"/>
			<point x="30" y="415" type="line"/>
			<point x="30" y="500" type="line"/>
			<point x="130" y="500" type="line"/>
			<point x="130" y="577" type="line"/>
			<point x="265" y="647" type="line"/>
			<point x="265" y="500" type="line"/>
			<point x="384" y="500" type="line"/>
			<point x="384" y="415" type="line"/>
			<point x="265" y="415" type="line"/>
		</contour>
	</outline>
</glyph>
<glyph name="uni0289" format="2">
  <advance width="627"/>
  <unicode hex="0289"/>
  <outline>
    <component base="u"/>
    <contour>
      <point x="22" y="232" type="line"/>
      <point x="567" y="232" type="line"/>
      <point x="567" y="327" type="line"/>
      <point x="22" y="327" type="line"/>
    </contour>
  </outline>
</glyph>
<glyph name="uni028A" format="2">
	<unicode hex="028A"/>
	<advance width="593"/>
	<outline>
		<contour>
			<point x="582" y="404.5" type="line"/>
			<point x="526" y="404.5" type="line" smooth="yes"/>
			<point x="510.992" y="404.5"/>
			<point x="504" y="401"/>
			<point x="504" y="392" type="curve" smooth="yes"/>
			<point x="504" y="385"/>
			<point x="508.234" y="375.228"/>
			<point x="517.9" y="365.053" type="curve" smooth="yes"/>
			<point x="546.237" y="335.224"/>
			<point x="561" y="290"/>
			<point x="561" y="239.74" type="curve" smooth="yes"/>
			<point x="561" y="80"/>
			<point x="452" y="-14"/>
			<point x="292" y="-14" type="curve" smooth="yes"/>
			<point x="132" y="-14"/>
			<point x="30" y="80"/>
			<point x="30" y="238.052" type="curve" smooth="yes"/>
			<point x="30" y="288"/>
			<point x="46.0607" y="331.945"/>
			<point x="78" y="367" type="curve" smooth="yes"/>
			<point x="87.0609" y="376.945"/>
			<point x="92" y="385"/>
			<point x="92" y="392" type="curve" smooth="yes"/>
			<point x="92" y="401"/>
			<point x="84" y="405"/>
			<point x="69" y="405" type="curve" smooth="yes"/>
			<point x="14" y="405" type="line"/>
			<point x="14" y="500" type="line"/>
			<point x="235" y="500" type="line"/>
			<point x="199" y="451"/>
			<point x="165" y="334"/>
			<point x="165" y="241.692" type="curve" smooth="yes"/>
			<point x="165" y="152"/>
			<point x="222" y="100"/>
			<point x="295.003" y="100" type="curve" smooth="yes"/>
			<point x="362" y="100"/>
			<point x="426" y="143"/>
			<point x="426" y="242.039" type="curve" smooth="yes"/>
			<point x="426" y="333"/>
			<point x="393" y="456"/>
			<point x="360" y="500" type="curve"/>
			<point x="582" y="500" type="line"/>
		</contour>
	</outline>
</glyph>
<glyph name="uni028F" format="2">
	<unicode hex="028F"/>
	<advance width="493"/>
	<outline>
		<contour>
			<point x="492" y="500" type="line"/>
			<point x="314" y="179" type="line"/>
			<point x="314" y="0" type="line"/>
			<point x="179" y="0" type="line"/>
			<point x="179" y="179" type="line"/>
			<point x="1" y="500" type="line"/>
			<point x="164" y="500" type="line"/>
			<point x="293" y="240" type="line"/>
			<point x="209" y="240" type="line"/>
			<point x="336" y="500" type="line"/>
		</contour>
	</outline>
</glyph>
<glyph name="uni0290" format="2">
	<unicode hex="0290"/>
	<advance width="622"/>
	<outline>
		<component base="z"/>
		<contour>
			<point x="462" y="-93" type="line" smooth="yes"/>
			<point x="462" y="-119"/>
			<point x="480" y="-137"/>
			<point x="511.074" y="-137" type="curve" smooth="yes"/>
			<point x="543" y="-137"/>
			<point x="552" y="-118"/>
			<point x="552" y="-78" type="curve"/>
			<point x="687" y="-78" type="line"/>
			<point x="687" y="-166"/>
			<point x="625" y="-200"/>
			<point x="526" y="-200" type="curve" smooth="yes"/>
			<point x="447" y="-200"/>
			<point x="384" y="-167.602"/>
			<point x="384" y="-100" type="curve" smooth="yes"/>
			<point x="384" y="85" type="line"/>
			<point x="462" y="85" type="line"/>
		</contour>
	</outline>
</glyph>
<glyph name="uni0294" format="2">
	<unicode hex="0294"/>
	<advance width="489"/>
	<outline>
		<contour>
			<point x="132" y="0" type="line"/>
			<point x="132" y="432" type="line"/>
			<point x="244" y="442"/>
			<point x="303" y="472"/>
			<point x="303" y="534.783" type="curve" smooth="yes"/>
			<point x="303" y="589"/>
			<point x="259" y="625"/>
			<point x="169.394" y="625" type="curve" smooth="yes"/>
			<point x="136" y="625"/>
			<point x="100" y="620"/>
			<point x="64" y="610" type="curve"/>
			<point x="64" y="716" type="line"/>
			<point x="119" y="728"/>
			<point x="168" y="734"/>
			<point x="204.192" y="734" type="curve" smooth="yes"/>
			<point x="333" y="734"/>
			<point x="438" y="658"/>
			<point x="438" y="542.257" type="curve" smooth="yes"/>
			<point x="438" y="464"/>
			<point x="390" y="404"/>
			<point x="267" y="369" type="curve"/>
			<point x="267" y="0" type="line"/>
		</contour>
	</outline>
</glyph>
<glyph name="uni0298" format="2">
	<unicode hex="0298"/>
	<advance width="872"/>
	<outline>
		<contour>
			<point x="530.606" y="364.821" type="curve" smooth="yes"/>
			<point x="530.606" y="307.847"/>
			<point x="491.707" y="265.809"/>
			<point x="435.005" y="265.809" type="curve" smooth="yes"/>
			<point x="379.693" y="265.809"/>
			<point x="339.394" y="307.846"/>
			<point x="339.394" y="364.821" type="curve" smooth="yes"/>
			<point x="339.394" y="421.535"/>
			<point x="378.109" y="459.191"/>
			<point x="435" y="459.191" type="curve" smooth="yes"/>
			<point x="491.89" y="459.191"/>
			<point x="530.606" y="421.535"/>
		</contour>
		<contour>
			<point x="714.035" y="360.909" type="curve" smooth="yes"/>
			<point x="714.035" y="522.495"/>
			<point x="597.495" y="639.035"/>
			<point x="435" y="639.035" type="curve" smooth="yes"/>
			<point x="272.505" y="639.035"/>
			<point x="155.965" y="522.495"/>
			<point x="155.965" y="360.909" type="curve" smooth="yes"/>
			<point x="155.965" y="198.385"/>
			<point x="273.385" y="80.9649"/>
			<point x="435" y="80.9649" type="curve" smooth="yes"/>
			<point x="596.615" y="80.9649"/>
			<point x="714.035" y="198.385"/>
		</contour>
		<contour>
			<point x="848.6" y="358.814" type="curve" smooth="yes"/>
			<point x="848.6" y="120.296"/>
			<point x="673.681" y="-53.6"/>
			<point x="433.904" y="-53.6" type="curve" smooth="yes"/>
			<point x="194.119" y="-53.6"/>
			<point x="21.4" y="119.119"/>
			<point x="21.4" y="358.814" type="curve" smooth="yes"/>
			<point x="21.4" y="599.784"/>
			<point x="194.193" y="773.6"/>
			<point x="433.904" y="773.6" type="curve" smooth="yes"/>
			<point x="673.754" y="773.6"/>
			<point x="848.6" y="598.754"/>
		</contour>
	</outline>
</glyph>
<glyph name="uni029B" format="2">
	<unicode hex="029B"/>
	<advance width="611"/>
	<outline>
		<component base="uni0262"/>
		<contour>
			<point x="384.373" y="344.324" type="line"/>
			<point x="384.373" y="444.324" type="line" smooth="yes"/>
			<point x="384.373" y="535.773"/>
			<point x="439.771" y="592.324"/>
			<point x="531.433" y="592.324" type="curve" smooth="yes"/>
			<point x="558.377" y="592.324"/>
			<point x="595.373" y="587.437"/>
			<point x="610.373" y="577.665" type="curve"/>
			<point x="610.373" y="482.595" type="line"/>
			<point x="595.373" y="492.095"/>
			<point x="579.39" y="496.333"/>
			<point x="564.199" y="496.333" type="curve" smooth="yes"/>
			<point x="536.015" y="496.333"/>
			<point x="519.373" y="479.448"/>
			<point x="519.373" y="444.324" type="curve" smooth="yes"/>
			<point x="519.373" y="344.324" type="line"/>
		</contour>
	</outline>
</glyph>
<glyph name="uni029D" format="2">
  <advance width="414"/>
  <unicode hex="029D"/>
  <outline>
    <contour>
      <point x="192" y="0" type="line"/>
      <point x="192" y="500" type="line"/>
      <point x="327" y="500" type="line"/>
      <point x="327" y="0" type="line"/>
    </contour>
    <contour>
      <point x="390" y="95" type="line"/>
      <point x="390" y="0" type="line"/>
      <point x="327" y="0" type="line"/>
      <point x="327" y="-61.2298" type="line" smooth="yes"/>
      <point x="327" y="-146.454"/>
      <point x="259.989" y="-200"/>
      <point x="151.187" y="-200" type="curve" smooth="yes"/>
      <point x="43.2457" y="-200"/>
      <point x="-23" y="-147.298"/>
      <point x="-23" y="-51.9991" type="curve" smooth="yes"/>
      <point x="-23" y="36.1571"/>
      <point x="33.6874" y="95"/>
      <point x="119" y="95" type="curve" smooth="yes"/>
      <point x="192" y="95" type="line"/>
      <point x="192" y="132.634" type="line"/>
      <point x="327" y="132.634" type="line"/>
      <point x="327" y="95" type="line"/>
    </contour>
    <contour>
      <point x="192" y="-45.3413" type="curve" smooth="yes"/>
      <point x="192" y="0" type="line"/>
      <point x="168" y="0" type="line" smooth="yes"/>
      <point x="129.602" y="0"/>
      <point x="112" y="-15.4861"/>
      <point x="112" y="-49.2687" type="curve" smooth="yes"/>
      <point x="112" y="-82.1912"/>
      <point x="128.984" y="-101"/>
      <point x="158.711" y="-101" type="curve" smooth="yes"/>
      <point x="184.099" y="-101"/>
      <point x="192" y="-87.7904"/>
    </contour>
    <contour>
      <point x="182" y="592" type="line"/>
      <point x="182" y="722" type="line"/>
      <point x="337" y="722" type="line"/>
      <point x="337" y="592" type="line"/>
    </contour>
  </outline>
</glyph>
<glyph name="uni029F" format="2">
  <advance width="451"/>
  <unicode hex="029F"/>
  <outline>
    <contour>
      <point x="417" y="0" type="line"/>
      <point x="57" y="0" type="line"/>
      <point x="57" y="500" type="line"/>
      <point x="192" y="500" type="line"/>
      <point x="192" y="95" type="line"/>
      <point x="417" y="95" type="line"/>
    </contour>
  </outline>
</glyph>
<glyph name="uni02A0" format="2">
  <advance width="630"/>
  <unicode hex="02A0"/>
  <outline>
    <contour>
      <point x="412.373" y="344.324" type="line"/>
      <point x="412.373" y="444.324" type="line" smooth="yes"/>
      <point x="412.373" y="535.773"/>
      <point x="467.771" y="592.324"/>
      <point x="559.433" y="592.324" type="curve" smooth="yes"/>
      <point x="586.377" y="592.324"/>
      <point x="623.373" y="587.437"/>
      <point x="638.373" y="577.665" type="curve"/>
      <point x="638.373" y="482.595" type="line"/>
      <point x="623.373" y="492.095"/>
      <point x="607.39" y="496.333"/>
      <point x="592.199" y="496.333" type="curve" smooth="yes"/>
      <point x="564.015" y="496.333"/>
      <point x="547.373" y="479.448"/>
      <point x="547.373" y="444.324" type="curve" smooth="yes"/>
      <point x="547.373" y="344.324" type="line"/>
    </contour>
    <contour>
      <point x="44" y="250.48" type="curve" smooth="yes"/>
      <point x="44" y="404"/>
      <point x="121" y="514"/>
      <point x="274" y="514" type="curve" smooth="yes"/>
      <point x="340" y="514"/>
      <point x="395.702" y="471.283"/>
      <point x="412" y="431" type="curve"/>
      <point x="412" y="437" type="line"/>
      <point x="547" y="437" type="line"/>
      <point x="547" y="-200" type="line"/>
      <point x="412" y="-200" type="line"/>
      <point x="412" y="44" type="line"/>
      <point x="365" y="6"/>
      <point x="315" y="-14"/>
      <point x="256.729" y="-14" type="curve" smooth="yes"/>
      <point x="117" y="-14"/>
      <point x="44" y="101"/>
    </contour>
    <contour>
      <point x="180" y="252.965" type="curve" smooth="yes"/>
      <point x="180" y="175"/>
      <point x="208" y="70"/>
      <point x="300.483" y="70" type="curve" smooth="yes"/>
      <point x="396" y="70"/>
      <point x="417" y="182"/>
      <point x="417" y="244.602" type="curve" smooth="yes"/>
      <point x="417" y="331"/>
      <point x="377" y="423"/>
      <point x="293.078" y="423" type="curve" smooth="yes"/>
      <point x="211" y="423"/>
      <point x="180" y="335"/>
    </contour>
  </outline>
</glyph>
<glyph name="uni02A1" format="2">
	<unicode hex="02A1"/>
	<advance width="489"/>
	<outline>
		<component base="uni0294"/>
		<contour>
			<point x="370" y="297" type="line"/>
			<point x="31" y="297" type="line"/>
			<point x="31" y="202" type="line"/>
			<point x="370" y="202" type="line"/>
		</contour>
	</outline>
</glyph>
<glyph name="hfishhookturned" format="2">
	<unicode hex="02AE"/>
	<advance width="627"/>
	<outline>
		<contour>
			<point x="229" y="-15" type="curve" smooth="yes"/>
			<point x="119" y="-15"/>
			<point x="60" y="53"/>
			<point x="60" y="160" type="curve" smooth="yes"/>
			<point x="60" y="500" type="line"/>
			<point x="195" y="500" type="line"/>
			<point x="195" y="200" type="line" smooth="yes"/>
			<point x="195" y="111"/>
			<point x="225" y="67"/>
			<point x="285" y="67" type="curve" smooth="yes"/>
			<point x="347" y="67"/>
			<point x="391" y="147"/>
			<point x="391" y="211" type="curve" smooth="yes"/>
			<point x="391" y="500" type="line"/>
			<point x="526" y="500" type="line"/>
			<point x="526" y="-200" type="line"/>
			<point x="391" y="-200" type="line"/>
			<point x="391" y="57" type="line"/>
			<point x="353.652" y="3.25864"/>
			<point x="300.078" y="-15"/>
		</contour>
		<contour>
			<point x="195" y="380" type="line"/>
			<point x="60" y="380" type="line"/>
			<point x="60" y="505.724" type="line" smooth="yes"/>
			<point x="60" y="591.108"/>
			<point x="37.3051" y="628"/>
			<point x="-30.0442" y="628" type="curve" smooth="yes"/>
			<point x="-63" y="628"/>
			<point x="-95.7987" y="618.108"/>
			<point x="-115.867" y="601.748" type="curve"/>
			<point x="-186" y="673" type="line"/>
			<point x="-143.049" y="710.478"/>
			<point x="-99.1391" y="732"/>
			<point x="0" y="732" type="curve" smooth="yes"/>
			<point x="113.347" y="732"/>
			<point x="195" y="653.789"/>
			<point x="195" y="545" type="curve" smooth="yes"/>
		</contour>
	</outline>
</glyph>
<glyph name="uni02AF" format="2">
  <advance width="1"/>
  <unicode hex="02AF"/>
  <outline>
    <contour>
      <point x="229" y="-15" type="curve" smooth="yes"/>
      <point x="300.078" y="-15"/>
      <point x="353.652" y="3.25864"/>
      <point x="391" y="57" type="curve"/>
      <point x="391" y="30" type="line"/>
      <point x="526" y="30" type="line"/>
      <point x="526" y="500" type="line"/>
      <point x="391" y="500" type="line"/>
      <point x="391" y="211" type="line" smooth="yes"/>
      <point x="391" y="147"/>
      <point x="347" y="67"/>
      <point x="285" y="67" type="curve" smooth="yes"/>
      <point x="225" y="67"/>
      <point x="195" y="111"/>
      <point x="195" y="200" type="curve" smooth="yes"/>
      <point x="195" y="500" type="line"/>
      <point x="60" y="500" type="line"/>
      <point x="60" y="160" type="line" smooth="yes"/>
      <point x="60" y="53"/>
      <point x="119" y="-15"/>
    </contour>
    <contour>
      <point x="195" y="545" type="line" smooth="yes"/>
      <point x="195" y="653.789"/>
      <point x="113.347" y="732"/>
      <point x="0" y="732" type="curve" smooth="yes"/>
      <point x="-99.1391" y="732"/>
      <point x="-143.049" y="710.478"/>
      <point x="-186" y="673" type="curve"/>
      <point x="-115.867" y="601.748" type="line"/>
      <point x="-95.7987" y="618.108"/>
      <point x="-63" y="628"/>
      <point x="-30.0442" y="628" type="curve" smooth="yes"/>
      <point x="37.3051" y="628"/>
      <point x="60" y="591.108"/>
      <point x="60" y="505.724" type="curve" smooth="yes"/>
      <point x="60" y="380" type="line"/>
      <point x="195" y="380" type="line"/>
    </contour>
    <contour>
      <point x="391" y="134" type="line"/>
      <point x="391" y="-60" type="line" smooth="yes"/>
      <point x="391" y="-140.291"/>
      <point x="473.413" y="-199"/>
      <point x="582" y="-199" type="curve" smooth="yes"/>
      <point x="639" y="-199"/>
      <point x="685" y="-180"/>
      <point x="720" y="-142" type="curve"/>
      <point x="644.302" y="-66.1515" type="line"/>
      <point x="633.132" y="-78.279"/>
      <point x="617" y="-89"/>
      <point x="588" y="-89" type="curve" smooth="yes"/>
      <point x="554" y="-89"/>
      <point x="526" y="-63"/>
      <point x="526" y="-21" type="curve" smooth="yes"/>
      <point x="526" y="134" type="line"/>
    </contour>
  </outline>
</glyph>
<glyph name="uni02BC" format="2">
  <advance width="409"/>
  <unicode hex="02BC"/>
  <outline>
    <contour>
      <point x="280" y="722" type="line"/>
      <point x="254" y="432" type="line"/>
      <point x="156" y="432" type="line"/>
      <point x="130" y="722" type="line"/>
    </contour>
  </outline>
</glyph>
<glyph name="circumflex" format="2">
	<unicode hex="02C6"/>
	<advance width="319"/>
	<outline>
		<contour>
			<point x="320" y="600" type="line"/>
			<point x="250" y="600" type="line"/>
			<point x="160" y="710" type="line"/>
			<point x="70" y="600" type="line"/>
			<point x="0" y="600" type="line"/>
			<point x="90" y="780" type="line"/>
			<point x="230" y="780" type="line"/>
		</contour>
	</outline>
	<anchor name="_top" x="160" y="525"/>
</glyph>
<glyph name="caron" format="2">
	<unicode hex="02C7"/>
	<advance width="319"/>
	<outline>
		<contour>
			<point x="320" y="780" type="line"/>
			<point x="230" y="600" type="line"/>
			<point x="90" y="600" type="line"/>
			<point x="0" y="780" type="line"/>
			<point x="70" y="780" type="line"/>
			<point x="160" y="670" type="line"/>
			<point x="250" y="780" type="line"/>
		</contour>
	</outline>
	<anchor name="_top" x="160" y="525"/>
</glyph>
<glyph name="breve" format="2">
	<unicode hex="02D8"/>
	<advance width="319"/>
	<outline>
		<contour>
			<point x="158" y="680" type="curve" smooth="yes"/>
			<point x="208" y="680"/>
			<point x="259" y="720"/>
			<point x="259" y="750" type="curve"/>
			<point x="319" y="750" type="line"/>
			<point x="309" y="667"/>
			<point x="251" y="600"/>
			<point x="159" y="600" type="curve" smooth="yes"/>
			<point x="61" y="600"/>
			<point x="7" y="660"/>
			<point x="-1" y="750" type="curve"/>
			<point x="59" y="750" type="line"/>
			<point x="59" y="720"/>
			<point x="108" y="680"/>
		</contour>
	</outline>
</glyph>
<glyph name="ogonek" format="2">
	<unicode hex="02DB"/>
	<advance width="207"/>
	<outline>
		<contour>
			<point x="167" y="-226" type="curve"/>
			<point x="126" y="-230"/>
			<point x="100" y="-230"/>
			<point x="88" y="-230" type="curve" smooth="yes"/>
			<point x="32" y="-230"/>
			<point x="0" y="-191"/>
			<point x="0" y="-144" type="curve" smooth="yes"/>
			<point x="0" y="-93"/>
			<point x="39.5711" y="-42.5567"/>
			<point x="61" y="-20" type="curve" smooth="yes"/>
			<point x="80" y="0" type="line"/>
			<point x="84.9657" y="0"/>
			<point x="119.612" y="0"/>
			<point x="128" y="0" type="curve"/>
			<point x="98" y="-24"/>
			<point x="80" y="-68"/>
			<point x="80" y="-99" type="curve" smooth="yes"/>
			<point x="80" y="-128"/>
			<point x="96" y="-138"/>
			<point x="129" y="-140" type="curve"/>
			<point x="167" y="-136" type="line"/>
			<point x="167" y="-149.8"/>
			<point x="167" y="-219.494"/>
		</contour>
	</outline>
</glyph>
<glyph name="tilde" format="2">
	<unicode hex="02DC"/>
	<advance width="319"/>
	<outline>
		<contour>
			<point x="0" y="618" type="line"/>
			<point x="6" y="674"/>
			<point x="38" y="725"/>
			<point x="92.8138" y="725" type="curve" smooth="yes"/>
			<point x="118.828" y="725"/>
			<point x="145.065" y="714.449"/>
			<point x="168.519" y="702.85" type="curve" smooth="yes"/>
			<point x="189.213" y="692.616"/>
			<point x="208.481" y="685"/>
			<point x="225.231" y="685" type="curve" smooth="yes"/>
			<point x="245" y="685"/>
			<point x="262" y="697"/>
			<point x="268" y="721" type="curve"/>
			<point x="319" y="721" type="line"/>
			<point x="313" y="661"/>
			<point x="279" y="611"/>
			<point x="226.208" y="611" type="curve" smooth="yes"/>
			<point x="201.498" y="611"/>
			<point x="177.128" y="620.954"/>
			<point x="153.967" y="632.397" type="curve" smooth="yes"/>
			<point x="133.218" y="642.649"/>
			<point x="112.775" y="651"/>
			<point x="94.3419" y="651" type="curve" smooth="yes"/>
			<point x="76" y="651"/>
			<point x="59" y="642"/>
			<point x="52" y="618" type="curve"/>
		</contour>
	</outline>
</glyph>
<glyph name="uni02E6" format="2">
	<unicode hex="02E6"/>
	<advance width="408"/>
	<outline>
		<contour>
			<point x="358" y="0" type="line"/>
			<point x="223" y="0" type="line"/>
			<point x="223" y="476" type="line"/>
			<point x="20" y="476" type="line"/>
			<point x="20" y="571" type="line"/>
			<point x="223" y="571" type="line"/>
			<point x="223" y="722" type="line"/>
			<point x="358" y="722" type="line"/>
		</contour>
	</outline>
</glyph>
<glyph name="uni02E9" format="2">
	<unicode hex="02E9"/>
	<advance width="408"/>
	<outline>
		<contour>
			<point x="358" y="0" type="line"/>
			<point x="21" y="0" type="line"/>
			<point x="21" y="95" type="line"/>
			<point x="223" y="95" type="line"/>
			<point x="223" y="722" type="line"/>
			<point x="358" y="722" type="line"/>
		</contour>
	</outline>
</glyph>
<glyph name="gravecomb" format="2">
	<unicode hex="0300"/>
	<outline>
		<contour>
			<point x="-150" y="600" type="line"/>
			<point x="-220" y="600" type="line"/>
			<point x="-371" y="780" type="line"/>
			<point x="-241" y="780" type="line"/>
		</contour>
	</outline>
	<anchor name="_top" x="-177" y="600"/>
	<anchor name="_top.mkmk" x="-185" y="600"/>
</glyph>
<glyph name="acutecomb" format="2">
	<unicode hex="0301"/>
	<advance width="1"/>
	<outline>
		<contour>
			<point x="-120" y="780" type="line"/>
			<point x="-271" y="600" type="line"/>
			<point x="-341" y="600" type="line"/>
			<point x="-250" y="780" type="line"/>
		</contour>
	</outline>
	<anchor name="_bottom" x="-231" y="855"/>
	<anchor name="_left" x="-70" y="690"/>
	<anchor name="_top" x="-305" y="600"/>
	<anchor name="_top.mkmk" x="-330" y="600"/>
</glyph>
<glyph name="uni0302" format="2">
	<unicode hex="0302"/>
	<advance width="1"/>
	<outline>
		<contour>
			<point x="-474" y="600" type="line"/>
			<point x="-384" y="780" type="line"/>
			<point x="-244" y="780" type="line"/>
			<point x="-154" y="600" type="line"/>
			<point x="-224" y="600" type="line"/>
			<point x="-314" y="710" type="line"/>
			<point x="-404" y="600" type="line"/>
		</contour>
	</outline>
	<anchor name="_top" x="-314" y="600"/>
	<anchor name="top.mkmk" x="-314" y="820"/>
	<guideline x="-296" y="0" angle="90"/>
</glyph>
<glyph name="uni0306" format="2">
	<unicode hex="0306"/>
	<advance width="1"/>
	<outline>
		<contour>
			<point x="-458" y="750" type="curve"/>
			<point x="-398" y="750" type="line"/>
			<point x="-398" y="720"/>
			<point x="-349" y="680"/>
			<point x="-299" y="680" type="curve" smooth="yes"/>
			<point x="-249" y="680"/>
			<point x="-198" y="720"/>
			<point x="-198" y="750" type="curve"/>
			<point x="-138" y="750" type="line"/>
			<point x="-148" y="667"/>
			<point x="-206" y="600"/>
			<point x="-298" y="600" type="curve" smooth="yes"/>
			<point x="-396" y="600"/>
			<point x="-450" y="660"/>
		</contour>
	</outline>
	<anchor name="_bottom" x="-298" y="825"/>
	<anchor name="_top" x="-298" y="600"/>
</glyph>
<glyph name="uni0307" format="2">
	<unicode hex="0307"/>
	<advance width="1"/>
	<outline>
		<contour>
			<point x="-347" y="600" type="line"/>
			<point x="-347" y="720" type="line"/>
			<point x="-237" y="720" type="line"/>
			<point x="-237" y="600" type="line"/>
		</contour>
	</outline>
	<anchor name="_bottom" x="-292" y="795"/>
	<anchor name="_top" x="-292" y="600"/>
</glyph>
<glyph name="uni0308" format="2">
  <unicode hex="0308"/>
  <anchor x="-270" y="600" name="_top"/>
  <anchor x="-270" y="820" name="top.mkmk"/>
  <outline>
    <contour>
      <point x="-90" y="600" type="line"/>
      <point x="-200" y="600" type="line"/>
      <point x="-200" y="720" type="line"/>
      <point x="-90" y="720" type="line"/>
    </contour>
    <contour>
      <point x="-340" y="600" type="line"/>
      <point x="-450" y="600" type="line"/>
      <point x="-450" y="720" type="line"/>
      <point x="-340" y="720" type="line"/>
    </contour>
  </outline>
</glyph>
<glyph name="hookabovecomb" format="2">
	<unicode hex="0309"/>
	<advance width="500"/>
	<outline>
		<contour>
			<point x="-126" y="701" type="curve" smooth="yes"/>
			<point x="-126" y="650"/>
			<point x="-158" y="618"/>
			<point x="-222" y="600" type="curve"/>
			<point x="-222" y="536" type="line"/>
			<point x="-312" y="536" type="line"/>
			<point x="-312" y="622" type="line"/>
			<point x="-248" y="627"/>
			<point x="-216" y="654"/>
			<point x="-216" y="696" type="curve" smooth="yes"/>
			<point x="-216" y="731"/>
			<point x="-238" y="751"/>
			<point x="-270" y="751" type="curve" smooth="yes"/>
			<point x="-294" y="751"/>
			<point x="-315" y="740"/>
			<point x="-318" y="714" type="curve"/>
			<point x="-408" y="714" type="line"/>
			<point x="-398" y="781"/>
			<point x="-348" y="821"/>
			<point x="-272" y="821" type="curve" smooth="yes"/>
			<point x="-186" y="821"/>
			<point x="-126" y="771"/>
		</contour>
	</outline>
</glyph>
<glyph name="uni030B" format="2">
	<unicode hex="030B"/>
	<advance width="-9"/>
	<outline>
		<contour>
			<point x="-9" y="791" type="line"/>
			<point x="-152" y="600" type="line"/>
			<point x="-250" y="600" type="line"/>
			<point x="-159" y="791" type="line"/>
		</contour>
		<contour>
			<point x="-239" y="790" type="line"/>
			<point x="-382" y="599" type="line"/>
			<point x="-480" y="599" type="line"/>
			<point x="-389" y="790" type="line"/>
		</contour>
	</outline>
</glyph>
<glyph name="uni030C" format="2">
	<unicode hex="030C"/>
	<advance width="1"/>
	<outline>
		<contour>
			<point x="-369" y="600" type="line"/>
			<point x="-459" y="780" type="line"/>
			<point x="-389" y="780" type="line"/>
			<point x="-299" y="670" type="line"/>
			<point x="-209" y="780" type="line"/>
			<point x="-139" y="780" type="line"/>
			<point x="-229" y="600" type="line"/>
		</contour>
	</outline>
	<anchor name="_top" x="-299" y="600"/>
	<anchor name="_top.mkmk" x="-300" y="600"/>
	<guideline x="-299" y="0" angle="90"/>
</glyph>
<glyph name="uni030D" format="2">
	<unicode hex="030D"/>
	<advance width="1"/>
	<outline>
		<contour>
			<point x="-240" y="600" type="line"/>
			<point x="-345" y="600" type="line"/>
			<point x="-345" y="820" type="line"/>
			<point x="-240" y="820" type="line"/>
		</contour>
	</outline>
</glyph>
<glyph name="uni030F" format="2">
	<unicode hex="030F"/>
	<advance width="1"/>
	<outline>
		<contour>
			<point x="-292" y="600" type="line"/>
			<point x="-390" y="600" type="line"/>
			<point x="-532" y="791" type="line"/>
			<point x="-382" y="791" type="line"/>
		</contour>
		<contour>
			<point x="-92" y="600" type="line"/>
			<point x="-190" y="600" type="line"/>
			<point x="-332" y="791" type="line"/>
			<point x="-182" y="791" type="line"/>
		</contour>
	</outline>
	<anchor name="_top" x="-264" y="600"/>
</glyph>
<glyph name="uni0311" format="2">
  <unicode hex="0311"/>
  <anchor x="-290" y="600" name="_top"/>
  <outline>
    <contour>
      <point x="-115" y="600" type="curve"/>
      <point x="-235" y="600" type="line"/>
      <point x="-241.201" y="642.036"/>
      <point x="-260.755" y="663"/>
      <point x="-295" y="663" type="curve" smooth="yes"/>
      <point x="-329.245" y="663"/>
      <point x="-348.799" y="642.036"/>
      <point x="-355" y="600" type="curve"/>
      <point x="-477" y="600" type="line"/>
      <point x="-465.719" y="697.992"/>
      <point x="-393.231" y="757"/>
      <point x="-296" y="757" type="curve" smooth="yes"/>
      <point x="-202.029" y="757"/>
      <point x="-129.482" y="698.005"/>
    </contour>
  </outline>
</glyph>
<glyph name="uni0318" format="2">
	<unicode hex="0318"/>
	<advance width="1"/>
	<outline>
		<contour>
			<point x="-222" y="-305" type="line"/>
			<point x="-317" y="-305" type="line"/>
			<point x="-317" y="-210" type="line"/>
			<point x="-420" y="-210" type="line"/>
			<point x="-420" y="-115" type="line"/>
			<point x="-317" y="-115" type="line"/>
			<point x="-317" y="-20" type="line"/>
			<point x="-222" y="-20" type="line"/>
		</contour>
	</outline>
</glyph>
<glyph name="uni0325" format="2">
	<unicode hex="0325"/>
	<advance width="1"/>
	<outline>
		<contour>
			<point x="-297" y="-89" type="curve" smooth="yes"/>
			<point x="-231" y="-89"/>
			<point x="-176" y="-144"/>
			<point x="-176" y="-210" type="curve" smooth="yes"/>
			<point x="-176" y="-276"/>
			<point x="-231" y="-331"/>
			<point x="-297" y="-331" type="curve" smooth="yes"/>
			<point x="-363" y="-331"/>
			<point x="-418" y="-276"/>
			<point x="-418" y="-210" type="curve" smooth="yes"/>
			<point x="-418" y="-144"/>
			<point x="-363" y="-89"/>
		</contour>
		<contour>
			<point x="-332.84" y="-210" type="curve" smooth="yes"/>
			<point x="-332.84" y="-230.475"/>
			<point x="-317.475" y="-245.84"/>
			<point x="-297" y="-245.84" type="curve" smooth="yes"/>
			<point x="-276.418" y="-245.84"/>
			<point x="-261.16" y="-230.582"/>
			<point x="-261.16" y="-210" type="curve" smooth="yes"/>
			<point x="-261.16" y="-189.494"/>
			<point x="-276.494" y="-174.16"/>
			<point x="-297" y="-174.16" type="curve" smooth="yes"/>
			<point x="-317.315" y="-174.16"/>
			<point x="-332.84" y="-189.685"/>
		</contour>
	</outline>
</glyph>
<glyph name="uni033C" format="2">
  <advance width="1"/>
  <unicode hex="033C"/>
  <outline>
    <contour>
      <point x="-101" y="-240" type="curve"/>
      <point x="-148" y="-240" type="line"/>
      <point x="-153" y="-210"/>
      <point x="-182" y="-172"/>
      <point x="-214" y="-172" type="curve" smooth="yes"/>
      <point x="-235" y="-172"/>
      <point x="-247" y="-176"/>
      <point x="-271" y="-229" type="curve"/>
      <point x="-325" y="-229" type="line"/>
      <point x="-350" y="-176"/>
      <point x="-361" y="-172"/>
      <point x="-382" y="-172" type="curve" smooth="yes"/>
      <point x="-414" y="-172"/>
      <point x="-432" y="-189"/>
      <point x="-448" y="-240" type="curve"/>
      <point x="-493" y="-240" type="line"/>
      <point x="-493" y="-103"/>
      <point x="-464" y="-80"/>
      <point x="-382" y="-80" type="curve" smooth="yes"/>
      <point x="-351" y="-80"/>
      <point x="-316" y="-118"/>
      <point x="-297" y="-155" type="curve"/>
      <point x="-278" y="-118"/>
      <point x="-243" y="-80"/>
      <point x="-212" y="-80" type="curve" smooth="yes"/>
      <point x="-130" y="-80"/>
      <point x="-101" y="-103"/>
    </contour>
  </outline>
</glyph>
<glyph name="tonos" format="2">
	<unicode hex="0384"/>
	<advance width="221"/>
	<outline>
		<contour>
			<point x="139.736" y="722" type="line"/>
			<point x="50.0012" y="511.476" type="line"/>
			<point x="-19.9988" y="511.476" type="line"/>
			<point x="9.73614" y="722" type="line"/>
		</contour>
	</outline>
	<anchor name="_tonos.top" x="12" y="511"/>
	<anchor name="_top" x="15" y="511"/>
</glyph>
<glyph name="uni0394" format="2">
	<unicode hex="0394"/>
	<advance width="719"/>
	<outline>
		<contour>
			<point x="203" y="145" type="line"/>
			<point x="504" y="145" type="line"/>
			<point x="348" y="491" type="line"/>
			<point x="356" y="491" type="line"/>
		</contour>
		<contour>
			<point x="19" y="0" type="line"/>
			<point x="19.3199" y="89.8443" type="line"/>
			<point x="301" y="722" type="line"/>
			<point x="403" y="722" type="line"/>
			<point x="687.859" y="89.6544" type="line"/>
			<point x="688" y="0" type="line"/>
		</contour>
	</outline>
</glyph>
<glyph name="Epsilon" format="2">
	<unicode hex="0395"/>
	<advance width="626"/>
	<outline>
		<contour>
			<point x="557" y="0" type="line"/>
			<point x="70" y="0" type="line"/>
			<point x="70" y="722" type="line"/>
			<point x="547" y="722" type="line"/>
			<point x="547" y="607" type="line"/>
			<point x="215" y="607" type="line"/>
			<point x="215" y="429" type="line"/>
			<point x="527" y="429" type="line"/>
			<point x="527" y="319" type="line"/>
			<point x="215" y="319" type="line"/>
			<point x="215" y="115" type="line"/>
			<point x="557" y="115" type="line"/>
		</contour>
	</outline>
</glyph>
<glyph name="Theta" format="2">
	<unicode hex="0398"/>
	<advance width="754"/>
	<outline>
		<component base="Omicron"/>
		<contour>
			<point x="548" y="319" type="line"/>
			<point x="238" y="319" type="line"/>
			<point x="238" y="434" type="line"/>
			<point x="548" y="434" type="line"/>
		</contour>
	</outline>
</glyph>
<glyph name="Lambda" format="2">
	<unicode hex="039B"/>
	<advance width="654"/>
	<outline>
		<contour>
			<point x="10" y="0" type="line"/>
			<point x="258" y="722" type="line"/>
			<point x="409" y="722" type="line"/>
			<point x="657" y="0" type="line"/>
			<point x="499" y="0" type="line"/>
			<point x="333" y="520" type="line"/>
			<point x="168" y="0" type="line"/>
		</contour>
	</outline>
</glyph>
<glyph name="Pi" format="2">
  <advance width="673"/>
  <unicode hex="03A0"/>
  <outline>
    <contour>
      <point x="616" y="0" type="line"/>
      <point x="471" y="0" type="line"/>
      <point x="471" y="602" type="line"/>
      <point x="192" y="602" type="line"/>
      <point x="192" y="0" type="line"/>
      <point x="47" y="0" type="line"/>
      <point x="47" y="722" type="line"/>
      <point x="616" y="722" type="line"/>
    </contour>
  </outline>
</glyph>
<glyph name="Sigma" format="2">
  <advance width="626"/>
  <unicode hex="03A3"/>
  <outline>
    <contour>
      <point x="50" y="0" type="line"/>
      <point x="50" y="131" type="line"/>
      <point x="221" y="375" type="line"/>
      <point x="60" y="569" type="line"/>
      <point x="60" y="722" type="line"/>
      <point x="556" y="722" type="line"/>
      <point x="556" y="602" type="line"/>
      <point x="203" y="602" type="line"/>
      <point x="385" y="375" type="line"/>
      <point x="204" y="120" type="line"/>
      <point x="576" y="120" type="line"/>
      <point x="576" y="0" type="line"/>
    </contour>
  </outline>
</glyph>
<glyph name="Phi" format="2">
	<unicode hex="03A6"/>
	<advance width="759"/>
	<outline>
		<contour>
			<point x="188" y="370" type="curve" smooth="yes"/>
			<point x="188" y="246"/>
			<point x="222" y="186"/>
			<point x="298" y="183" type="curve"/>
			<point x="306" y="183" type="line"/>
			<point x="306" y="534" type="line"/>
			<point x="296" y="534" type="line"/>
			<point x="222" y="531"/>
			<point x="188" y="479"/>
		</contour>
		<contour>
			<point x="38" y="370" type="curve" smooth="yes"/>
			<point x="38" y="552"/>
			<point x="132" y="656"/>
			<point x="298" y="656" type="curve" smooth="yes"/>
			<point x="306" y="656" type="line"/>
			<point x="306" y="721" type="line"/>
			<point x="451" y="721" type="line"/>
			<point x="451" y="655" type="line"/>
			<point x="459" y="655" type="line" smooth="yes"/>
			<point x="632" y="655"/>
			<point x="729" y="552"/>
			<point x="729" y="370" type="curve" smooth="yes"/>
			<point x="729" y="167"/>
			<point x="637" y="62"/>
			<point x="461" y="62" type="curve" smooth="yes"/>
			<point x="451" y="62" type="line"/>
			<point x="451" y="-1" type="line"/>
			<point x="306" y="-1" type="line"/>
			<point x="306" y="62" type="line"/>
			<point x="296" y="62" type="line" smooth="yes"/>
			<point x="125" y="62"/>
			<point x="38" y="166"/>
		</contour>
		<contour>
			<point x="451" y="184" type="line"/>
			<point x="461" y="184" type="line"/>
			<point x="542" y="187"/>
			<point x="579" y="245"/>
			<point x="579" y="370" type="curve" smooth="yes"/>
			<point x="579" y="478"/>
			<point x="541" y="534"/>
			<point x="461" y="534" type="curve" smooth="yes"/>
			<point x="451" y="534" type="line"/>
		</contour>
	</outline>
</glyph>
<glyph name="Psi" format="2">
	<unicode hex="03A8"/>
	<advance width="697"/>
	<outline>
		<contour>
			<point x="445" y="0" type="line"/>
			<point x="300" y="0" type="line"/>
			<point x="300" y="277" type="line"/>
			<point x="121" y="293"/>
			<point x="36" y="423"/>
			<point x="36" y="631" type="curve" smooth="yes"/>
			<point x="36" y="722" type="line"/>
			<point x="181" y="722" type="line"/>
			<point x="181" y="631" type="line" smooth="yes"/>
			<point x="181" y="495"/>
			<point x="211" y="426"/>
			<point x="300" y="407" type="curve"/>
			<point x="300" y="722" type="line"/>
			<point x="445" y="722" type="line"/>
			<point x="445" y="407" type="line"/>
			<point x="524" y="426"/>
			<point x="560" y="491"/>
			<point x="560" y="631" type="curve" smooth="yes"/>
			<point x="560" y="722" type="line"/>
			<point x="705" y="722" type="line"/>
			<point x="705" y="631" type="line" smooth="yes"/>
			<point x="705" y="424"/>
			<point x="621" y="294"/>
			<point x="445" y="277" type="curve"/>
		</contour>
	</outline>
</glyph>
<glyph name="alpha" format="2">
	<unicode hex="03B1"/>
	<advance width="608"/>
	<outline>
		<contour>
			<point x="319.074" y="428" type="curve" smooth="yes"/>
			<point x="212.156" y="428"/>
			<point x="194" y="327.987"/>
			<point x="194" y="239" type="curve" smooth="yes"/>
			<point x="194" y="151.961"/>
			<point x="228.294" y="72"/>
			<point x="319.074" y="72" type="curve" smooth="yes"/>
			<point x="393.714" y="72"/>
			<point x="427" y="173"/>
			<point x="427" y="246" type="curve" smooth="yes"/>
			<point x="427" y="350"/>
			<point x="393.714" y="428"/>
		</contour>
		<contour>
			<point x="427" y="449" type="curve"/>
			<point x="427" y="505" type="line"/>
			<point x="562" y="505" type="line"/>
			<point x="562" y="91" type="line" smooth="yes"/>
			<point x="562" y="77"/>
			<point x="577" y="61"/>
			<point x="594" y="61" type="curve" smooth="yes"/>
			<point x="599" y="61" type="line" smooth="yes"/>
			<point x="606" y="61"/>
			<point x="613.067" y="62.2166"/>
			<point x="618" y="64" type="curve"/>
			<point x="618" y="-3" type="line"/>
			<point x="604" y="-9"/>
			<point x="537.639" y="-11"/>
			<point x="522.414" y="-11" type="curve" smooth="yes"/>
			<point x="483.295" y="-11"/>
			<point x="439.18" y="8"/>
			<point x="432.075" y="55" type="curve"/>
			<point x="418.364" y="8"/>
			<point x="342.273" y="-15"/>
			<point x="285.788" y="-15" type="curve" smooth="yes"/>
			<point x="101" y="-15"/>
			<point x="59" y="148"/>
			<point x="59" y="253" type="curve" smooth="yes"/>
			<point x="59" y="452"/>
			<point x="156" y="514"/>
			<point x="287.805" y="514" type="curve" smooth="yes"/>
			<point x="341.533" y="514"/>
			<point x="411.957" y="487.733"/>
		</contour>
	</outline>
	<anchor name="tonos.top" x="280" y="600"/>
</glyph>
<glyph name="beta" format="2">
  <advance width="608"/>
  <unicode hex="03B2"/>
  <outline>
    <contour>
      <point x="302.503" y="652" type="curve" smooth="yes"/>
      <point x="232.456" y="652"/>
      <point x="205" y="601.47"/>
      <point x="205" y="515" type="curve" smooth="yes"/>
      <point x="205" y="232.485" type="line" smooth="yes"/>
      <point x="205" y="156.004"/>
      <point x="237.687" y="77"/>
      <point x="321.278" y="77" type="curve" smooth="yes"/>
      <point x="389.428" y="77"/>
      <point x="427" y="115.321"/>
      <point x="427" y="195.5" type="curve" smooth="yes"/>
      <point x="427" y="251.266"/>
      <point x="396.815" y="309"/>
      <point x="323.94" y="309" type="curve" smooth="yes"/>
      <point x="251.072" y="309" type="line"/>
      <point x="251.072" y="413" type="line"/>
      <point x="310.108" y="413" type="line" smooth="yes"/>
      <point x="364.339" y="413"/>
      <point x="391" y="452.033"/>
      <point x="391" y="529" type="curve" smooth="yes"/>
      <point x="391" y="579.304"/>
      <point x="359.25" y="652"/>
    </contour>
    <contour>
      <point x="304.884" y="736" type="curve" smooth="yes"/>
      <point x="429.339" y="736"/>
      <point x="526" y="659.316"/>
      <point x="526" y="535.766" type="curve" smooth="yes"/>
      <point x="526" y="467.033"/>
      <point x="501.989" y="413.716"/>
      <point x="440.148" y="383.238" type="curve"/>
      <point x="521.919" y="358.354"/>
      <point x="564" y="288.841"/>
      <point x="564" y="193.868" type="curve" smooth="yes"/>
      <point x="564" y="72.6347"/>
      <point x="484.902" y="-14"/>
      <point x="350.108" y="-14" type="curve" smooth="yes"/>
      <point x="296.497" y="-14"/>
      <point x="237.538" y="8.39714"/>
      <point x="205" y="61.9627" type="curve"/>
      <point x="205" y="-200" type="line"/>
      <point x="70" y="-200" type="line"/>
      <point x="70" y="539" type="line" smooth="yes"/>
      <point x="70" y="670.884"/>
      <point x="181.742" y="736"/>
    </contour>
  </outline>
</glyph>
<glyph name="gamma" format="2">
	<unicode hex="03B3"/>
	<advance width="551"/>
	<outline>
		<contour>
			<point x="162" y="467" type="curve" smooth="yes"/>
			<point x="308.484" y="126" type="line"/>
			<point x="258.484" y="126" type="line"/>
			<point x="415" y="500" type="line"/>
			<point x="549" y="500" type="line"/>
			<point x="351" y="27" type="line"/>
			<point x="351" y="-200" type="line"/>
			<point x="216" y="-200" type="line"/>
			<point x="216" y="33" type="line"/>
			<point x="64" y="379" type="line" smooth="yes"/>
			<point x="55.1423" y="399.163"/>
			<point x="43.3468" y="406.65"/>
			<point x="25.3256" y="407.872" type="curve" smooth="yes"/>
			<point x="16.9762" y="408.439"/>
			<point x="4.29759" y="408"/>
			<point x="-2" y="407" type="curve"/>
			<point x="-2" y="511" type="line"/>
			<point x="15.4787" y="513.496"/>
			<point x="44.2015" y="514"/>
			<point x="53.5793" y="514" type="curve" smooth="yes"/>
			<point x="97.7993" y="514"/>
			<point x="146.622" y="502.799"/>
		</contour>
	</outline>
</glyph>
<glyph name="delta" format="2">
  <advance width="608"/>
  <unicode hex="03B4"/>
  <outline>
    <contour>
      <point x="319.405" y="420.42" type="curve"/>
      <point x="303.485" y="420.42" type="line" smooth="yes"/>
      <point x="201.425" y="420.42"/>
      <point x="173.735" y="303.52"/>
      <point x="173.735" y="234.57" type="curve" smooth="yes"/>
      <point x="173.735" y="144.76"/>
      <point x="220.715" y="71.58"/>
      <point x="299.285" y="71.58" type="curve" smooth="yes"/>
      <point x="307.385" y="71.58" type="line" smooth="yes"/>
      <point x="392.435" y="71.58"/>
      <point x="427.265" y="170.01"/>
      <point x="427.265" y="229.95" type="curve" smooth="yes"/>
      <point x="427.265" y="326.137"/>
      <point x="384.489" y="385.484"/>
    </contour>
    <contour>
      <point x="92.4" y="606.5" type="line"/>
      <point x="92.4" y="722.4" type="line"/>
      <point x="501.4" y="722.4" type="line"/>
      <point x="501.4" y="627.3" type="line"/>
      <point x="234.3" y="627.3" type="line"/>
      <point x="428.8" y="485.4" type="line" smooth="yes"/>
      <point x="512.375" y="424.427"/>
      <point x="560.8" y="343.7"/>
      <point x="560.8" y="240.3" type="curve" smooth="yes"/>
      <point x="560.8" y="53.3"/>
      <point x="443.2" y="-14.4"/>
      <point x="298" y="-14.4" type="curve" smooth="yes"/>
      <point x="107.7" y="-14.4"/>
      <point x="35.2" y="102.964"/>
      <point x="35.2" y="235.058" type="curve" smooth="yes"/>
      <point x="35.2" y="374.395"/>
      <point x="115.868" y="452.661"/>
      <point x="246.98" y="486.78" type="curve"/>
    </contour>
  </outline>
</glyph>
<glyph name="epsilon" format="2">
	<unicode hex="03B5"/>
	<advance width="551"/>
	<outline>
		<contour>
			<point x="54" y="127.438" type="curve" smooth="yes"/>
			<point x="54" y="199.919"/>
			<point x="83.925" y="242.564"/>
			<point x="149.829" y="264" type="curve"/>
			<point x="105.463" y="279.339"/>
			<point x="76" y="316.115"/>
			<point x="76" y="374.279" type="curve" smooth="yes"/>
			<point x="76" y="455.033"/>
			<point x="144.826" y="514"/>
			<point x="262.104" y="514" type="curve" smooth="yes"/>
			<point x="393.521" y="514"/>
			<point x="473" y="449.892"/>
			<point x="473" y="354" type="curve"/>
			<point x="360" y="354" type="line"/>
			<point x="360" y="397.863"/>
			<point x="325.572" y="427"/>
			<point x="273.744" y="427" type="curve" smooth="yes"/>
			<point x="240.601" y="427"/>
			<point x="212" y="401.523"/>
			<point x="212" y="372" type="curve" smooth="yes"/>
			<point x="212" y="331.167"/>
			<point x="233.679" y="306.29"/>
			<point x="273" y="302" type="curve" smooth="yes"/>
			<point x="328" y="296" type="line"/>
			<point x="328" y="227" type="line"/>
			<point x="278" y="221" type="line" smooth="yes"/>
			<point x="228.807" y="215.097"/>
			<point x="197" y="184.151"/>
			<point x="197" y="142.191" type="curve" smooth="yes"/>
			<point x="197" y="100.385"/>
			<point x="226.547" y="73"/>
			<point x="271.653" y="73" type="curve" smooth="yes"/>
			<point x="340.762" y="73"/>
			<point x="380" y="101.591"/>
			<point x="380" y="154" type="curve"/>
			<point x="496" y="154" type="line"/>
			<point x="496" y="52.618"/>
			<point x="407.248" y="-14"/>
			<point x="264.812" y="-14" type="curve" smooth="yes"/>
			<point x="134.446" y="-14"/>
			<point x="54" y="42.1317"/>
		</contour>
	</outline>
	<anchor name="tonos.top" x="270" y="600"/>
</glyph>
<glyph name="zeta" format="2">
	<unicode hex="03B6"/>
	<advance width="444"/>
	<outline>
		<contour>
			<point x="78" y="632" type="line"/>
			<point x="78" y="722" type="line"/>
			<point x="477" y="722" type="line"/>
			<point x="477" y="666.606" type="line"/>
			<point x="247.665" y="535.811"/>
			<point x="176" y="283.845"/>
			<point x="176" y="221.547" type="curve" smooth="yes"/>
			<point x="176" y="209.431" type="line" smooth="yes"/>
			<point x="176" y="136.528"/>
			<point x="213.789" y="110"/>
			<point x="273" y="110" type="curve" smooth="yes"/>
			<point x="377" y="110" type="line" smooth="yes"/>
			<point x="455.468" y="110"/>
			<point x="489.726" y="50.644"/>
			<point x="489.754" y="-6.19888" type="curve" smooth="yes"/>
			<point x="489.76" y="-19.7254"/>
			<point x="487.836" y="-48.1767"/>
			<point x="485" y="-58" type="curve" smooth="yes"/>
			<point x="444" y="-200" type="line"/>
			<point x="324" y="-200" type="line"/>
			<point x="359" y="-89" type="line" smooth="yes"/>
			<point x="364.419" y="-71.8145"/>
			<point x="368" y="-52.6599"/>
			<point x="368" y="-40.8026" type="curve" smooth="yes"/>
			<point x="368" y="-21.1881"/>
			<point x="358.2" y="0"/>
			<point x="341" y="0" type="curve" smooth="yes"/>
			<point x="217" y="0" type="line" smooth="yes"/>
			<point x="102" y="0"/>
			<point x="32" y="79.9393"/>
			<point x="32" y="188.428" type="curve" smooth="yes"/>
			<point x="32" y="200.471" type="line" smooth="yes"/>
			<point x="32" y="371.685"/>
			<point x="159.114" y="532.037"/>
			<point x="285" y="632" type="curve"/>
		</contour>
	</outline>
</glyph>
<glyph name="theta" format="2">
	<unicode hex="03B8"/>
	<advance width="528"/>
	<outline>
		<contour>
			<point x="499.658" y="300.327" type="curve" smooth="yes"/>
			<point x="499.658" y="435.76" type="line" smooth="yes"/>
			<point x="499.658" y="654.012"/>
			<point x="404.835" y="736"/>
			<point x="260.245" y="736" type="curve" smooth="yes"/>
			<point x="121.307" y="736"/>
			<point x="28.2186" y="660.296"/>
			<point x="28.2186" y="436.064" type="curve" smooth="yes"/>
			<point x="28.2186" y="300.327" type="line" smooth="yes"/>
			<point x="28.2186" y="71.8912"/>
			<point x="114" y="-14"/>
			<point x="264" y="-14" type="curve" smooth="yes"/>
			<point x="414" y="-14"/>
			<point x="499.658" y="71.8912"/>
		</contour>
		<contour>
			<point x="264" y="667" type="curve" smooth="yes"/>
			<point x="354.485" y="667"/>
			<point x="364.967" y="606.313"/>
			<point x="364.967" y="436.495" type="curve" smooth="yes"/>
			<point x="364.967" y="300.251" type="line" smooth="yes"/>
			<point x="364.967" y="131.547"/>
			<point x="353.907" y="55"/>
			<point x="264" y="55" type="curve" smooth="yes"/>
			<point x="174.164" y="55"/>
			<point x="163.027" y="131.262"/>
			<point x="163.027" y="300.251" type="curve" smooth="yes"/>
			<point x="163.027" y="436.329" type="line" smooth="yes"/>
			<point x="163.027" y="606.155"/>
			<point x="174.473" y="667"/>
		</contour>
		<contour>
			<point x="414" y="423" type="line"/>
			<point x="114" y="423" type="line"/>
			<point x="114" y="328" type="line"/>
			<point x="414" y="328" type="line"/>
		</contour>
	</outline>
</glyph>
<glyph name="kappa" format="2">
	<unicode hex="03BA"/>
	<advance width="598"/>
	<outline>
		<contour>
			<point x="216" y="0" type="line"/>
			<point x="216" y="500" type="line"/>
			<point x="81" y="500" type="line"/>
			<point x="81" y="0" type="line"/>
		</contour>
		<contour>
			<point x="216.602" y="271.429" type="line"/>
			<point x="400" y="0" type="line"/>
			<point x="567" y="0" type="line"/>
			<point x="342.572" y="330.408" type="line"/>
		</contour>
		<contour>
			<point x="561" y="500" type="line"/>
			<point x="391" y="500" type="line"/>
			<point x="159.926" y="288.882" type="line"/>
			<point x="160" y="138.062" type="line"/>
		</contour>
	</outline>
</glyph>
<glyph name="xi" format="2">
	<unicode hex="03BE"/>
	<advance width="496"/>
	<outline>
		<contour>
			<point x="50" y="177.566" type="curve" smooth="yes"/>
			<point x="50" y="65.4488"/>
			<point x="116.439" y="-6"/>
			<point x="243" y="-6" type="curve" smooth="yes"/>
			<point x="356" y="-6" type="line" smooth="yes"/>
			<point x="381.441" y="-6"/>
			<point x="387.334" y="-18.5639"/>
			<point x="387.089" y="-31.3639" type="curve" smooth="yes"/>
			<point x="386.741" y="-49.532"/>
			<point x="373.589" y="-86.3774"/>
			<point x="371" y="-94" type="curve" smooth="yes"/>
			<point x="335" y="-200" type="line"/>
			<point x="434" y="-200" type="line"/>
			<point x="475" y="-78" type="line" smooth="yes"/>
			<point x="479.25" y="-65.3534"/>
			<point x="493" y="-13"/>
			<point x="493" y="13.2194" type="curve" smooth="yes"/>
			<point x="493" y="53"/>
			<point x="461.348" y="92"/>
			<point x="395" y="92" type="curve" smooth="yes"/>
			<point x="290" y="92" type="line" smooth="yes"/>
			<point x="233.114" y="92"/>
			<point x="185" y="102.91"/>
			<point x="185" y="185.198" type="curve" smooth="yes"/>
			<point x="185" y="273.975"/>
			<point x="241" y="301"/>
			<point x="320" y="301" type="curve" smooth="yes"/>
			<point x="422" y="301" type="line"/>
			<point x="422" y="396" type="line"/>
			<point x="296" y="396" type="line" smooth="yes"/>
			<point x="174.905" y="396"/>
			<point x="50" y="331.293"/>
		</contour>
		<contour>
			<point x="62" y="598" type="line"/>
			<point x="450" y="598" type="line"/>
			<point x="450" y="693" type="line"/>
			<point x="62" y="693" type="line"/>
		</contour>
		<contour>
			<point x="340.673" y="391.774" type="line"/>
			<point x="280.166" y="408.692"/>
			<point x="212" y="432.409"/>
			<point x="212" y="511.509" type="curve" smooth="yes"/>
			<point x="212" y="567.543"/>
			<point x="246.206" y="604.781"/>
			<point x="311.962" y="630.222" type="curve"/>
			<point x="180.296" y="630.247" type="line"/>
			<point x="135.056" y="600.718"/>
			<point x="92" y="558.511"/>
			<point x="92" y="498.201" type="curve" smooth="yes"/>
			<point x="92" y="423.514"/>
			<point x="158.031" y="383.793"/>
			<point x="222.572" y="362.506" type="curve"/>
		</contour>
	</outline>
</glyph>
<glyph name="pi" format="2">
  <advance width="572"/>
  <unicode hex="03C0"/>
  <outline>
    <contour>
      <point x="21" y="405" type="line"/>
      <point x="21" y="500" type="line"/>
      <point x="583" y="500" type="line"/>
      <point x="583" y="405" type="line"/>
      <point x="510" y="405" type="line"/>
      <point x="510" y="119" type="line" smooth="yes"/>
      <point x="510" y="96"/>
      <point x="531" y="84"/>
      <point x="549" y="84" type="curve" smooth="yes"/>
      <point x="558" y="84" type="line" smooth="yes"/>
      <point x="566" y="84"/>
      <point x="574" y="85"/>
      <point x="582" y="86" type="curve"/>
      <point x="582" y="-1" type="line"/>
      <point x="460" y="-8" type="line"/>
      <point x="400" y="-8"/>
      <point x="375" y="34.4207"/>
      <point x="375" y="77" type="curve" smooth="yes"/>
      <point x="375" y="405" type="line"/>
      <point x="226" y="405" type="line"/>
      <point x="226" y="0" type="line"/>
      <point x="91" y="0" type="line"/>
      <point x="91" y="405" type="line"/>
    </contour>
  </outline>
</glyph>
<glyph name="sigma1" format="2">
	<unicode hex="03C2"/>
	<advance width="578"/>
	<outline>
		<contour>
			<point x="301.933" y="512" type="curve" smooth="yes"/>
			<point x="417.204" y="512"/>
			<point x="528.745" y="437.266"/>
			<point x="534" y="298" type="curve"/>
			<point x="399" y="298" type="line"/>
			<point x="393.526" y="378.037"/>
			<point x="359.709" y="431.222"/>
			<point x="294.753" y="431" type="curve" smooth="yes"/>
			<point x="209.564" y="430.709"/>
			<point x="178" y="378"/>
			<point x="178" y="284.873" type="curve" smooth="yes"/>
			<point x="178" y="212"/>
			<point x="220.627" y="164.418"/>
			<point x="279" y="148" type="curve" smooth="yes"/>
			<point x="457.129" y="97.9013" type="line" smooth="yes"/>
			<point x="496.925" y="86.7087"/>
			<point x="515.252" y="52.486"/>
			<point x="514.944" y="6.08744" type="curve" smooth="yes"/>
			<point x="514.648" y="-38.5771"/>
			<point x="497" y="-154"/>
			<point x="473" y="-200" type="curve"/>
			<point x="343" y="-200" type="line"/>
			<point x="363.475" y="-155.886"/>
			<point x="385" y="-75.9907"/>
			<point x="385" y="-50.5727" type="curve" smooth="yes"/>
			<point x="385" y="-26.7306"/>
			<point x="373.36" y="-11.2933"/>
			<point x="358" y="-8" type="curve" smooth="yes"/>
			<point x="247.57" y="15.6772" type="line" smooth="yes"/>
			<point x="96.3748" y="48.095"/>
			<point x="44" y="149"/>
			<point x="44" y="276.71" type="curve" smooth="yes"/>
			<point x="44" y="435.785"/>
			<point x="149.103" y="512"/>
		</contour>
	</outline>
</glyph>
<glyph name="sigma" format="2">
	<unicode hex="03C3"/>
	<advance width="608"/>
	<outline>
		<contour>
			<point x="302" y="514" type="curve" smooth="yes"/>
			<point x="141.609" y="514"/>
			<point x="44" y="410.131"/>
			<point x="44" y="249.511" type="curve" smooth="yes"/>
			<point x="44" y="89.7787"/>
			<point x="142.355" y="-14"/>
			<point x="301.744" y="-14" type="curve" smooth="yes"/>
			<point x="461.606" y="-14"/>
			<point x="559.979" y="90.4554"/>
			<point x="560" y="249.545" type="curve" smooth="yes"/>
			<point x="560.021" y="409.743"/>
			<point x="462.494" y="514"/>
		</contour>
		<contour>
			<point x="302" y="428" type="curve" smooth="yes"/>
			<point x="372.355" y="428"/>
			<point x="425" y="380.26"/>
			<point x="425" y="250.175" type="curve" smooth="yes"/>
			<point x="425" y="120.047"/>
			<point x="372.2" y="72"/>
			<point x="302.268" y="72" type="curve" smooth="yes"/>
			<point x="232.492" y="72"/>
			<point x="179" y="120.112"/>
			<point x="179" y="249.534" type="curve" smooth="yes"/>
			<point x="179" y="379.543"/>
			<point x="232.18" y="428"/>
		</contour>
		<contour>
			<point x="474" y="401" type="line"/>
			<point x="600" y="401" type="line"/>
			<point x="600" y="500" type="line"/>
			<point x="388" y="500" type="line"/>
		</contour>
	</outline>
</glyph>
<glyph name="upsilon" format="2">
	<unicode hex="03C5"/>
	<advance width="608"/>
	<outline>
		<contour>
			<point x="66" y="158" type="curve" smooth="yes"/>
			<point x="66" y="500" type="line"/>
			<point x="201" y="500" type="line"/>
			<point x="201" y="185" type="line" smooth="yes"/>
			<point x="201" y="85"/>
			<point x="250.661" y="74"/>
			<point x="300.46" y="74" type="curve" smooth="yes"/>
			<point x="371.173" y="74"/>
			<point x="399" y="84.6153"/>
			<point x="399" y="185" type="curve" smooth="yes"/>
			<point x="399" y="500" type="line"/>
			<point x="534" y="500" type="line"/>
			<point x="534" y="158" type="line" smooth="yes"/>
			<point x="534" y="38"/>
			<point x="395.682" y="-12"/>
			<point x="322.274" y="-12" type="curve" smooth="yes"/>
			<point x="277.75" y="-12" type="line" smooth="yes"/>
			<point x="184.434" y="-12"/>
			<point x="66" y="37.9149"/>
		</contour>
	</outline>
	<anchor name="tonos.top" x="290" y="600"/>
</glyph>
<glyph name="phi" format="2">
  <advance width="780"/>
  <unicode hex="03C6"/>
  <outline>
    <contour>
      <point x="322" y="72" type="curve"/>
      <point x="322" y="514" type="line"/>
      <point x="433" y="514" type="line" smooth="yes"/>
      <point x="631.759" y="514"/>
      <point x="736" y="420.37"/>
      <point x="736" y="264.519" type="curve" smooth="yes"/>
      <point x="736" y="105.258"/>
      <point x="627.148" y="-7"/>
      <point x="457" y="-7" type="curve"/>
      <point x="457" y="-195" type="line"/>
      <point x="322" y="-195" type="line"/>
      <point x="322" y="-7" type="line"/>
      <point x="147.23" y="-7"/>
      <point x="44" y="98.7917"/>
      <point x="44" y="260" type="curve" smooth="yes"/>
      <point x="44" y="395.826"/>
      <point x="145.697" y="492.63"/>
      <point x="278" y="508.282" type="curve"/>
      <point x="278" y="434" type="line"/>
      <point x="218.185" y="401.697"/>
      <point x="179" y="352.492"/>
      <point x="179" y="251.848" type="curve" smooth="yes"/>
      <point x="179" y="140.511"/>
      <point x="226.954" y="72"/>
    </contour>
    <contour>
      <point x="457" y="435" type="curve"/>
      <point x="457" y="72" type="line"/>
      <point x="553.967" y="72"/>
      <point x="601.069" y="138.047"/>
      <point x="601.003" y="255.288" type="curve" smooth="yes"/>
      <point x="600.937" y="372.273"/>
      <point x="553.967" y="435"/>
    </contour>
  </outline>
  <guideline angle="0" x="0" y="351"/>
  <guideline angle="90" x="513" y="0"/>
</glyph>
<glyph name="uni0404" format="2">
  <advance width="715"/>
  <unicode hex="0404"/>
  <outline>
    <contour>
      <point x="665" y="542" type="curve"/>
      <point x="524" y="542" type="line"/>
      <point x="489" y="590"/>
      <point x="437" y="614"/>
      <point x="368" y="614" type="curve" smooth="yes"/>
      <point x="224" y="614"/>
      <point x="184" y="503"/>
      <point x="178" y="428" type="curve"/>
      <point x="451" y="428" type="line"/>
      <point x="451" y="308" type="line"/>
      <point x="178" y="308" type="line"/>
      <point x="185" y="192"/>
      <point x="235" y="107"/>
      <point x="368" y="107" type="curve" smooth="yes"/>
      <point x="442" y="107"/>
      <point x="493" y="143"/>
      <point x="525" y="194" type="curve"/>
      <point x="669" y="194" type="line"/>
      <point x="615" y="79"/>
      <point x="510" y="-14"/>
      <point x="368" y="-14" type="curve" smooth="yes"/>
      <point x="157" y="-14"/>
      <point x="28" y="142"/>
      <point x="28" y="372" type="curve" smooth="yes"/>
      <point x="28" y="586"/>
      <point x="144" y="732"/>
      <point x="367" y="732" type="curve" smooth="yes"/>
      <point x="518" y="732"/>
      <point x="621" y="662"/>
    </contour>
  </outline>
</glyph>
<glyph name="uni0407" format="2">
	<unicode hex="0407"/>
	<advance width="289"/>
	<outline>
		<contour>
			<point x="305" y="795" type="line"/>
			<point x="195" y="795" type="line"/>
			<point x="195" y="915" type="line"/>
			<point x="305" y="915" type="line"/>
		</contour>
		<contour>
			<point x="95" y="795" type="line"/>
			<point x="-15" y="795" type="line"/>
			<point x="-15" y="915" type="line"/>
			<point x="95" y="915" type="line"/>
		</contour>
		<contour>
			<point x="220" y="0" type="line"/>
			<point x="70" y="0" type="line"/>
			<point x="70" y="722" type="line"/>
			<point x="220" y="722" type="line"/>
		</contour>
	</outline>
</glyph>
<glyph name="Dzhecyr" format="2">
	<unicode hex="040F"/>
	<advance width="689"/>
	<outline>
		<component base="uni041F" yScale="-1" yOffset="722"/>
		<contour>
			<point x="278" y="-162" type="line"/>
			<point x="278" y="30" type="line"/>
			<point x="411" y="30" type="line"/>
			<point x="411" y="-162" type="line"/>
		</contour>
	</outline>
</glyph>
<glyph name="uni0411" format="2">
  <advance width="657"/>
  <unicode hex="0411"/>
  <outline>
    <contour>
      <point x="205" y="121" type="line"/>
      <point x="350" y="121" type="line" smooth="yes"/>
      <point x="426" y="121"/>
      <point x="470" y="153"/>
      <point x="470" y="221" type="curve" smooth="yes"/>
      <point x="470" y="296"/>
      <point x="431" y="320"/>
      <point x="345" y="320" type="curve" smooth="yes"/>
      <point x="205" y="320" type="line"/>
    </contour>
    <contour>
      <point x="60" y="0" type="line"/>
      <point x="60" y="722" type="line"/>
      <point x="525" y="722" type="line"/>
      <point x="525" y="603" type="line"/>
      <point x="205" y="603" type="line"/>
      <point x="205" y="437" type="line"/>
      <point x="350" y="437" type="line" smooth="yes"/>
      <point x="528" y="437"/>
      <point x="620" y="352"/>
      <point x="620" y="210" type="curve" smooth="yes"/>
      <point x="620" y="92"/>
      <point x="524" y="0"/>
      <point x="404" y="0" type="curve" smooth="yes"/>
    </contour>
  </outline>
</glyph>
<glyph name="uni0418" format="2">
	<unicode hex="0418"/>
	<advance width="698"/>
	<outline>
		<contour>
			<point x="60" y="0" type="line"/>
			<point x="60" y="722" type="line"/>
			<point x="200" y="722" type="line"/>
			<point x="200" y="218" type="line"/>
			<point x="465" y="722" type="line"/>
			<point x="638" y="722" type="line"/>
			<point x="638" y="0" type="line"/>
			<point x="498" y="0" type="line"/>
			<point x="498" y="505" type="line"/>
			<point x="227" y="0" type="line"/>
		</contour>
	</outline>
</glyph>
<glyph name="uni0419" format="2">
	<unicode hex="0419"/>
	<advance width="698"/>
	<outline>
		<contour>
			<point x="60" y="0" type="line"/>
			<point x="60" y="722" type="line"/>
			<point x="200" y="722" type="line"/>
			<point x="200" y="218" type="line"/>
			<point x="465" y="722" type="line"/>
			<point x="638" y="722" type="line"/>
			<point x="638" y="0" type="line"/>
			<point x="498" y="0" type="line"/>
			<point x="498" y="505" type="line"/>
			<point x="227" y="0" type="line"/>
		</contour>
		<contour>
			<point x="331" y="818" type="curve" smooth="yes"/>
			<point x="359" y="818"/>
			<point x="393" y="839"/>
			<point x="400" y="869" type="curve"/>
			<point x="486" y="869" type="line"/>
			<point x="475" y="788"/>
			<point x="411" y="720"/>
			<point x="331" y="720" type="curve" smooth="yes"/>
			<point x="251" y="720"/>
			<point x="187" y="787"/>
			<point x="176" y="869" type="curve"/>
			<point x="262" y="869" type="line"/>
			<point x="268" y="840"/>
			<point x="302" y="818"/>
		</contour>
	</outline>
</glyph>
<glyph name="uni041A" format="2">
	<unicode hex="041A"/>
	<advance width="684"/>
	<outline>
		<contour>
			<point x="650" y="0" type="line"/>
			<point x="470" y="0" type="line"/>
			<point x="205" y="362" type="line"/>
			<point x="205" y="0" type="line"/>
			<point x="60" y="0" type="line"/>
			<point x="60" y="722" type="line"/>
			<point x="205" y="722" type="line"/>
			<point x="205" y="412" type="line"/>
			<point x="450" y="722" type="line"/>
			<point x="620" y="722" type="line"/>
			<point x="366" y="399" type="line"/>
		</contour>
	</outline>
</glyph>
<glyph name="uni041F" format="2">
	<unicode hex="041F"/>
	<advance width="689"/>
	<outline>
		<contour>
			<point x="629" y="0" type="line"/>
			<point x="484" y="0" type="line"/>
			<point x="484" y="602" type="line"/>
			<point x="205" y="602" type="line"/>
			<point x="205" y="0" type="line"/>
			<point x="60" y="0" type="line"/>
			<point x="60" y="722" type="line"/>
			<point x="629" y="722" type="line"/>
		</contour>
	</outline>
</glyph>
<glyph name="uni042A" format="2">
	<unicode hex="042A"/>
	<advance width="718"/>
	<outline>
		<contour>
			<point x="659" y="216" type="curve" smooth="yes"/>
			<point x="659" y="37"/>
			<point x="528" y="0"/>
			<point x="355" y="0" type="curve" smooth="yes"/>
			<point x="131" y="0" type="line"/>
			<point x="131" y="602" type="line"/>
			<point x="9" y="602" type="line"/>
			<point x="9" y="722" type="line"/>
			<point x="276" y="722" type="line"/>
			<point x="276" y="432" type="line"/>
			<point x="355" y="432" type="line" smooth="yes"/>
			<point x="532" y="432"/>
			<point x="659" y="388"/>
		</contour>
		<contour>
			<point x="358" y="310" type="curve" smooth="yes"/>
			<point x="276" y="310" type="line"/>
			<point x="276" y="119" type="line"/>
			<point x="358" y="119" type="line" smooth="yes"/>
			<point x="449" y="119"/>
			<point x="509" y="137"/>
			<point x="509" y="216" type="curve" smooth="yes"/>
			<point x="509" y="294"/>
			<point x="450" y="310"/>
		</contour>
	</outline>
</glyph>
